G04 #@! TF.GenerationSoftware,KiCad,Pcbnew,8.0.2*
G04 #@! TF.CreationDate,2024-05-24T11:31:22+03:00*
G04 #@! TF.ProjectId,ratless65,7261746c-6573-4733-9635-2e6b69636164,rev?*
G04 #@! TF.SameCoordinates,Original*
G04 #@! TF.FileFunction,Profile,NP*
%FSLAX46Y46*%
G04 Gerber Fmt 4.6, Leading zero omitted, Abs format (unit mm)*
G04 Created by KiCad (PCBNEW 8.0.2) date 2024-05-24 11:31:22*
%MOMM*%
%LPD*%
G01*
G04 APERTURE LIST*
G04 #@! TA.AperFunction,Profile*
%ADD10C,0.050000*%
G04 #@! TD*
G04 APERTURE END LIST*
D10*
X230981250Y-123825000D02*
G75*
G02*
X231775000Y-123031250I793750J0D01*
G01*
X212725000Y-124618750D02*
X230187500Y-124618750D01*
X335756250Y-87312500D02*
X335756250Y-69850000D01*
X350043750Y-68262500D02*
X350043750Y-33337500D01*
X249237500Y-29368750D02*
G75*
G02*
X250031250Y-30162500I0J-793750D01*
G01*
X230981250Y-123825000D02*
G75*
G02*
X230187500Y-124618750I-793750J0D01*
G01*
X250825000Y-30956250D02*
G75*
G02*
X250031250Y-30162500I0J793750D01*
G01*
X268287500Y-30956250D02*
X250825000Y-30956250D01*
X316706250Y-106362500D02*
X316706250Y-88900000D01*
X252412500Y-124618750D02*
X269875000Y-124618750D01*
X307181250Y-107950000D02*
G75*
G02*
X307975000Y-107156250I793750J0D01*
G01*
X90487500Y-30956250D02*
X73025000Y-30956250D01*
X70643750Y-125412500D02*
G75*
G02*
X69850000Y-126206250I-793750J0D01*
G01*
X109537500Y-123031250D02*
G75*
G02*
X110331250Y-123825000I0J-793750D01*
G01*
X335756250Y-69850000D02*
G75*
G02*
X336550000Y-69056250I793750J0D01*
G01*
X269875000Y-32543750D02*
G75*
G02*
X269081250Y-31750000I0J793750D01*
G01*
X350043750Y-68262500D02*
G75*
G02*
X349250000Y-69056250I-793750J0D01*
G01*
X127000000Y-30956250D02*
X109537500Y-30956250D01*
X24606250Y-33337500D02*
X24606250Y-32543750D01*
X33337500Y-107156250D02*
G75*
G02*
X34131250Y-107950000I0J-793750D01*
G01*
X107950000Y-29368750D02*
X92075000Y-29368750D01*
X317500000Y-128206250D02*
X306212500Y-128206250D01*
X307975000Y-107156250D02*
X315912500Y-107156250D01*
X111125000Y-124618750D02*
X128587500Y-124618750D01*
X100012500Y-28575000D02*
X159543750Y-28575000D01*
X211931250Y-125412500D02*
G75*
G02*
X212725000Y-124618750I793750J0D01*
G01*
X24606250Y-33337500D02*
X24606250Y-106362500D01*
X25575000Y-30543750D02*
X24960000Y-30543750D01*
X165718747Y-126206253D02*
X165885063Y-126206253D01*
X166687500Y-125412500D02*
G75*
G02*
X165885063Y-126206253I-793800J0D01*
G01*
X252412500Y-124618750D02*
G75*
G02*
X251618750Y-123825000I0J793750D01*
G01*
X300037500Y-126206250D02*
X300212500Y-126206250D01*
X307181250Y-125412500D02*
G75*
G02*
X306387500Y-126206250I-793750J0D01*
G01*
X165718750Y-29750000D02*
X175593750Y-29750000D01*
X109537500Y-30956250D02*
G75*
G02*
X108743750Y-30162500I0J793750D01*
G01*
X89693750Y-123825000D02*
G75*
G02*
X90487500Y-123031250I793750J0D01*
G01*
X159718750Y-29750000D02*
X159543750Y-29750000D01*
X316706250Y-106362500D02*
G75*
G02*
X315912500Y-107156250I-793750J0D01*
G01*
X175418750Y-126206250D02*
G75*
G02*
X174625050Y-125412500I50J793750D01*
G01*
X71437500Y-124618750D02*
X88900000Y-124618750D01*
X250825000Y-123031250D02*
G75*
G02*
X251618750Y-123825000I0J-793750D01*
G01*
X127793751Y-31750000D02*
X159718750Y-31750000D01*
X306212497Y-126206253D02*
X306387500Y-126206253D01*
X91281250Y-30162500D02*
G75*
G02*
X90487500Y-30956250I-793750J0D01*
G01*
X181768750Y-28575000D02*
X181768750Y-29750000D01*
X130175000Y-126206250D02*
G75*
G02*
X129381250Y-125412500I0J793750D01*
G01*
X31750000Y-28575000D02*
X31575000Y-28575000D01*
X232568750Y-30162500D02*
G75*
G02*
X233362500Y-29368750I793750J0D01*
G01*
X159718750Y-126206250D02*
X130175000Y-126206250D01*
X165718750Y-128206250D02*
X175593750Y-128206250D01*
X238125000Y-28575000D02*
X343075000Y-28575000D01*
X24960000Y-30543750D02*
X23812500Y-30543750D01*
X269875000Y-32543750D02*
X343075000Y-32543750D01*
X231775000Y-123031250D02*
X250825000Y-123031250D01*
X25400000Y-107156250D02*
G75*
G02*
X24606250Y-106362500I0J793750D01*
G01*
X316706250Y-88900000D02*
G75*
G02*
X317500000Y-88106250I793750J0D01*
G01*
X111125000Y-124618750D02*
G75*
G02*
X110331250Y-123825000I0J793750D01*
G01*
X128587500Y-124618750D02*
G75*
G02*
X129381250Y-125412500I0J-793750D01*
G01*
X317500000Y-136525000D02*
X317500000Y-128206250D01*
X238125000Y-28575000D02*
X181768750Y-28575000D01*
X249237500Y-29368750D02*
X233362500Y-29368750D01*
X34925000Y-126206250D02*
X35100000Y-126206250D01*
X335756250Y-87312500D02*
G75*
G02*
X334962500Y-88106250I-793750J0D01*
G01*
X127000000Y-30956250D02*
G75*
G02*
X127793750Y-31750000I0J-793750D01*
G01*
X165718750Y-31750000D02*
X165893700Y-31750000D01*
X24606250Y-32543750D02*
X25575000Y-32543750D01*
X107950000Y-29368750D02*
G75*
G02*
X108743750Y-30162500I0J-793750D01*
G01*
X349075000Y-32543750D02*
X349250000Y-32543750D01*
X349250000Y-30543750D02*
X349250000Y-20637500D01*
X23812500Y-136525000D02*
X317500000Y-136525000D01*
X165893700Y-31750000D02*
G75*
G02*
X166687500Y-32543800I0J-793800D01*
G01*
X159543750Y-28575000D02*
X159543750Y-29750000D01*
X349075000Y-30543750D02*
X349250000Y-30543750D01*
X174625000Y-32543750D02*
G75*
G02*
X175418750Y-31750000I793800J-50D01*
G01*
X31575000Y-32543750D02*
X71437500Y-32543750D01*
X349250000Y-32543750D02*
G75*
G02*
X350043750Y-33337500I0J-793750D01*
G01*
X268287500Y-30956250D02*
G75*
G02*
X269081250Y-31750000I0J-793750D01*
G01*
X34131250Y-107950000D02*
X34131250Y-125412500D01*
X307181250Y-125412500D02*
X307181250Y-107950000D01*
X232568750Y-30162500D02*
G75*
G02*
X231775000Y-30956250I-793750J0D01*
G01*
X269875000Y-124618750D02*
G75*
G02*
X270668750Y-125412500I0J-793750D01*
G01*
X271462500Y-126206250D02*
G75*
G02*
X270668750Y-125412500I0J793750D01*
G01*
X23812500Y-30543750D02*
X23812500Y-20637500D01*
X175418800Y-31750000D02*
X175593750Y-31750000D01*
X70643750Y-125412500D02*
G75*
G02*
X71437500Y-124618750I793750J0D01*
G01*
X89693750Y-123825000D02*
G75*
G02*
X88900000Y-124618750I-793750J0D01*
G01*
X31575000Y-30543750D02*
X31575000Y-28575000D01*
X181593750Y-29750000D02*
X181768750Y-29750000D01*
X25400000Y-107156250D02*
X33337500Y-107156250D01*
X211931250Y-125412500D02*
G75*
G02*
X211137500Y-126206250I-793750J0D01*
G01*
X90487500Y-123031250D02*
X109537500Y-123031250D01*
X174625000Y-32543750D02*
X174625000Y-125412500D01*
X166687500Y-125412500D02*
X166687500Y-32543800D01*
X271462500Y-126206250D02*
X300037500Y-126206250D01*
X41099997Y-126206253D02*
X69850000Y-126206253D01*
X34925000Y-126206250D02*
G75*
G02*
X34131250Y-125412500I0J793750D01*
G01*
X72231250Y-31750000D02*
G75*
G02*
X71437500Y-32543750I-793750J0D01*
G01*
X213518750Y-31750000D02*
G75*
G02*
X214312500Y-30956250I793750J0D01*
G01*
X343075000Y-28575000D02*
X343075000Y-30543750D01*
X317500000Y-88106250D02*
X334962500Y-88106250D01*
X72231250Y-31750000D02*
G75*
G02*
X73025000Y-30956250I793750J0D01*
G01*
X175418750Y-126206250D02*
X175593750Y-126206250D01*
X91281250Y-30162500D02*
G75*
G02*
X92075000Y-29368750I793750J0D01*
G01*
X300212500Y-128206250D02*
X181593750Y-128206250D01*
X100012500Y-28575000D02*
X31750000Y-28575000D01*
X35100000Y-128206250D02*
X23812500Y-128206250D01*
X349250000Y-20637500D02*
X23812500Y-20637500D01*
X159718750Y-128206250D02*
X41100000Y-128206250D01*
X231775000Y-30956250D02*
X214312500Y-30956250D01*
X181593750Y-31750000D02*
X213518750Y-31750000D01*
X336550000Y-69056250D02*
X349250000Y-69056250D01*
X181593747Y-126206253D02*
X211137500Y-126206253D01*
X23812500Y-128206250D02*
X23812500Y-136525000D01*
X175593750Y-29750000D02*
G75*
G02*
X175593750Y-31750000I0J-1000000D01*
G01*
X181593750Y-31750000D02*
G75*
G02*
X181593750Y-29750000I0J1000000D01*
G01*
X159718750Y-29750000D02*
G75*
G02*
X159718750Y-31750000I0J-1000000D01*
G01*
X165718750Y-31750000D02*
G75*
G02*
X165718750Y-29750000I0J1000000D01*
G01*
X159718750Y-126206250D02*
G75*
G02*
X159718750Y-128206250I0J-1000000D01*
G01*
X165718750Y-128206250D02*
G75*
G02*
X165718750Y-126206250I0J1000000D01*
G01*
X343075000Y-30543750D02*
G75*
G02*
X343075000Y-32543750I0J-1000000D01*
G01*
X349075000Y-32543750D02*
G75*
G02*
X349075000Y-30543750I0J1000000D01*
G01*
X25575000Y-30543750D02*
G75*
G02*
X25575000Y-32543750I0J-1000000D01*
G01*
X31575000Y-32543750D02*
G75*
G02*
X31575000Y-30543750I0J1000000D01*
G01*
X300212500Y-126206250D02*
G75*
G02*
X300212500Y-128206250I0J-1000000D01*
G01*
X306212500Y-128206250D02*
G75*
G02*
X306212500Y-126206250I0J1000000D01*
G01*
X175593750Y-126206250D02*
G75*
G02*
X175593750Y-128206250I0J-1000000D01*
G01*
X181593750Y-128206250D02*
G75*
G02*
X181593750Y-126206250I0J1000000D01*
G01*
X35100000Y-126206250D02*
G75*
G02*
X35100000Y-128206250I0J-1000000D01*
G01*
X41100000Y-128206250D02*
G75*
G02*
X41100000Y-126206250I0J1000000D01*
G01*
M02*
