M48
; DRILL file {KiCad 8.0.2} date 2024-05-24T11:31:51+0300
; FORMAT={-:-/ absolute / inch / decimal}
; #@! TF.CreationDate,2024-05-24T11:31:51+03:00
; #@! TF.GenerationSoftware,Kicad,Pcbnew,8.0.2
; #@! TF.FileFunction,Plated,1,2,PTH
FMAT,2
INCH
; #@! TA.AperFunction,Plated,PTH,ComponentDrill
T1C0.0394
; #@! TA.AperFunction,Plated,PTH,ComponentDrill
T2C0.0600
%
G90
G05
T1
X5.9Y-1.4062
X5.9Y-1.5062
X5.9Y-1.6062
X5.9Y-1.7063
X5.9Y-1.8062
X5.9Y-1.9062
X5.9Y-2.0063
X5.9Y-2.1062
X5.9Y-2.2062
X5.9Y-2.3062
X5.9Y-2.4062
X5.9Y-2.5063
X6.5Y-1.4062
X6.5Y-1.5062
X6.5Y-1.6062
X6.5Y-1.7063
X6.5Y-1.8062
X6.5Y-1.9062
X6.5Y-2.0063
X6.5Y-2.1062
X6.5Y-2.2062
X6.5Y-2.3062
X6.5Y-2.4062
X6.5Y-2.5063
X6.9375Y-1.4062
X6.9375Y-1.5062
X6.9375Y-1.6062
X6.9375Y-1.7063
X6.9375Y-1.8062
X6.9375Y-1.9062
X6.9375Y-2.0063
X6.9375Y-2.1062
X6.9375Y-2.2062
X6.9375Y-2.3062
X6.9375Y-2.4062
X6.9375Y-2.5063
X7.5375Y-1.4062
X7.5375Y-1.5062
X7.5375Y-1.6062
X7.5375Y-1.7063
X7.5375Y-1.8062
X7.5375Y-1.9062
X7.5375Y-2.0063
X7.5375Y-2.1062
X7.5375Y-2.2062
X7.5375Y-2.3062
X7.5375Y-2.4062
X7.5375Y-2.5063
T2
X1.35Y-1.525
X1.35Y-2.275
X1.35Y-3.025
X1.35Y-3.775
X1.5375Y-4.525
X1.6Y-1.425
X1.6Y-2.175
X1.6Y-2.925
X1.6Y-3.675
X1.7875Y-4.425
X2.2875Y-1.525
X2.2875Y-2.275
X2.2875Y-3.025
X2.2875Y-3.775
X2.2875Y-4.525
X2.5375Y-1.425
X2.5375Y-2.175
X2.5375Y-2.925
X2.5375Y-3.675
X2.5375Y-4.425
X3.0375Y-1.4625
X3.0375Y-2.2125
X3.0375Y-2.9625
X3.0375Y-3.7125
X3.0375Y-4.4625
X3.2875Y-1.3625
X3.2875Y-2.1125
X3.2875Y-2.8625
X3.2875Y-3.6125
X3.2875Y-4.3625
X3.7875Y-1.4
X3.7875Y-2.15
X3.7875Y-2.9
X3.7875Y-3.65
X3.7875Y-4.4
X4.0375Y-1.3
X4.0375Y-2.05
X4.0375Y-2.8
X4.0375Y-3.55
X4.0375Y-4.3
X4.5375Y-1.4625
X4.5375Y-2.2125
X4.5375Y-2.9625
X4.5375Y-3.7125
X4.5375Y-4.4625
X4.7875Y-1.3625
X4.7875Y-2.1125
X4.7875Y-2.8625
X4.7875Y-3.6125
X4.7875Y-4.3625
X5.2875Y-1.525
X5.2875Y-2.275
X5.2875Y-3.025
X5.2875Y-3.775
X5.475Y-4.525
X5.5375Y-1.425
X5.5375Y-2.175
X5.5375Y-2.925
X5.5375Y-3.675
X5.725Y-4.425
X7.6625Y-4.525
X7.85Y-1.525
X7.85Y-2.275
X7.85Y-3.025
X7.85Y-3.775
X7.9125Y-4.425
X8.1Y-1.425
X8.1Y-2.175
X8.1Y-2.925
X8.1Y-3.675
X8.6Y-1.4625
X8.6Y-2.2125
X8.6Y-2.9625
X8.6Y-3.7125
X8.6Y-4.4625
X8.85Y-1.3625
X8.85Y-2.1125
X8.85Y-2.8625
X8.85Y-3.6125
X8.85Y-4.3625
X9.35Y-1.4
X9.35Y-2.15
X9.35Y-2.9
X9.35Y-3.65
X9.35Y-4.4
X9.6Y-1.3
X9.6Y-2.05
X9.6Y-2.8
X9.6Y-3.55
X9.6Y-4.3
X10.1Y-1.4625
X10.1Y-2.2125
X10.1Y-2.9625
X10.1Y-3.7125
X10.1Y-4.4625
X10.35Y-1.3625
X10.35Y-2.1125
X10.35Y-2.8625
X10.35Y-3.6125
X10.35Y-4.3625
X10.85Y-1.525
X10.85Y-2.275
X10.85Y-3.025
X10.85Y-3.775
X10.85Y-4.525
X11.1Y-1.425
X11.1Y-2.175
X11.1Y-2.925
X11.1Y-3.675
X11.1Y-4.425
X11.6Y-1.525
X11.6Y-2.275
X11.6Y-3.025
X11.6Y-4.525
X11.7875Y-3.775
X11.85Y-1.425
X11.85Y-2.175
X11.85Y-2.925
X11.85Y-4.425
X12.0375Y-3.675
X12.35Y-1.525
X12.35Y-2.275
X12.5375Y-3.025
X12.6Y-1.425
X12.6Y-2.175
X12.7875Y-2.925
X13.1937Y-1.525
X13.1937Y-2.275
X13.4437Y-1.425
X13.4437Y-2.175
T1
G00X6.0022Y-2.7884
M15
G01X5.9825Y-2.7884
M16
G05
G00X6.0613Y-2.9577
M15
G01X6.0416Y-2.9577
M16
G05
G00X6.2188Y-2.9577
M15
G01X6.1991Y-2.9577
M16
G05
G00X6.3369Y-2.9577
M15
G01X6.3172Y-2.9577
M16
G05
G00X7.1006Y-2.7835
M15
G01X7.1203Y-2.7835
M16
G05
G00X7.2188Y-2.7835
M15
G01X7.2384Y-2.7835
M16
G05
G00X7.3762Y-2.7835
M15
G01X7.3959Y-2.7835
M16
G05
G00X7.4353Y-2.9528
M15
G01X7.455Y-2.9528
M16
G05
M30
