M48
; DRILL file {KiCad 8.0.2} date 2024-05-24T11:31:51+0300
; FORMAT={-:-/ absolute / inch / decimal}
; #@! TF.CreationDate,2024-05-24T11:31:51+03:00
; #@! TF.GenerationSoftware,Kicad,Pcbnew,8.0.2
; #@! TF.FileFunction,NonPlated,1,2,NPTH
FMAT,2
INCH
; #@! TA.AperFunction,NonPlated,NPTH,ComponentDrill
T1C0.0197
; #@! TA.AperFunction,NonPlated,NPTH,ComponentDrill
T2C0.0472
; #@! TA.AperFunction,NonPlated,NPTH,ComponentDrill
T3C0.0689
; #@! TA.AperFunction,NonPlated,NPTH,ComponentDrill
T4C0.1570
%
G90
G05
T1
X1.0522Y-1.2832
X1.0813Y-1.2832
X1.1104Y-1.2832
X1.1396Y-1.2832
X1.1687Y-1.2832
X1.1978Y-1.2832
X1.4272Y-4.9668
X1.4563Y-4.9668
X1.4854Y-4.9668
X1.5146Y-4.9668
X1.5437Y-4.9668
X1.5728Y-4.9668
X6.3334Y-1.252
X6.3334Y-4.9668
X6.3625Y-1.252
X6.3625Y-4.9668
X6.3917Y-1.252
X6.3917Y-4.9668
X6.4208Y-1.252
X6.4208Y-4.9668
X6.45Y-1.252
X6.45Y-4.9668
X6.4791Y-1.252
X6.4791Y-4.9668
X6.9584Y-1.252
X6.9584Y-4.9668
X6.9875Y-1.252
X6.9875Y-4.9668
X7.0167Y-1.252
X7.0167Y-4.9668
X7.0458Y-1.252
X7.0458Y-4.9668
X7.075Y-1.252
X7.075Y-4.9668
X7.1041Y-1.252
X7.1041Y-4.9668
X11.8647Y-4.9668
X11.8938Y-4.9668
X11.9229Y-4.9668
X11.9521Y-4.9668
X11.9812Y-4.9668
X12.0103Y-4.9668
X13.5522Y-1.2832
X13.5813Y-1.2832
X13.6104Y-1.2832
X13.6396Y-1.2832
X13.6687Y-1.2832
X13.6978Y-1.2832
T2
X6.1223Y-2.873
X6.3979Y-2.873
X7.0396Y-2.8681
X7.3152Y-2.8681
T3
X1.3Y-1.625
X1.3Y-2.375
X1.3Y-3.125
X1.3Y-3.875
X1.4875Y-4.625
X1.7Y-1.625
X1.7Y-2.375
X1.7Y-3.125
X1.7Y-3.875
X1.8875Y-4.625
X2.2375Y-1.625
X2.2375Y-2.375
X2.2375Y-3.125
X2.2375Y-3.875
X2.2375Y-4.625
X2.6375Y-1.625
X2.6375Y-2.375
X2.6375Y-3.125
X2.6375Y-3.875
X2.6375Y-4.625
X2.9875Y-1.5625
X2.9875Y-2.3125
X2.9875Y-3.0625
X2.9875Y-3.8125
X2.9875Y-4.5625
X3.3875Y-1.5625
X3.3875Y-2.3125
X3.3875Y-3.0625
X3.3875Y-3.8125
X3.3875Y-4.5625
X3.7375Y-1.5
X3.7375Y-2.25
X3.7375Y-3.0
X3.7375Y-3.75
X3.7375Y-4.5
X4.1375Y-1.5
X4.1375Y-2.25
X4.1375Y-3.0
X4.1375Y-3.75
X4.1375Y-4.5
X4.4875Y-1.5625
X4.4875Y-2.3125
X4.4875Y-3.0625
X4.4875Y-3.8125
X4.4875Y-4.5625
X4.8875Y-1.5625
X4.8875Y-2.3125
X4.8875Y-3.0625
X4.8875Y-3.8125
X4.8875Y-4.5625
X5.2375Y-1.625
X5.2375Y-2.375
X5.2375Y-3.125
X5.2375Y-3.875
X5.425Y-4.625
X5.6375Y-1.625
X5.6375Y-2.375
X5.6375Y-3.125
X5.6375Y-3.875
X5.825Y-4.625
X7.6125Y-4.625
X7.8Y-1.625
X7.8Y-2.375
X7.8Y-3.125
X7.8Y-3.875
X8.0125Y-4.625
X8.2Y-1.625
X8.2Y-2.375
X8.2Y-3.125
X8.2Y-3.875
X8.55Y-1.5625
X8.55Y-2.3125
X8.55Y-3.0625
X8.55Y-3.8125
X8.55Y-4.5625
X8.95Y-1.5625
X8.95Y-2.3125
X8.95Y-3.0625
X8.95Y-3.8125
X8.95Y-4.5625
X9.3Y-1.5
X9.3Y-2.25
X9.3Y-3.0
X9.3Y-3.75
X9.3Y-4.5
X9.7Y-1.5
X9.7Y-2.25
X9.7Y-3.0
X9.7Y-3.75
X9.7Y-4.5
X10.05Y-1.5625
X10.05Y-2.3125
X10.05Y-3.0625
X10.05Y-3.8125
X10.05Y-4.5625
X10.45Y-1.5625
X10.45Y-2.3125
X10.45Y-3.0625
X10.45Y-3.8125
X10.45Y-4.5625
X10.8Y-1.625
X10.8Y-2.375
X10.8Y-3.125
X10.8Y-3.875
X10.8Y-4.625
X11.2Y-1.625
X11.2Y-2.375
X11.2Y-3.125
X11.2Y-3.875
X11.2Y-4.625
X11.55Y-1.625
X11.55Y-2.375
X11.55Y-3.125
X11.55Y-4.625
X11.7375Y-3.875
X11.95Y-1.625
X11.95Y-2.375
X11.95Y-3.125
X11.95Y-4.625
X12.1375Y-3.875
X12.3Y-1.625
X12.3Y-2.375
X12.4875Y-3.125
X12.7Y-1.625
X12.7Y-2.375
X12.8875Y-3.125
X13.1437Y-1.625
X13.1437Y-2.375
X13.5437Y-1.625
X13.5437Y-2.375
T4
X1.5Y-1.625
X1.5Y-2.375
X1.5Y-3.125
X1.5Y-3.875
X1.6875Y-4.625
X2.4375Y-1.625
X2.4375Y-2.375
X2.4375Y-3.125
X2.4375Y-3.875
X2.4375Y-4.625
X3.1875Y-1.5625
X3.1875Y-2.3125
X3.1875Y-3.0625
X3.1875Y-3.8125
X3.1875Y-4.5625
X3.9375Y-1.5
X3.9375Y-2.25
X3.9375Y-3.0
X3.9375Y-3.75
X3.9375Y-4.5
X4.6875Y-1.5625
X4.6875Y-2.3125
X4.6875Y-3.0625
X4.6875Y-3.8125
X4.6875Y-4.5625
X5.4375Y-1.625
X5.4375Y-2.375
X5.4375Y-3.125
X5.4375Y-3.875
X5.625Y-4.625
X7.8125Y-4.625
X8.0Y-1.625
X8.0Y-2.375
X8.0Y-3.125
X8.0Y-3.875
X8.75Y-1.5625
X8.75Y-2.3125
X8.75Y-3.0625
X8.75Y-3.8125
X8.75Y-4.5625
X9.5Y-1.5
X9.5Y-2.25
X9.5Y-3.0
X9.5Y-3.75
X9.5Y-4.5
X10.25Y-1.5625
X10.25Y-2.3125
X10.25Y-3.0625
X10.25Y-3.8125
X10.25Y-4.5625
X11.0Y-1.625
X11.0Y-2.375
X11.0Y-3.125
X11.0Y-3.875
X11.0Y-4.625
X11.75Y-1.625
X11.75Y-2.375
X11.75Y-3.125
X11.75Y-4.625
X11.9375Y-3.875
X12.5Y-1.625
X12.5Y-2.375
X12.6875Y-3.125
X13.3438Y-1.625
X13.3438Y-2.375
M30
