G04 #@! TF.GenerationSoftware,KiCad,Pcbnew,8.0.2*
G04 #@! TF.CreationDate,2024-05-24T11:31:22+03:00*
G04 #@! TF.ProjectId,ratless65,7261746c-6573-4733-9635-2e6b69636164,rev?*
G04 #@! TF.SameCoordinates,Original*
G04 #@! TF.FileFunction,Legend,Bot*
G04 #@! TF.FilePolarity,Positive*
%FSLAX46Y46*%
G04 Gerber Fmt 4.6, Leading zero omitted, Abs format (unit mm)*
G04 Created by KiCad (PCBNEW 8.0.2) date 2024-05-24 11:31:22*
%MOMM*%
%LPD*%
G01*
G04 APERTURE LIST*
G04 Aperture macros list*
%AMRoundRect*
0 Rectangle with rounded corners*
0 $1 Rounding radius*
0 $2 $3 $4 $5 $6 $7 $8 $9 X,Y pos of 4 corners*
0 Add a 4 corners polygon primitive as box body*
4,1,4,$2,$3,$4,$5,$6,$7,$8,$9,$2,$3,0*
0 Add four circle primitives for the rounded corners*
1,1,$1+$1,$2,$3*
1,1,$1+$1,$4,$5*
1,1,$1+$1,$6,$7*
1,1,$1+$1,$8,$9*
0 Add four rect primitives between the rounded corners*
20,1,$1+$1,$2,$3,$4,$5,0*
20,1,$1+$1,$4,$5,$6,$7,0*
20,1,$1+$1,$6,$7,$8,$9,0*
20,1,$1+$1,$8,$9,$2,$3,0*%
G04 Aperture macros list end*
%ADD10C,0.150000*%
%ADD11C,0.120000*%
%ADD12C,0.100000*%
%ADD13C,1.750000*%
%ADD14C,3.987800*%
%ADD15C,2.300000*%
%ADD16C,1.200000*%
%ADD17O,2.300000X1.500000*%
%ADD18C,1.800000*%
%ADD19RoundRect,0.450000X-0.450000X-0.450000X0.450000X-0.450000X0.450000X0.450000X-0.450000X0.450000X0*%
%ADD20C,0.500000*%
%ADD21RoundRect,0.225000X0.375000X-0.225000X0.375000X0.225000X-0.375000X0.225000X-0.375000X-0.225000X0*%
G04 APERTURE END LIST*
D10*
X323256819Y-63141964D02*
X322256819Y-63141964D01*
X322256819Y-63141964D02*
X322256819Y-63380059D01*
X322256819Y-63380059D02*
X322304438Y-63522916D01*
X322304438Y-63522916D02*
X322399676Y-63618154D01*
X322399676Y-63618154D02*
X322494914Y-63665773D01*
X322494914Y-63665773D02*
X322685390Y-63713392D01*
X322685390Y-63713392D02*
X322828247Y-63713392D01*
X322828247Y-63713392D02*
X323018723Y-63665773D01*
X323018723Y-63665773D02*
X323113961Y-63618154D01*
X323113961Y-63618154D02*
X323209200Y-63522916D01*
X323209200Y-63522916D02*
X323256819Y-63380059D01*
X323256819Y-63380059D02*
X323256819Y-63141964D01*
X322352057Y-64094345D02*
X322304438Y-64141964D01*
X322304438Y-64141964D02*
X322256819Y-64237202D01*
X322256819Y-64237202D02*
X322256819Y-64475297D01*
X322256819Y-64475297D02*
X322304438Y-64570535D01*
X322304438Y-64570535D02*
X322352057Y-64618154D01*
X322352057Y-64618154D02*
X322447295Y-64665773D01*
X322447295Y-64665773D02*
X322542533Y-64665773D01*
X322542533Y-64665773D02*
X322685390Y-64618154D01*
X322685390Y-64618154D02*
X323256819Y-64046726D01*
X323256819Y-64046726D02*
X323256819Y-64665773D01*
X322256819Y-64999107D02*
X322256819Y-65665773D01*
X322256819Y-65665773D02*
X323256819Y-65237202D01*
X43856819Y-101116964D02*
X42856819Y-101116964D01*
X42856819Y-101116964D02*
X42856819Y-101355059D01*
X42856819Y-101355059D02*
X42904438Y-101497916D01*
X42904438Y-101497916D02*
X42999676Y-101593154D01*
X42999676Y-101593154D02*
X43094914Y-101640773D01*
X43094914Y-101640773D02*
X43285390Y-101688392D01*
X43285390Y-101688392D02*
X43428247Y-101688392D01*
X43428247Y-101688392D02*
X43618723Y-101640773D01*
X43618723Y-101640773D02*
X43713961Y-101593154D01*
X43713961Y-101593154D02*
X43809200Y-101497916D01*
X43809200Y-101497916D02*
X43856819Y-101355059D01*
X43856819Y-101355059D02*
X43856819Y-101116964D01*
X43190152Y-102545535D02*
X43856819Y-102545535D01*
X42809200Y-102307440D02*
X43523485Y-102069345D01*
X43523485Y-102069345D02*
X43523485Y-102688392D01*
X42952057Y-103021726D02*
X42904438Y-103069345D01*
X42904438Y-103069345D02*
X42856819Y-103164583D01*
X42856819Y-103164583D02*
X42856819Y-103402678D01*
X42856819Y-103402678D02*
X42904438Y-103497916D01*
X42904438Y-103497916D02*
X42952057Y-103545535D01*
X42952057Y-103545535D02*
X43047295Y-103593154D01*
X43047295Y-103593154D02*
X43142533Y-103593154D01*
X43142533Y-103593154D02*
X43285390Y-103545535D01*
X43285390Y-103545535D02*
X43856819Y-102974107D01*
X43856819Y-102974107D02*
X43856819Y-103593154D01*
X308969319Y-101241964D02*
X307969319Y-101241964D01*
X307969319Y-101241964D02*
X307969319Y-101480059D01*
X307969319Y-101480059D02*
X308016938Y-101622916D01*
X308016938Y-101622916D02*
X308112176Y-101718154D01*
X308112176Y-101718154D02*
X308207414Y-101765773D01*
X308207414Y-101765773D02*
X308397890Y-101813392D01*
X308397890Y-101813392D02*
X308540747Y-101813392D01*
X308540747Y-101813392D02*
X308731223Y-101765773D01*
X308731223Y-101765773D02*
X308826461Y-101718154D01*
X308826461Y-101718154D02*
X308921700Y-101622916D01*
X308921700Y-101622916D02*
X308969319Y-101480059D01*
X308969319Y-101480059D02*
X308969319Y-101241964D01*
X307969319Y-102718154D02*
X307969319Y-102241964D01*
X307969319Y-102241964D02*
X308445509Y-102194345D01*
X308445509Y-102194345D02*
X308397890Y-102241964D01*
X308397890Y-102241964D02*
X308350271Y-102337202D01*
X308350271Y-102337202D02*
X308350271Y-102575297D01*
X308350271Y-102575297D02*
X308397890Y-102670535D01*
X308397890Y-102670535D02*
X308445509Y-102718154D01*
X308445509Y-102718154D02*
X308540747Y-102765773D01*
X308540747Y-102765773D02*
X308778842Y-102765773D01*
X308778842Y-102765773D02*
X308874080Y-102718154D01*
X308874080Y-102718154D02*
X308921700Y-102670535D01*
X308921700Y-102670535D02*
X308969319Y-102575297D01*
X308969319Y-102575297D02*
X308969319Y-102337202D01*
X308969319Y-102337202D02*
X308921700Y-102241964D01*
X308921700Y-102241964D02*
X308874080Y-102194345D01*
X307969319Y-103099107D02*
X307969319Y-103718154D01*
X307969319Y-103718154D02*
X308350271Y-103384821D01*
X308350271Y-103384821D02*
X308350271Y-103527678D01*
X308350271Y-103527678D02*
X308397890Y-103622916D01*
X308397890Y-103622916D02*
X308445509Y-103670535D01*
X308445509Y-103670535D02*
X308540747Y-103718154D01*
X308540747Y-103718154D02*
X308778842Y-103718154D01*
X308778842Y-103718154D02*
X308874080Y-103670535D01*
X308874080Y-103670535D02*
X308921700Y-103622916D01*
X308921700Y-103622916D02*
X308969319Y-103527678D01*
X308969319Y-103527678D02*
X308969319Y-103241964D01*
X308969319Y-103241964D02*
X308921700Y-103146726D01*
X308921700Y-103146726D02*
X308874080Y-103099107D01*
X228006819Y-42855655D02*
X227006819Y-42855655D01*
X227006819Y-42855655D02*
X227006819Y-43093750D01*
X227006819Y-43093750D02*
X227054438Y-43236607D01*
X227054438Y-43236607D02*
X227149676Y-43331845D01*
X227149676Y-43331845D02*
X227244914Y-43379464D01*
X227244914Y-43379464D02*
X227435390Y-43427083D01*
X227435390Y-43427083D02*
X227578247Y-43427083D01*
X227578247Y-43427083D02*
X227768723Y-43379464D01*
X227768723Y-43379464D02*
X227863961Y-43331845D01*
X227863961Y-43331845D02*
X227959200Y-43236607D01*
X227959200Y-43236607D02*
X228006819Y-43093750D01*
X228006819Y-43093750D02*
X228006819Y-42855655D01*
X227435390Y-43998512D02*
X227387771Y-43903274D01*
X227387771Y-43903274D02*
X227340152Y-43855655D01*
X227340152Y-43855655D02*
X227244914Y-43808036D01*
X227244914Y-43808036D02*
X227197295Y-43808036D01*
X227197295Y-43808036D02*
X227102057Y-43855655D01*
X227102057Y-43855655D02*
X227054438Y-43903274D01*
X227054438Y-43903274D02*
X227006819Y-43998512D01*
X227006819Y-43998512D02*
X227006819Y-44188988D01*
X227006819Y-44188988D02*
X227054438Y-44284226D01*
X227054438Y-44284226D02*
X227102057Y-44331845D01*
X227102057Y-44331845D02*
X227197295Y-44379464D01*
X227197295Y-44379464D02*
X227244914Y-44379464D01*
X227244914Y-44379464D02*
X227340152Y-44331845D01*
X227340152Y-44331845D02*
X227387771Y-44284226D01*
X227387771Y-44284226D02*
X227435390Y-44188988D01*
X227435390Y-44188988D02*
X227435390Y-43998512D01*
X227435390Y-43998512D02*
X227483009Y-43903274D01*
X227483009Y-43903274D02*
X227530628Y-43855655D01*
X227530628Y-43855655D02*
X227625866Y-43808036D01*
X227625866Y-43808036D02*
X227816342Y-43808036D01*
X227816342Y-43808036D02*
X227911580Y-43855655D01*
X227911580Y-43855655D02*
X227959200Y-43903274D01*
X227959200Y-43903274D02*
X228006819Y-43998512D01*
X228006819Y-43998512D02*
X228006819Y-44188988D01*
X228006819Y-44188988D02*
X227959200Y-44284226D01*
X227959200Y-44284226D02*
X227911580Y-44331845D01*
X227911580Y-44331845D02*
X227816342Y-44379464D01*
X227816342Y-44379464D02*
X227625866Y-44379464D01*
X227625866Y-44379464D02*
X227530628Y-44331845D01*
X227530628Y-44331845D02*
X227483009Y-44284226D01*
X227483009Y-44284226D02*
X227435390Y-44188988D01*
X67669319Y-120229464D02*
X66669319Y-120229464D01*
X66669319Y-120229464D02*
X66669319Y-120467559D01*
X66669319Y-120467559D02*
X66716938Y-120610416D01*
X66716938Y-120610416D02*
X66812176Y-120705654D01*
X66812176Y-120705654D02*
X66907414Y-120753273D01*
X66907414Y-120753273D02*
X67097890Y-120800892D01*
X67097890Y-120800892D02*
X67240747Y-120800892D01*
X67240747Y-120800892D02*
X67431223Y-120753273D01*
X67431223Y-120753273D02*
X67526461Y-120705654D01*
X67526461Y-120705654D02*
X67621700Y-120610416D01*
X67621700Y-120610416D02*
X67669319Y-120467559D01*
X67669319Y-120467559D02*
X67669319Y-120229464D01*
X66669319Y-121705654D02*
X66669319Y-121229464D01*
X66669319Y-121229464D02*
X67145509Y-121181845D01*
X67145509Y-121181845D02*
X67097890Y-121229464D01*
X67097890Y-121229464D02*
X67050271Y-121324702D01*
X67050271Y-121324702D02*
X67050271Y-121562797D01*
X67050271Y-121562797D02*
X67097890Y-121658035D01*
X67097890Y-121658035D02*
X67145509Y-121705654D01*
X67145509Y-121705654D02*
X67240747Y-121753273D01*
X67240747Y-121753273D02*
X67478842Y-121753273D01*
X67478842Y-121753273D02*
X67574080Y-121705654D01*
X67574080Y-121705654D02*
X67621700Y-121658035D01*
X67621700Y-121658035D02*
X67669319Y-121562797D01*
X67669319Y-121562797D02*
X67669319Y-121324702D01*
X67669319Y-121324702D02*
X67621700Y-121229464D01*
X67621700Y-121229464D02*
X67574080Y-121181845D01*
X66669319Y-122658035D02*
X66669319Y-122181845D01*
X66669319Y-122181845D02*
X67145509Y-122134226D01*
X67145509Y-122134226D02*
X67097890Y-122181845D01*
X67097890Y-122181845D02*
X67050271Y-122277083D01*
X67050271Y-122277083D02*
X67050271Y-122515178D01*
X67050271Y-122515178D02*
X67097890Y-122610416D01*
X67097890Y-122610416D02*
X67145509Y-122658035D01*
X67145509Y-122658035D02*
X67240747Y-122705654D01*
X67240747Y-122705654D02*
X67478842Y-122705654D01*
X67478842Y-122705654D02*
X67574080Y-122658035D01*
X67574080Y-122658035D02*
X67621700Y-122610416D01*
X67621700Y-122610416D02*
X67669319Y-122515178D01*
X67669319Y-122515178D02*
X67669319Y-122277083D01*
X67669319Y-122277083D02*
X67621700Y-122181845D01*
X67621700Y-122181845D02*
X67574080Y-122134226D01*
X86727319Y-42855655D02*
X85727319Y-42855655D01*
X85727319Y-42855655D02*
X85727319Y-43093750D01*
X85727319Y-43093750D02*
X85774938Y-43236607D01*
X85774938Y-43236607D02*
X85870176Y-43331845D01*
X85870176Y-43331845D02*
X85965414Y-43379464D01*
X85965414Y-43379464D02*
X86155890Y-43427083D01*
X86155890Y-43427083D02*
X86298747Y-43427083D01*
X86298747Y-43427083D02*
X86489223Y-43379464D01*
X86489223Y-43379464D02*
X86584461Y-43331845D01*
X86584461Y-43331845D02*
X86679700Y-43236607D01*
X86679700Y-43236607D02*
X86727319Y-43093750D01*
X86727319Y-43093750D02*
X86727319Y-42855655D01*
X85727319Y-43760417D02*
X85727319Y-44379464D01*
X85727319Y-44379464D02*
X86108271Y-44046131D01*
X86108271Y-44046131D02*
X86108271Y-44188988D01*
X86108271Y-44188988D02*
X86155890Y-44284226D01*
X86155890Y-44284226D02*
X86203509Y-44331845D01*
X86203509Y-44331845D02*
X86298747Y-44379464D01*
X86298747Y-44379464D02*
X86536842Y-44379464D01*
X86536842Y-44379464D02*
X86632080Y-44331845D01*
X86632080Y-44331845D02*
X86679700Y-44284226D01*
X86679700Y-44284226D02*
X86727319Y-44188988D01*
X86727319Y-44188988D02*
X86727319Y-43903274D01*
X86727319Y-43903274D02*
X86679700Y-43808036D01*
X86679700Y-43808036D02*
X86632080Y-43760417D01*
X105769319Y-59966964D02*
X104769319Y-59966964D01*
X104769319Y-59966964D02*
X104769319Y-60205059D01*
X104769319Y-60205059D02*
X104816938Y-60347916D01*
X104816938Y-60347916D02*
X104912176Y-60443154D01*
X104912176Y-60443154D02*
X105007414Y-60490773D01*
X105007414Y-60490773D02*
X105197890Y-60538392D01*
X105197890Y-60538392D02*
X105340747Y-60538392D01*
X105340747Y-60538392D02*
X105531223Y-60490773D01*
X105531223Y-60490773D02*
X105626461Y-60443154D01*
X105626461Y-60443154D02*
X105721700Y-60347916D01*
X105721700Y-60347916D02*
X105769319Y-60205059D01*
X105769319Y-60205059D02*
X105769319Y-59966964D01*
X105769319Y-61490773D02*
X105769319Y-60919345D01*
X105769319Y-61205059D02*
X104769319Y-61205059D01*
X104769319Y-61205059D02*
X104912176Y-61109821D01*
X104912176Y-61109821D02*
X105007414Y-61014583D01*
X105007414Y-61014583D02*
X105055033Y-60919345D01*
X105197890Y-62062202D02*
X105150271Y-61966964D01*
X105150271Y-61966964D02*
X105102652Y-61919345D01*
X105102652Y-61919345D02*
X105007414Y-61871726D01*
X105007414Y-61871726D02*
X104959795Y-61871726D01*
X104959795Y-61871726D02*
X104864557Y-61919345D01*
X104864557Y-61919345D02*
X104816938Y-61966964D01*
X104816938Y-61966964D02*
X104769319Y-62062202D01*
X104769319Y-62062202D02*
X104769319Y-62252678D01*
X104769319Y-62252678D02*
X104816938Y-62347916D01*
X104816938Y-62347916D02*
X104864557Y-62395535D01*
X104864557Y-62395535D02*
X104959795Y-62443154D01*
X104959795Y-62443154D02*
X105007414Y-62443154D01*
X105007414Y-62443154D02*
X105102652Y-62395535D01*
X105102652Y-62395535D02*
X105150271Y-62347916D01*
X105150271Y-62347916D02*
X105197890Y-62252678D01*
X105197890Y-62252678D02*
X105197890Y-62062202D01*
X105197890Y-62062202D02*
X105245509Y-61966964D01*
X105245509Y-61966964D02*
X105293128Y-61919345D01*
X105293128Y-61919345D02*
X105388366Y-61871726D01*
X105388366Y-61871726D02*
X105578842Y-61871726D01*
X105578842Y-61871726D02*
X105674080Y-61919345D01*
X105674080Y-61919345D02*
X105721700Y-61966964D01*
X105721700Y-61966964D02*
X105769319Y-62062202D01*
X105769319Y-62062202D02*
X105769319Y-62252678D01*
X105769319Y-62252678D02*
X105721700Y-62347916D01*
X105721700Y-62347916D02*
X105674080Y-62395535D01*
X105674080Y-62395535D02*
X105578842Y-62443154D01*
X105578842Y-62443154D02*
X105388366Y-62443154D01*
X105388366Y-62443154D02*
X105293128Y-62395535D01*
X105293128Y-62395535D02*
X105245509Y-62347916D01*
X105245509Y-62347916D02*
X105197890Y-62252678D01*
X105769319Y-41268155D02*
X104769319Y-41268155D01*
X104769319Y-41268155D02*
X104769319Y-41506250D01*
X104769319Y-41506250D02*
X104816938Y-41649107D01*
X104816938Y-41649107D02*
X104912176Y-41744345D01*
X104912176Y-41744345D02*
X105007414Y-41791964D01*
X105007414Y-41791964D02*
X105197890Y-41839583D01*
X105197890Y-41839583D02*
X105340747Y-41839583D01*
X105340747Y-41839583D02*
X105531223Y-41791964D01*
X105531223Y-41791964D02*
X105626461Y-41744345D01*
X105626461Y-41744345D02*
X105721700Y-41649107D01*
X105721700Y-41649107D02*
X105769319Y-41506250D01*
X105769319Y-41506250D02*
X105769319Y-41268155D01*
X105102652Y-42696726D02*
X105769319Y-42696726D01*
X104721700Y-42458631D02*
X105435985Y-42220536D01*
X105435985Y-42220536D02*
X105435985Y-42839583D01*
X86719319Y-118579464D02*
X85719319Y-118579464D01*
X85719319Y-118579464D02*
X85719319Y-118817559D01*
X85719319Y-118817559D02*
X85766938Y-118960416D01*
X85766938Y-118960416D02*
X85862176Y-119055654D01*
X85862176Y-119055654D02*
X85957414Y-119103273D01*
X85957414Y-119103273D02*
X86147890Y-119150892D01*
X86147890Y-119150892D02*
X86290747Y-119150892D01*
X86290747Y-119150892D02*
X86481223Y-119103273D01*
X86481223Y-119103273D02*
X86576461Y-119055654D01*
X86576461Y-119055654D02*
X86671700Y-118960416D01*
X86671700Y-118960416D02*
X86719319Y-118817559D01*
X86719319Y-118817559D02*
X86719319Y-118579464D01*
X85719319Y-120055654D02*
X85719319Y-119579464D01*
X85719319Y-119579464D02*
X86195509Y-119531845D01*
X86195509Y-119531845D02*
X86147890Y-119579464D01*
X86147890Y-119579464D02*
X86100271Y-119674702D01*
X86100271Y-119674702D02*
X86100271Y-119912797D01*
X86100271Y-119912797D02*
X86147890Y-120008035D01*
X86147890Y-120008035D02*
X86195509Y-120055654D01*
X86195509Y-120055654D02*
X86290747Y-120103273D01*
X86290747Y-120103273D02*
X86528842Y-120103273D01*
X86528842Y-120103273D02*
X86624080Y-120055654D01*
X86624080Y-120055654D02*
X86671700Y-120008035D01*
X86671700Y-120008035D02*
X86719319Y-119912797D01*
X86719319Y-119912797D02*
X86719319Y-119674702D01*
X86719319Y-119674702D02*
X86671700Y-119579464D01*
X86671700Y-119579464D02*
X86624080Y-119531845D01*
X85719319Y-120960416D02*
X85719319Y-120769940D01*
X85719319Y-120769940D02*
X85766938Y-120674702D01*
X85766938Y-120674702D02*
X85814557Y-120627083D01*
X85814557Y-120627083D02*
X85957414Y-120531845D01*
X85957414Y-120531845D02*
X86147890Y-120484226D01*
X86147890Y-120484226D02*
X86528842Y-120484226D01*
X86528842Y-120484226D02*
X86624080Y-120531845D01*
X86624080Y-120531845D02*
X86671700Y-120579464D01*
X86671700Y-120579464D02*
X86719319Y-120674702D01*
X86719319Y-120674702D02*
X86719319Y-120865178D01*
X86719319Y-120865178D02*
X86671700Y-120960416D01*
X86671700Y-120960416D02*
X86624080Y-121008035D01*
X86624080Y-121008035D02*
X86528842Y-121055654D01*
X86528842Y-121055654D02*
X86290747Y-121055654D01*
X86290747Y-121055654D02*
X86195509Y-121008035D01*
X86195509Y-121008035D02*
X86147890Y-120960416D01*
X86147890Y-120960416D02*
X86100271Y-120865178D01*
X86100271Y-120865178D02*
X86100271Y-120674702D01*
X86100271Y-120674702D02*
X86147890Y-120579464D01*
X86147890Y-120579464D02*
X86195509Y-120531845D01*
X86195509Y-120531845D02*
X86290747Y-120484226D01*
X247056819Y-78891964D02*
X246056819Y-78891964D01*
X246056819Y-78891964D02*
X246056819Y-79130059D01*
X246056819Y-79130059D02*
X246104438Y-79272916D01*
X246104438Y-79272916D02*
X246199676Y-79368154D01*
X246199676Y-79368154D02*
X246294914Y-79415773D01*
X246294914Y-79415773D02*
X246485390Y-79463392D01*
X246485390Y-79463392D02*
X246628247Y-79463392D01*
X246628247Y-79463392D02*
X246818723Y-79415773D01*
X246818723Y-79415773D02*
X246913961Y-79368154D01*
X246913961Y-79368154D02*
X247009200Y-79272916D01*
X247009200Y-79272916D02*
X247056819Y-79130059D01*
X247056819Y-79130059D02*
X247056819Y-78891964D01*
X246056819Y-79796726D02*
X246056819Y-80415773D01*
X246056819Y-80415773D02*
X246437771Y-80082440D01*
X246437771Y-80082440D02*
X246437771Y-80225297D01*
X246437771Y-80225297D02*
X246485390Y-80320535D01*
X246485390Y-80320535D02*
X246533009Y-80368154D01*
X246533009Y-80368154D02*
X246628247Y-80415773D01*
X246628247Y-80415773D02*
X246866342Y-80415773D01*
X246866342Y-80415773D02*
X246961580Y-80368154D01*
X246961580Y-80368154D02*
X247009200Y-80320535D01*
X247009200Y-80320535D02*
X247056819Y-80225297D01*
X247056819Y-80225297D02*
X247056819Y-79939583D01*
X247056819Y-79939583D02*
X247009200Y-79844345D01*
X247009200Y-79844345D02*
X246961580Y-79796726D01*
X246056819Y-80749107D02*
X246056819Y-81415773D01*
X246056819Y-81415773D02*
X247056819Y-80987202D01*
X105769319Y-97941964D02*
X104769319Y-97941964D01*
X104769319Y-97941964D02*
X104769319Y-98180059D01*
X104769319Y-98180059D02*
X104816938Y-98322916D01*
X104816938Y-98322916D02*
X104912176Y-98418154D01*
X104912176Y-98418154D02*
X105007414Y-98465773D01*
X105007414Y-98465773D02*
X105197890Y-98513392D01*
X105197890Y-98513392D02*
X105340747Y-98513392D01*
X105340747Y-98513392D02*
X105531223Y-98465773D01*
X105531223Y-98465773D02*
X105626461Y-98418154D01*
X105626461Y-98418154D02*
X105721700Y-98322916D01*
X105721700Y-98322916D02*
X105769319Y-98180059D01*
X105769319Y-98180059D02*
X105769319Y-97941964D01*
X105102652Y-99370535D02*
X105769319Y-99370535D01*
X104721700Y-99132440D02*
X105435985Y-98894345D01*
X105435985Y-98894345D02*
X105435985Y-99513392D01*
X104769319Y-100370535D02*
X104769319Y-99894345D01*
X104769319Y-99894345D02*
X105245509Y-99846726D01*
X105245509Y-99846726D02*
X105197890Y-99894345D01*
X105197890Y-99894345D02*
X105150271Y-99989583D01*
X105150271Y-99989583D02*
X105150271Y-100227678D01*
X105150271Y-100227678D02*
X105197890Y-100322916D01*
X105197890Y-100322916D02*
X105245509Y-100370535D01*
X105245509Y-100370535D02*
X105340747Y-100418154D01*
X105340747Y-100418154D02*
X105578842Y-100418154D01*
X105578842Y-100418154D02*
X105674080Y-100370535D01*
X105674080Y-100370535D02*
X105721700Y-100322916D01*
X105721700Y-100322916D02*
X105769319Y-100227678D01*
X105769319Y-100227678D02*
X105769319Y-99989583D01*
X105769319Y-99989583D02*
X105721700Y-99894345D01*
X105721700Y-99894345D02*
X105674080Y-99846726D01*
X266106819Y-80541964D02*
X265106819Y-80541964D01*
X265106819Y-80541964D02*
X265106819Y-80780059D01*
X265106819Y-80780059D02*
X265154438Y-80922916D01*
X265154438Y-80922916D02*
X265249676Y-81018154D01*
X265249676Y-81018154D02*
X265344914Y-81065773D01*
X265344914Y-81065773D02*
X265535390Y-81113392D01*
X265535390Y-81113392D02*
X265678247Y-81113392D01*
X265678247Y-81113392D02*
X265868723Y-81065773D01*
X265868723Y-81065773D02*
X265963961Y-81018154D01*
X265963961Y-81018154D02*
X266059200Y-80922916D01*
X266059200Y-80922916D02*
X266106819Y-80780059D01*
X266106819Y-80780059D02*
X266106819Y-80541964D01*
X265106819Y-81446726D02*
X265106819Y-82065773D01*
X265106819Y-82065773D02*
X265487771Y-81732440D01*
X265487771Y-81732440D02*
X265487771Y-81875297D01*
X265487771Y-81875297D02*
X265535390Y-81970535D01*
X265535390Y-81970535D02*
X265583009Y-82018154D01*
X265583009Y-82018154D02*
X265678247Y-82065773D01*
X265678247Y-82065773D02*
X265916342Y-82065773D01*
X265916342Y-82065773D02*
X266011580Y-82018154D01*
X266011580Y-82018154D02*
X266059200Y-81970535D01*
X266059200Y-81970535D02*
X266106819Y-81875297D01*
X266106819Y-81875297D02*
X266106819Y-81589583D01*
X266106819Y-81589583D02*
X266059200Y-81494345D01*
X266059200Y-81494345D02*
X266011580Y-81446726D01*
X265535390Y-82637202D02*
X265487771Y-82541964D01*
X265487771Y-82541964D02*
X265440152Y-82494345D01*
X265440152Y-82494345D02*
X265344914Y-82446726D01*
X265344914Y-82446726D02*
X265297295Y-82446726D01*
X265297295Y-82446726D02*
X265202057Y-82494345D01*
X265202057Y-82494345D02*
X265154438Y-82541964D01*
X265154438Y-82541964D02*
X265106819Y-82637202D01*
X265106819Y-82637202D02*
X265106819Y-82827678D01*
X265106819Y-82827678D02*
X265154438Y-82922916D01*
X265154438Y-82922916D02*
X265202057Y-82970535D01*
X265202057Y-82970535D02*
X265297295Y-83018154D01*
X265297295Y-83018154D02*
X265344914Y-83018154D01*
X265344914Y-83018154D02*
X265440152Y-82970535D01*
X265440152Y-82970535D02*
X265487771Y-82922916D01*
X265487771Y-82922916D02*
X265535390Y-82827678D01*
X265535390Y-82827678D02*
X265535390Y-82637202D01*
X265535390Y-82637202D02*
X265583009Y-82541964D01*
X265583009Y-82541964D02*
X265630628Y-82494345D01*
X265630628Y-82494345D02*
X265725866Y-82446726D01*
X265725866Y-82446726D02*
X265916342Y-82446726D01*
X265916342Y-82446726D02*
X266011580Y-82494345D01*
X266011580Y-82494345D02*
X266059200Y-82541964D01*
X266059200Y-82541964D02*
X266106819Y-82637202D01*
X266106819Y-82637202D02*
X266106819Y-82827678D01*
X266106819Y-82827678D02*
X266059200Y-82922916D01*
X266059200Y-82922916D02*
X266011580Y-82970535D01*
X266011580Y-82970535D02*
X265916342Y-83018154D01*
X265916342Y-83018154D02*
X265725866Y-83018154D01*
X265725866Y-83018154D02*
X265630628Y-82970535D01*
X265630628Y-82970535D02*
X265583009Y-82922916D01*
X265583009Y-82922916D02*
X265535390Y-82827678D01*
X228006819Y-99529464D02*
X227006819Y-99529464D01*
X227006819Y-99529464D02*
X227006819Y-99767559D01*
X227006819Y-99767559D02*
X227054438Y-99910416D01*
X227054438Y-99910416D02*
X227149676Y-100005654D01*
X227149676Y-100005654D02*
X227244914Y-100053273D01*
X227244914Y-100053273D02*
X227435390Y-100100892D01*
X227435390Y-100100892D02*
X227578247Y-100100892D01*
X227578247Y-100100892D02*
X227768723Y-100053273D01*
X227768723Y-100053273D02*
X227863961Y-100005654D01*
X227863961Y-100005654D02*
X227959200Y-99910416D01*
X227959200Y-99910416D02*
X228006819Y-99767559D01*
X228006819Y-99767559D02*
X228006819Y-99529464D01*
X227340152Y-100958035D02*
X228006819Y-100958035D01*
X226959200Y-100719940D02*
X227673485Y-100481845D01*
X227673485Y-100481845D02*
X227673485Y-101100892D01*
X228006819Y-101529464D02*
X228006819Y-101719940D01*
X228006819Y-101719940D02*
X227959200Y-101815178D01*
X227959200Y-101815178D02*
X227911580Y-101862797D01*
X227911580Y-101862797D02*
X227768723Y-101958035D01*
X227768723Y-101958035D02*
X227578247Y-102005654D01*
X227578247Y-102005654D02*
X227197295Y-102005654D01*
X227197295Y-102005654D02*
X227102057Y-101958035D01*
X227102057Y-101958035D02*
X227054438Y-101910416D01*
X227054438Y-101910416D02*
X227006819Y-101815178D01*
X227006819Y-101815178D02*
X227006819Y-101624702D01*
X227006819Y-101624702D02*
X227054438Y-101529464D01*
X227054438Y-101529464D02*
X227102057Y-101481845D01*
X227102057Y-101481845D02*
X227197295Y-101434226D01*
X227197295Y-101434226D02*
X227435390Y-101434226D01*
X227435390Y-101434226D02*
X227530628Y-101481845D01*
X227530628Y-101481845D02*
X227578247Y-101529464D01*
X227578247Y-101529464D02*
X227625866Y-101624702D01*
X227625866Y-101624702D02*
X227625866Y-101815178D01*
X227625866Y-101815178D02*
X227578247Y-101910416D01*
X227578247Y-101910416D02*
X227530628Y-101958035D01*
X227530628Y-101958035D02*
X227435390Y-102005654D01*
X43856819Y-63141964D02*
X42856819Y-63141964D01*
X42856819Y-63141964D02*
X42856819Y-63380059D01*
X42856819Y-63380059D02*
X42904438Y-63522916D01*
X42904438Y-63522916D02*
X42999676Y-63618154D01*
X42999676Y-63618154D02*
X43094914Y-63665773D01*
X43094914Y-63665773D02*
X43285390Y-63713392D01*
X43285390Y-63713392D02*
X43428247Y-63713392D01*
X43428247Y-63713392D02*
X43618723Y-63665773D01*
X43618723Y-63665773D02*
X43713961Y-63618154D01*
X43713961Y-63618154D02*
X43809200Y-63522916D01*
X43809200Y-63522916D02*
X43856819Y-63380059D01*
X43856819Y-63380059D02*
X43856819Y-63141964D01*
X43856819Y-64665773D02*
X43856819Y-64094345D01*
X43856819Y-64380059D02*
X42856819Y-64380059D01*
X42856819Y-64380059D02*
X42999676Y-64284821D01*
X42999676Y-64284821D02*
X43094914Y-64189583D01*
X43094914Y-64189583D02*
X43142533Y-64094345D01*
X42856819Y-65570535D02*
X42856819Y-65094345D01*
X42856819Y-65094345D02*
X43333009Y-65046726D01*
X43333009Y-65046726D02*
X43285390Y-65094345D01*
X43285390Y-65094345D02*
X43237771Y-65189583D01*
X43237771Y-65189583D02*
X43237771Y-65427678D01*
X43237771Y-65427678D02*
X43285390Y-65522916D01*
X43285390Y-65522916D02*
X43333009Y-65570535D01*
X43333009Y-65570535D02*
X43428247Y-65618154D01*
X43428247Y-65618154D02*
X43666342Y-65618154D01*
X43666342Y-65618154D02*
X43761580Y-65570535D01*
X43761580Y-65570535D02*
X43809200Y-65522916D01*
X43809200Y-65522916D02*
X43856819Y-65427678D01*
X43856819Y-65427678D02*
X43856819Y-65189583D01*
X43856819Y-65189583D02*
X43809200Y-65094345D01*
X43809200Y-65094345D02*
X43761580Y-65046726D01*
X208956819Y-101116964D02*
X207956819Y-101116964D01*
X207956819Y-101116964D02*
X207956819Y-101355059D01*
X207956819Y-101355059D02*
X208004438Y-101497916D01*
X208004438Y-101497916D02*
X208099676Y-101593154D01*
X208099676Y-101593154D02*
X208194914Y-101640773D01*
X208194914Y-101640773D02*
X208385390Y-101688392D01*
X208385390Y-101688392D02*
X208528247Y-101688392D01*
X208528247Y-101688392D02*
X208718723Y-101640773D01*
X208718723Y-101640773D02*
X208813961Y-101593154D01*
X208813961Y-101593154D02*
X208909200Y-101497916D01*
X208909200Y-101497916D02*
X208956819Y-101355059D01*
X208956819Y-101355059D02*
X208956819Y-101116964D01*
X208290152Y-102545535D02*
X208956819Y-102545535D01*
X207909200Y-102307440D02*
X208623485Y-102069345D01*
X208623485Y-102069345D02*
X208623485Y-102688392D01*
X208385390Y-103212202D02*
X208337771Y-103116964D01*
X208337771Y-103116964D02*
X208290152Y-103069345D01*
X208290152Y-103069345D02*
X208194914Y-103021726D01*
X208194914Y-103021726D02*
X208147295Y-103021726D01*
X208147295Y-103021726D02*
X208052057Y-103069345D01*
X208052057Y-103069345D02*
X208004438Y-103116964D01*
X208004438Y-103116964D02*
X207956819Y-103212202D01*
X207956819Y-103212202D02*
X207956819Y-103402678D01*
X207956819Y-103402678D02*
X208004438Y-103497916D01*
X208004438Y-103497916D02*
X208052057Y-103545535D01*
X208052057Y-103545535D02*
X208147295Y-103593154D01*
X208147295Y-103593154D02*
X208194914Y-103593154D01*
X208194914Y-103593154D02*
X208290152Y-103545535D01*
X208290152Y-103545535D02*
X208337771Y-103497916D01*
X208337771Y-103497916D02*
X208385390Y-103402678D01*
X208385390Y-103402678D02*
X208385390Y-103212202D01*
X208385390Y-103212202D02*
X208433009Y-103116964D01*
X208433009Y-103116964D02*
X208480628Y-103069345D01*
X208480628Y-103069345D02*
X208575866Y-103021726D01*
X208575866Y-103021726D02*
X208766342Y-103021726D01*
X208766342Y-103021726D02*
X208861580Y-103069345D01*
X208861580Y-103069345D02*
X208909200Y-103116964D01*
X208909200Y-103116964D02*
X208956819Y-103212202D01*
X208956819Y-103212202D02*
X208956819Y-103402678D01*
X208956819Y-103402678D02*
X208909200Y-103497916D01*
X208909200Y-103497916D02*
X208861580Y-103545535D01*
X208861580Y-103545535D02*
X208766342Y-103593154D01*
X208766342Y-103593154D02*
X208575866Y-103593154D01*
X208575866Y-103593154D02*
X208480628Y-103545535D01*
X208480628Y-103545535D02*
X208433009Y-103497916D01*
X208433009Y-103497916D02*
X208385390Y-103402678D01*
X143869319Y-101116964D02*
X142869319Y-101116964D01*
X142869319Y-101116964D02*
X142869319Y-101355059D01*
X142869319Y-101355059D02*
X142916938Y-101497916D01*
X142916938Y-101497916D02*
X143012176Y-101593154D01*
X143012176Y-101593154D02*
X143107414Y-101640773D01*
X143107414Y-101640773D02*
X143297890Y-101688392D01*
X143297890Y-101688392D02*
X143440747Y-101688392D01*
X143440747Y-101688392D02*
X143631223Y-101640773D01*
X143631223Y-101640773D02*
X143726461Y-101593154D01*
X143726461Y-101593154D02*
X143821700Y-101497916D01*
X143821700Y-101497916D02*
X143869319Y-101355059D01*
X143869319Y-101355059D02*
X143869319Y-101116964D01*
X143202652Y-102545535D02*
X143869319Y-102545535D01*
X142821700Y-102307440D02*
X143535985Y-102069345D01*
X143535985Y-102069345D02*
X143535985Y-102688392D01*
X142869319Y-102974107D02*
X142869319Y-103640773D01*
X142869319Y-103640773D02*
X143869319Y-103212202D01*
X143869319Y-44443155D02*
X142869319Y-44443155D01*
X142869319Y-44443155D02*
X142869319Y-44681250D01*
X142869319Y-44681250D02*
X142916938Y-44824107D01*
X142916938Y-44824107D02*
X143012176Y-44919345D01*
X143012176Y-44919345D02*
X143107414Y-44966964D01*
X143107414Y-44966964D02*
X143297890Y-45014583D01*
X143297890Y-45014583D02*
X143440747Y-45014583D01*
X143440747Y-45014583D02*
X143631223Y-44966964D01*
X143631223Y-44966964D02*
X143726461Y-44919345D01*
X143726461Y-44919345D02*
X143821700Y-44824107D01*
X143821700Y-44824107D02*
X143869319Y-44681250D01*
X143869319Y-44681250D02*
X143869319Y-44443155D01*
X142869319Y-45871726D02*
X142869319Y-45681250D01*
X142869319Y-45681250D02*
X142916938Y-45586012D01*
X142916938Y-45586012D02*
X142964557Y-45538393D01*
X142964557Y-45538393D02*
X143107414Y-45443155D01*
X143107414Y-45443155D02*
X143297890Y-45395536D01*
X143297890Y-45395536D02*
X143678842Y-45395536D01*
X143678842Y-45395536D02*
X143774080Y-45443155D01*
X143774080Y-45443155D02*
X143821700Y-45490774D01*
X143821700Y-45490774D02*
X143869319Y-45586012D01*
X143869319Y-45586012D02*
X143869319Y-45776488D01*
X143869319Y-45776488D02*
X143821700Y-45871726D01*
X143821700Y-45871726D02*
X143774080Y-45919345D01*
X143774080Y-45919345D02*
X143678842Y-45966964D01*
X143678842Y-45966964D02*
X143440747Y-45966964D01*
X143440747Y-45966964D02*
X143345509Y-45919345D01*
X143345509Y-45919345D02*
X143297890Y-45871726D01*
X143297890Y-45871726D02*
X143250271Y-45776488D01*
X143250271Y-45776488D02*
X143250271Y-45586012D01*
X143250271Y-45586012D02*
X143297890Y-45490774D01*
X143297890Y-45490774D02*
X143345509Y-45443155D01*
X143345509Y-45443155D02*
X143440747Y-45395536D01*
X86719319Y-99654464D02*
X85719319Y-99654464D01*
X85719319Y-99654464D02*
X85719319Y-99892559D01*
X85719319Y-99892559D02*
X85766938Y-100035416D01*
X85766938Y-100035416D02*
X85862176Y-100130654D01*
X85862176Y-100130654D02*
X85957414Y-100178273D01*
X85957414Y-100178273D02*
X86147890Y-100225892D01*
X86147890Y-100225892D02*
X86290747Y-100225892D01*
X86290747Y-100225892D02*
X86481223Y-100178273D01*
X86481223Y-100178273D02*
X86576461Y-100130654D01*
X86576461Y-100130654D02*
X86671700Y-100035416D01*
X86671700Y-100035416D02*
X86719319Y-99892559D01*
X86719319Y-99892559D02*
X86719319Y-99654464D01*
X86052652Y-101083035D02*
X86719319Y-101083035D01*
X85671700Y-100844940D02*
X86385985Y-100606845D01*
X86385985Y-100606845D02*
X86385985Y-101225892D01*
X86052652Y-102035416D02*
X86719319Y-102035416D01*
X85671700Y-101797321D02*
X86385985Y-101559226D01*
X86385985Y-101559226D02*
X86385985Y-102178273D01*
X86719319Y-80541964D02*
X85719319Y-80541964D01*
X85719319Y-80541964D02*
X85719319Y-80780059D01*
X85719319Y-80780059D02*
X85766938Y-80922916D01*
X85766938Y-80922916D02*
X85862176Y-81018154D01*
X85862176Y-81018154D02*
X85957414Y-81065773D01*
X85957414Y-81065773D02*
X86147890Y-81113392D01*
X86147890Y-81113392D02*
X86290747Y-81113392D01*
X86290747Y-81113392D02*
X86481223Y-81065773D01*
X86481223Y-81065773D02*
X86576461Y-81018154D01*
X86576461Y-81018154D02*
X86671700Y-80922916D01*
X86671700Y-80922916D02*
X86719319Y-80780059D01*
X86719319Y-80780059D02*
X86719319Y-80541964D01*
X85719319Y-81446726D02*
X85719319Y-82065773D01*
X85719319Y-82065773D02*
X86100271Y-81732440D01*
X86100271Y-81732440D02*
X86100271Y-81875297D01*
X86100271Y-81875297D02*
X86147890Y-81970535D01*
X86147890Y-81970535D02*
X86195509Y-82018154D01*
X86195509Y-82018154D02*
X86290747Y-82065773D01*
X86290747Y-82065773D02*
X86528842Y-82065773D01*
X86528842Y-82065773D02*
X86624080Y-82018154D01*
X86624080Y-82018154D02*
X86671700Y-81970535D01*
X86671700Y-81970535D02*
X86719319Y-81875297D01*
X86719319Y-81875297D02*
X86719319Y-81589583D01*
X86719319Y-81589583D02*
X86671700Y-81494345D01*
X86671700Y-81494345D02*
X86624080Y-81446726D01*
X86719319Y-83018154D02*
X86719319Y-82446726D01*
X86719319Y-82732440D02*
X85719319Y-82732440D01*
X85719319Y-82732440D02*
X85862176Y-82637202D01*
X85862176Y-82637202D02*
X85957414Y-82541964D01*
X85957414Y-82541964D02*
X86005033Y-82446726D01*
X124819319Y-118641964D02*
X123819319Y-118641964D01*
X123819319Y-118641964D02*
X123819319Y-118880059D01*
X123819319Y-118880059D02*
X123866938Y-119022916D01*
X123866938Y-119022916D02*
X123962176Y-119118154D01*
X123962176Y-119118154D02*
X124057414Y-119165773D01*
X124057414Y-119165773D02*
X124247890Y-119213392D01*
X124247890Y-119213392D02*
X124390747Y-119213392D01*
X124390747Y-119213392D02*
X124581223Y-119165773D01*
X124581223Y-119165773D02*
X124676461Y-119118154D01*
X124676461Y-119118154D02*
X124771700Y-119022916D01*
X124771700Y-119022916D02*
X124819319Y-118880059D01*
X124819319Y-118880059D02*
X124819319Y-118641964D01*
X123819319Y-120118154D02*
X123819319Y-119641964D01*
X123819319Y-119641964D02*
X124295509Y-119594345D01*
X124295509Y-119594345D02*
X124247890Y-119641964D01*
X124247890Y-119641964D02*
X124200271Y-119737202D01*
X124200271Y-119737202D02*
X124200271Y-119975297D01*
X124200271Y-119975297D02*
X124247890Y-120070535D01*
X124247890Y-120070535D02*
X124295509Y-120118154D01*
X124295509Y-120118154D02*
X124390747Y-120165773D01*
X124390747Y-120165773D02*
X124628842Y-120165773D01*
X124628842Y-120165773D02*
X124724080Y-120118154D01*
X124724080Y-120118154D02*
X124771700Y-120070535D01*
X124771700Y-120070535D02*
X124819319Y-119975297D01*
X124819319Y-119975297D02*
X124819319Y-119737202D01*
X124819319Y-119737202D02*
X124771700Y-119641964D01*
X124771700Y-119641964D02*
X124724080Y-119594345D01*
X124247890Y-120737202D02*
X124200271Y-120641964D01*
X124200271Y-120641964D02*
X124152652Y-120594345D01*
X124152652Y-120594345D02*
X124057414Y-120546726D01*
X124057414Y-120546726D02*
X124009795Y-120546726D01*
X124009795Y-120546726D02*
X123914557Y-120594345D01*
X123914557Y-120594345D02*
X123866938Y-120641964D01*
X123866938Y-120641964D02*
X123819319Y-120737202D01*
X123819319Y-120737202D02*
X123819319Y-120927678D01*
X123819319Y-120927678D02*
X123866938Y-121022916D01*
X123866938Y-121022916D02*
X123914557Y-121070535D01*
X123914557Y-121070535D02*
X124009795Y-121118154D01*
X124009795Y-121118154D02*
X124057414Y-121118154D01*
X124057414Y-121118154D02*
X124152652Y-121070535D01*
X124152652Y-121070535D02*
X124200271Y-121022916D01*
X124200271Y-121022916D02*
X124247890Y-120927678D01*
X124247890Y-120927678D02*
X124247890Y-120737202D01*
X124247890Y-120737202D02*
X124295509Y-120641964D01*
X124295509Y-120641964D02*
X124343128Y-120594345D01*
X124343128Y-120594345D02*
X124438366Y-120546726D01*
X124438366Y-120546726D02*
X124628842Y-120546726D01*
X124628842Y-120546726D02*
X124724080Y-120594345D01*
X124724080Y-120594345D02*
X124771700Y-120641964D01*
X124771700Y-120641964D02*
X124819319Y-120737202D01*
X124819319Y-120737202D02*
X124819319Y-120927678D01*
X124819319Y-120927678D02*
X124771700Y-121022916D01*
X124771700Y-121022916D02*
X124724080Y-121070535D01*
X124724080Y-121070535D02*
X124628842Y-121118154D01*
X124628842Y-121118154D02*
X124438366Y-121118154D01*
X124438366Y-121118154D02*
X124343128Y-121070535D01*
X124343128Y-121070535D02*
X124295509Y-121022916D01*
X124295509Y-121022916D02*
X124247890Y-120927678D01*
X43856819Y-44505655D02*
X42856819Y-44505655D01*
X42856819Y-44505655D02*
X42856819Y-44743750D01*
X42856819Y-44743750D02*
X42904438Y-44886607D01*
X42904438Y-44886607D02*
X42999676Y-44981845D01*
X42999676Y-44981845D02*
X43094914Y-45029464D01*
X43094914Y-45029464D02*
X43285390Y-45077083D01*
X43285390Y-45077083D02*
X43428247Y-45077083D01*
X43428247Y-45077083D02*
X43618723Y-45029464D01*
X43618723Y-45029464D02*
X43713961Y-44981845D01*
X43713961Y-44981845D02*
X43809200Y-44886607D01*
X43809200Y-44886607D02*
X43856819Y-44743750D01*
X43856819Y-44743750D02*
X43856819Y-44505655D01*
X43856819Y-46029464D02*
X43856819Y-45458036D01*
X43856819Y-45743750D02*
X42856819Y-45743750D01*
X42856819Y-45743750D02*
X42999676Y-45648512D01*
X42999676Y-45648512D02*
X43094914Y-45553274D01*
X43094914Y-45553274D02*
X43142533Y-45458036D01*
X304206819Y-63079464D02*
X303206819Y-63079464D01*
X303206819Y-63079464D02*
X303206819Y-63317559D01*
X303206819Y-63317559D02*
X303254438Y-63460416D01*
X303254438Y-63460416D02*
X303349676Y-63555654D01*
X303349676Y-63555654D02*
X303444914Y-63603273D01*
X303444914Y-63603273D02*
X303635390Y-63650892D01*
X303635390Y-63650892D02*
X303778247Y-63650892D01*
X303778247Y-63650892D02*
X303968723Y-63603273D01*
X303968723Y-63603273D02*
X304063961Y-63555654D01*
X304063961Y-63555654D02*
X304159200Y-63460416D01*
X304159200Y-63460416D02*
X304206819Y-63317559D01*
X304206819Y-63317559D02*
X304206819Y-63079464D01*
X303302057Y-64031845D02*
X303254438Y-64079464D01*
X303254438Y-64079464D02*
X303206819Y-64174702D01*
X303206819Y-64174702D02*
X303206819Y-64412797D01*
X303206819Y-64412797D02*
X303254438Y-64508035D01*
X303254438Y-64508035D02*
X303302057Y-64555654D01*
X303302057Y-64555654D02*
X303397295Y-64603273D01*
X303397295Y-64603273D02*
X303492533Y-64603273D01*
X303492533Y-64603273D02*
X303635390Y-64555654D01*
X303635390Y-64555654D02*
X304206819Y-63984226D01*
X304206819Y-63984226D02*
X304206819Y-64603273D01*
X303206819Y-65460416D02*
X303206819Y-65269940D01*
X303206819Y-65269940D02*
X303254438Y-65174702D01*
X303254438Y-65174702D02*
X303302057Y-65127083D01*
X303302057Y-65127083D02*
X303444914Y-65031845D01*
X303444914Y-65031845D02*
X303635390Y-64984226D01*
X303635390Y-64984226D02*
X304016342Y-64984226D01*
X304016342Y-64984226D02*
X304111580Y-65031845D01*
X304111580Y-65031845D02*
X304159200Y-65079464D01*
X304159200Y-65079464D02*
X304206819Y-65174702D01*
X304206819Y-65174702D02*
X304206819Y-65365178D01*
X304206819Y-65365178D02*
X304159200Y-65460416D01*
X304159200Y-65460416D02*
X304111580Y-65508035D01*
X304111580Y-65508035D02*
X304016342Y-65555654D01*
X304016342Y-65555654D02*
X303778247Y-65555654D01*
X303778247Y-65555654D02*
X303683009Y-65508035D01*
X303683009Y-65508035D02*
X303635390Y-65460416D01*
X303635390Y-65460416D02*
X303587771Y-65365178D01*
X303587771Y-65365178D02*
X303587771Y-65174702D01*
X303587771Y-65174702D02*
X303635390Y-65079464D01*
X303635390Y-65079464D02*
X303683009Y-65031845D01*
X303683009Y-65031845D02*
X303778247Y-64984226D01*
X67669319Y-44505655D02*
X66669319Y-44505655D01*
X66669319Y-44505655D02*
X66669319Y-44743750D01*
X66669319Y-44743750D02*
X66716938Y-44886607D01*
X66716938Y-44886607D02*
X66812176Y-44981845D01*
X66812176Y-44981845D02*
X66907414Y-45029464D01*
X66907414Y-45029464D02*
X67097890Y-45077083D01*
X67097890Y-45077083D02*
X67240747Y-45077083D01*
X67240747Y-45077083D02*
X67431223Y-45029464D01*
X67431223Y-45029464D02*
X67526461Y-44981845D01*
X67526461Y-44981845D02*
X67621700Y-44886607D01*
X67621700Y-44886607D02*
X67669319Y-44743750D01*
X67669319Y-44743750D02*
X67669319Y-44505655D01*
X66764557Y-45458036D02*
X66716938Y-45505655D01*
X66716938Y-45505655D02*
X66669319Y-45600893D01*
X66669319Y-45600893D02*
X66669319Y-45838988D01*
X66669319Y-45838988D02*
X66716938Y-45934226D01*
X66716938Y-45934226D02*
X66764557Y-45981845D01*
X66764557Y-45981845D02*
X66859795Y-46029464D01*
X66859795Y-46029464D02*
X66955033Y-46029464D01*
X66955033Y-46029464D02*
X67097890Y-45981845D01*
X67097890Y-45981845D02*
X67669319Y-45410417D01*
X67669319Y-45410417D02*
X67669319Y-46029464D01*
X208956819Y-63141964D02*
X207956819Y-63141964D01*
X207956819Y-63141964D02*
X207956819Y-63380059D01*
X207956819Y-63380059D02*
X208004438Y-63522916D01*
X208004438Y-63522916D02*
X208099676Y-63618154D01*
X208099676Y-63618154D02*
X208194914Y-63665773D01*
X208194914Y-63665773D02*
X208385390Y-63713392D01*
X208385390Y-63713392D02*
X208528247Y-63713392D01*
X208528247Y-63713392D02*
X208718723Y-63665773D01*
X208718723Y-63665773D02*
X208813961Y-63618154D01*
X208813961Y-63618154D02*
X208909200Y-63522916D01*
X208909200Y-63522916D02*
X208956819Y-63380059D01*
X208956819Y-63380059D02*
X208956819Y-63141964D01*
X208052057Y-64094345D02*
X208004438Y-64141964D01*
X208004438Y-64141964D02*
X207956819Y-64237202D01*
X207956819Y-64237202D02*
X207956819Y-64475297D01*
X207956819Y-64475297D02*
X208004438Y-64570535D01*
X208004438Y-64570535D02*
X208052057Y-64618154D01*
X208052057Y-64618154D02*
X208147295Y-64665773D01*
X208147295Y-64665773D02*
X208242533Y-64665773D01*
X208242533Y-64665773D02*
X208385390Y-64618154D01*
X208385390Y-64618154D02*
X208956819Y-64046726D01*
X208956819Y-64046726D02*
X208956819Y-64665773D01*
X208956819Y-65618154D02*
X208956819Y-65046726D01*
X208956819Y-65332440D02*
X207956819Y-65332440D01*
X207956819Y-65332440D02*
X208099676Y-65237202D01*
X208099676Y-65237202D02*
X208194914Y-65141964D01*
X208194914Y-65141964D02*
X208242533Y-65046726D01*
X105769319Y-78954464D02*
X104769319Y-78954464D01*
X104769319Y-78954464D02*
X104769319Y-79192559D01*
X104769319Y-79192559D02*
X104816938Y-79335416D01*
X104816938Y-79335416D02*
X104912176Y-79430654D01*
X104912176Y-79430654D02*
X105007414Y-79478273D01*
X105007414Y-79478273D02*
X105197890Y-79525892D01*
X105197890Y-79525892D02*
X105340747Y-79525892D01*
X105340747Y-79525892D02*
X105531223Y-79478273D01*
X105531223Y-79478273D02*
X105626461Y-79430654D01*
X105626461Y-79430654D02*
X105721700Y-79335416D01*
X105721700Y-79335416D02*
X105769319Y-79192559D01*
X105769319Y-79192559D02*
X105769319Y-78954464D01*
X104769319Y-79859226D02*
X104769319Y-80478273D01*
X104769319Y-80478273D02*
X105150271Y-80144940D01*
X105150271Y-80144940D02*
X105150271Y-80287797D01*
X105150271Y-80287797D02*
X105197890Y-80383035D01*
X105197890Y-80383035D02*
X105245509Y-80430654D01*
X105245509Y-80430654D02*
X105340747Y-80478273D01*
X105340747Y-80478273D02*
X105578842Y-80478273D01*
X105578842Y-80478273D02*
X105674080Y-80430654D01*
X105674080Y-80430654D02*
X105721700Y-80383035D01*
X105721700Y-80383035D02*
X105769319Y-80287797D01*
X105769319Y-80287797D02*
X105769319Y-80002083D01*
X105769319Y-80002083D02*
X105721700Y-79906845D01*
X105721700Y-79906845D02*
X105674080Y-79859226D01*
X104864557Y-80859226D02*
X104816938Y-80906845D01*
X104816938Y-80906845D02*
X104769319Y-81002083D01*
X104769319Y-81002083D02*
X104769319Y-81240178D01*
X104769319Y-81240178D02*
X104816938Y-81335416D01*
X104816938Y-81335416D02*
X104864557Y-81383035D01*
X104864557Y-81383035D02*
X104959795Y-81430654D01*
X104959795Y-81430654D02*
X105055033Y-81430654D01*
X105055033Y-81430654D02*
X105197890Y-81383035D01*
X105197890Y-81383035D02*
X105769319Y-80811607D01*
X105769319Y-80811607D02*
X105769319Y-81430654D01*
X228006819Y-61429464D02*
X227006819Y-61429464D01*
X227006819Y-61429464D02*
X227006819Y-61667559D01*
X227006819Y-61667559D02*
X227054438Y-61810416D01*
X227054438Y-61810416D02*
X227149676Y-61905654D01*
X227149676Y-61905654D02*
X227244914Y-61953273D01*
X227244914Y-61953273D02*
X227435390Y-62000892D01*
X227435390Y-62000892D02*
X227578247Y-62000892D01*
X227578247Y-62000892D02*
X227768723Y-61953273D01*
X227768723Y-61953273D02*
X227863961Y-61905654D01*
X227863961Y-61905654D02*
X227959200Y-61810416D01*
X227959200Y-61810416D02*
X228006819Y-61667559D01*
X228006819Y-61667559D02*
X228006819Y-61429464D01*
X227102057Y-62381845D02*
X227054438Y-62429464D01*
X227054438Y-62429464D02*
X227006819Y-62524702D01*
X227006819Y-62524702D02*
X227006819Y-62762797D01*
X227006819Y-62762797D02*
X227054438Y-62858035D01*
X227054438Y-62858035D02*
X227102057Y-62905654D01*
X227102057Y-62905654D02*
X227197295Y-62953273D01*
X227197295Y-62953273D02*
X227292533Y-62953273D01*
X227292533Y-62953273D02*
X227435390Y-62905654D01*
X227435390Y-62905654D02*
X228006819Y-62334226D01*
X228006819Y-62334226D02*
X228006819Y-62953273D01*
X227102057Y-63334226D02*
X227054438Y-63381845D01*
X227054438Y-63381845D02*
X227006819Y-63477083D01*
X227006819Y-63477083D02*
X227006819Y-63715178D01*
X227006819Y-63715178D02*
X227054438Y-63810416D01*
X227054438Y-63810416D02*
X227102057Y-63858035D01*
X227102057Y-63858035D02*
X227197295Y-63905654D01*
X227197295Y-63905654D02*
X227292533Y-63905654D01*
X227292533Y-63905654D02*
X227435390Y-63858035D01*
X227435390Y-63858035D02*
X228006819Y-63286607D01*
X228006819Y-63286607D02*
X228006819Y-63905654D01*
X105769319Y-116991964D02*
X104769319Y-116991964D01*
X104769319Y-116991964D02*
X104769319Y-117230059D01*
X104769319Y-117230059D02*
X104816938Y-117372916D01*
X104816938Y-117372916D02*
X104912176Y-117468154D01*
X104912176Y-117468154D02*
X105007414Y-117515773D01*
X105007414Y-117515773D02*
X105197890Y-117563392D01*
X105197890Y-117563392D02*
X105340747Y-117563392D01*
X105340747Y-117563392D02*
X105531223Y-117515773D01*
X105531223Y-117515773D02*
X105626461Y-117468154D01*
X105626461Y-117468154D02*
X105721700Y-117372916D01*
X105721700Y-117372916D02*
X105769319Y-117230059D01*
X105769319Y-117230059D02*
X105769319Y-116991964D01*
X104769319Y-118468154D02*
X104769319Y-117991964D01*
X104769319Y-117991964D02*
X105245509Y-117944345D01*
X105245509Y-117944345D02*
X105197890Y-117991964D01*
X105197890Y-117991964D02*
X105150271Y-118087202D01*
X105150271Y-118087202D02*
X105150271Y-118325297D01*
X105150271Y-118325297D02*
X105197890Y-118420535D01*
X105197890Y-118420535D02*
X105245509Y-118468154D01*
X105245509Y-118468154D02*
X105340747Y-118515773D01*
X105340747Y-118515773D02*
X105578842Y-118515773D01*
X105578842Y-118515773D02*
X105674080Y-118468154D01*
X105674080Y-118468154D02*
X105721700Y-118420535D01*
X105721700Y-118420535D02*
X105769319Y-118325297D01*
X105769319Y-118325297D02*
X105769319Y-118087202D01*
X105769319Y-118087202D02*
X105721700Y-117991964D01*
X105721700Y-117991964D02*
X105674080Y-117944345D01*
X104769319Y-118849107D02*
X104769319Y-119515773D01*
X104769319Y-119515773D02*
X105769319Y-119087202D01*
X247056819Y-116991964D02*
X246056819Y-116991964D01*
X246056819Y-116991964D02*
X246056819Y-117230059D01*
X246056819Y-117230059D02*
X246104438Y-117372916D01*
X246104438Y-117372916D02*
X246199676Y-117468154D01*
X246199676Y-117468154D02*
X246294914Y-117515773D01*
X246294914Y-117515773D02*
X246485390Y-117563392D01*
X246485390Y-117563392D02*
X246628247Y-117563392D01*
X246628247Y-117563392D02*
X246818723Y-117515773D01*
X246818723Y-117515773D02*
X246913961Y-117468154D01*
X246913961Y-117468154D02*
X247009200Y-117372916D01*
X247009200Y-117372916D02*
X247056819Y-117230059D01*
X247056819Y-117230059D02*
X247056819Y-116991964D01*
X246056819Y-118420535D02*
X246056819Y-118230059D01*
X246056819Y-118230059D02*
X246104438Y-118134821D01*
X246104438Y-118134821D02*
X246152057Y-118087202D01*
X246152057Y-118087202D02*
X246294914Y-117991964D01*
X246294914Y-117991964D02*
X246485390Y-117944345D01*
X246485390Y-117944345D02*
X246866342Y-117944345D01*
X246866342Y-117944345D02*
X246961580Y-117991964D01*
X246961580Y-117991964D02*
X247009200Y-118039583D01*
X247009200Y-118039583D02*
X247056819Y-118134821D01*
X247056819Y-118134821D02*
X247056819Y-118325297D01*
X247056819Y-118325297D02*
X247009200Y-118420535D01*
X247009200Y-118420535D02*
X246961580Y-118468154D01*
X246961580Y-118468154D02*
X246866342Y-118515773D01*
X246866342Y-118515773D02*
X246628247Y-118515773D01*
X246628247Y-118515773D02*
X246533009Y-118468154D01*
X246533009Y-118468154D02*
X246485390Y-118420535D01*
X246485390Y-118420535D02*
X246437771Y-118325297D01*
X246437771Y-118325297D02*
X246437771Y-118134821D01*
X246437771Y-118134821D02*
X246485390Y-118039583D01*
X246485390Y-118039583D02*
X246533009Y-117991964D01*
X246533009Y-117991964D02*
X246628247Y-117944345D01*
X246152057Y-118896726D02*
X246104438Y-118944345D01*
X246104438Y-118944345D02*
X246056819Y-119039583D01*
X246056819Y-119039583D02*
X246056819Y-119277678D01*
X246056819Y-119277678D02*
X246104438Y-119372916D01*
X246104438Y-119372916D02*
X246152057Y-119420535D01*
X246152057Y-119420535D02*
X246247295Y-119468154D01*
X246247295Y-119468154D02*
X246342533Y-119468154D01*
X246342533Y-119468154D02*
X246485390Y-119420535D01*
X246485390Y-119420535D02*
X247056819Y-118849107D01*
X247056819Y-118849107D02*
X247056819Y-119468154D01*
X86719319Y-61491964D02*
X85719319Y-61491964D01*
X85719319Y-61491964D02*
X85719319Y-61730059D01*
X85719319Y-61730059D02*
X85766938Y-61872916D01*
X85766938Y-61872916D02*
X85862176Y-61968154D01*
X85862176Y-61968154D02*
X85957414Y-62015773D01*
X85957414Y-62015773D02*
X86147890Y-62063392D01*
X86147890Y-62063392D02*
X86290747Y-62063392D01*
X86290747Y-62063392D02*
X86481223Y-62015773D01*
X86481223Y-62015773D02*
X86576461Y-61968154D01*
X86576461Y-61968154D02*
X86671700Y-61872916D01*
X86671700Y-61872916D02*
X86719319Y-61730059D01*
X86719319Y-61730059D02*
X86719319Y-61491964D01*
X86719319Y-63015773D02*
X86719319Y-62444345D01*
X86719319Y-62730059D02*
X85719319Y-62730059D01*
X85719319Y-62730059D02*
X85862176Y-62634821D01*
X85862176Y-62634821D02*
X85957414Y-62539583D01*
X85957414Y-62539583D02*
X86005033Y-62444345D01*
X85719319Y-63349107D02*
X85719319Y-64015773D01*
X85719319Y-64015773D02*
X86719319Y-63587202D01*
X266106819Y-61491964D02*
X265106819Y-61491964D01*
X265106819Y-61491964D02*
X265106819Y-61730059D01*
X265106819Y-61730059D02*
X265154438Y-61872916D01*
X265154438Y-61872916D02*
X265249676Y-61968154D01*
X265249676Y-61968154D02*
X265344914Y-62015773D01*
X265344914Y-62015773D02*
X265535390Y-62063392D01*
X265535390Y-62063392D02*
X265678247Y-62063392D01*
X265678247Y-62063392D02*
X265868723Y-62015773D01*
X265868723Y-62015773D02*
X265963961Y-61968154D01*
X265963961Y-61968154D02*
X266059200Y-61872916D01*
X266059200Y-61872916D02*
X266106819Y-61730059D01*
X266106819Y-61730059D02*
X266106819Y-61491964D01*
X265202057Y-62444345D02*
X265154438Y-62491964D01*
X265154438Y-62491964D02*
X265106819Y-62587202D01*
X265106819Y-62587202D02*
X265106819Y-62825297D01*
X265106819Y-62825297D02*
X265154438Y-62920535D01*
X265154438Y-62920535D02*
X265202057Y-62968154D01*
X265202057Y-62968154D02*
X265297295Y-63015773D01*
X265297295Y-63015773D02*
X265392533Y-63015773D01*
X265392533Y-63015773D02*
X265535390Y-62968154D01*
X265535390Y-62968154D02*
X266106819Y-62396726D01*
X266106819Y-62396726D02*
X266106819Y-63015773D01*
X265440152Y-63872916D02*
X266106819Y-63872916D01*
X265059200Y-63634821D02*
X265773485Y-63396726D01*
X265773485Y-63396726D02*
X265773485Y-64015773D01*
X285156819Y-120229464D02*
X284156819Y-120229464D01*
X284156819Y-120229464D02*
X284156819Y-120467559D01*
X284156819Y-120467559D02*
X284204438Y-120610416D01*
X284204438Y-120610416D02*
X284299676Y-120705654D01*
X284299676Y-120705654D02*
X284394914Y-120753273D01*
X284394914Y-120753273D02*
X284585390Y-120800892D01*
X284585390Y-120800892D02*
X284728247Y-120800892D01*
X284728247Y-120800892D02*
X284918723Y-120753273D01*
X284918723Y-120753273D02*
X285013961Y-120705654D01*
X285013961Y-120705654D02*
X285109200Y-120610416D01*
X285109200Y-120610416D02*
X285156819Y-120467559D01*
X285156819Y-120467559D02*
X285156819Y-120229464D01*
X284156819Y-121658035D02*
X284156819Y-121467559D01*
X284156819Y-121467559D02*
X284204438Y-121372321D01*
X284204438Y-121372321D02*
X284252057Y-121324702D01*
X284252057Y-121324702D02*
X284394914Y-121229464D01*
X284394914Y-121229464D02*
X284585390Y-121181845D01*
X284585390Y-121181845D02*
X284966342Y-121181845D01*
X284966342Y-121181845D02*
X285061580Y-121229464D01*
X285061580Y-121229464D02*
X285109200Y-121277083D01*
X285109200Y-121277083D02*
X285156819Y-121372321D01*
X285156819Y-121372321D02*
X285156819Y-121562797D01*
X285156819Y-121562797D02*
X285109200Y-121658035D01*
X285109200Y-121658035D02*
X285061580Y-121705654D01*
X285061580Y-121705654D02*
X284966342Y-121753273D01*
X284966342Y-121753273D02*
X284728247Y-121753273D01*
X284728247Y-121753273D02*
X284633009Y-121705654D01*
X284633009Y-121705654D02*
X284585390Y-121658035D01*
X284585390Y-121658035D02*
X284537771Y-121562797D01*
X284537771Y-121562797D02*
X284537771Y-121372321D01*
X284537771Y-121372321D02*
X284585390Y-121277083D01*
X284585390Y-121277083D02*
X284633009Y-121229464D01*
X284633009Y-121229464D02*
X284728247Y-121181845D01*
X284490152Y-122610416D02*
X285156819Y-122610416D01*
X284109200Y-122372321D02*
X284823485Y-122134226D01*
X284823485Y-122134226D02*
X284823485Y-122753273D01*
X208956819Y-82129464D02*
X207956819Y-82129464D01*
X207956819Y-82129464D02*
X207956819Y-82367559D01*
X207956819Y-82367559D02*
X208004438Y-82510416D01*
X208004438Y-82510416D02*
X208099676Y-82605654D01*
X208099676Y-82605654D02*
X208194914Y-82653273D01*
X208194914Y-82653273D02*
X208385390Y-82700892D01*
X208385390Y-82700892D02*
X208528247Y-82700892D01*
X208528247Y-82700892D02*
X208718723Y-82653273D01*
X208718723Y-82653273D02*
X208813961Y-82605654D01*
X208813961Y-82605654D02*
X208909200Y-82510416D01*
X208909200Y-82510416D02*
X208956819Y-82367559D01*
X208956819Y-82367559D02*
X208956819Y-82129464D01*
X207956819Y-83034226D02*
X207956819Y-83653273D01*
X207956819Y-83653273D02*
X208337771Y-83319940D01*
X208337771Y-83319940D02*
X208337771Y-83462797D01*
X208337771Y-83462797D02*
X208385390Y-83558035D01*
X208385390Y-83558035D02*
X208433009Y-83605654D01*
X208433009Y-83605654D02*
X208528247Y-83653273D01*
X208528247Y-83653273D02*
X208766342Y-83653273D01*
X208766342Y-83653273D02*
X208861580Y-83605654D01*
X208861580Y-83605654D02*
X208909200Y-83558035D01*
X208909200Y-83558035D02*
X208956819Y-83462797D01*
X208956819Y-83462797D02*
X208956819Y-83177083D01*
X208956819Y-83177083D02*
X208909200Y-83081845D01*
X208909200Y-83081845D02*
X208861580Y-83034226D01*
X207956819Y-84558035D02*
X207956819Y-84081845D01*
X207956819Y-84081845D02*
X208433009Y-84034226D01*
X208433009Y-84034226D02*
X208385390Y-84081845D01*
X208385390Y-84081845D02*
X208337771Y-84177083D01*
X208337771Y-84177083D02*
X208337771Y-84415178D01*
X208337771Y-84415178D02*
X208385390Y-84510416D01*
X208385390Y-84510416D02*
X208433009Y-84558035D01*
X208433009Y-84558035D02*
X208528247Y-84605654D01*
X208528247Y-84605654D02*
X208766342Y-84605654D01*
X208766342Y-84605654D02*
X208861580Y-84558035D01*
X208861580Y-84558035D02*
X208909200Y-84510416D01*
X208909200Y-84510416D02*
X208956819Y-84415178D01*
X208956819Y-84415178D02*
X208956819Y-84177083D01*
X208956819Y-84177083D02*
X208909200Y-84081845D01*
X208909200Y-84081845D02*
X208861580Y-84034226D01*
X266106819Y-118579464D02*
X265106819Y-118579464D01*
X265106819Y-118579464D02*
X265106819Y-118817559D01*
X265106819Y-118817559D02*
X265154438Y-118960416D01*
X265154438Y-118960416D02*
X265249676Y-119055654D01*
X265249676Y-119055654D02*
X265344914Y-119103273D01*
X265344914Y-119103273D02*
X265535390Y-119150892D01*
X265535390Y-119150892D02*
X265678247Y-119150892D01*
X265678247Y-119150892D02*
X265868723Y-119103273D01*
X265868723Y-119103273D02*
X265963961Y-119055654D01*
X265963961Y-119055654D02*
X266059200Y-118960416D01*
X266059200Y-118960416D02*
X266106819Y-118817559D01*
X266106819Y-118817559D02*
X266106819Y-118579464D01*
X265106819Y-120008035D02*
X265106819Y-119817559D01*
X265106819Y-119817559D02*
X265154438Y-119722321D01*
X265154438Y-119722321D02*
X265202057Y-119674702D01*
X265202057Y-119674702D02*
X265344914Y-119579464D01*
X265344914Y-119579464D02*
X265535390Y-119531845D01*
X265535390Y-119531845D02*
X265916342Y-119531845D01*
X265916342Y-119531845D02*
X266011580Y-119579464D01*
X266011580Y-119579464D02*
X266059200Y-119627083D01*
X266059200Y-119627083D02*
X266106819Y-119722321D01*
X266106819Y-119722321D02*
X266106819Y-119912797D01*
X266106819Y-119912797D02*
X266059200Y-120008035D01*
X266059200Y-120008035D02*
X266011580Y-120055654D01*
X266011580Y-120055654D02*
X265916342Y-120103273D01*
X265916342Y-120103273D02*
X265678247Y-120103273D01*
X265678247Y-120103273D02*
X265583009Y-120055654D01*
X265583009Y-120055654D02*
X265535390Y-120008035D01*
X265535390Y-120008035D02*
X265487771Y-119912797D01*
X265487771Y-119912797D02*
X265487771Y-119722321D01*
X265487771Y-119722321D02*
X265535390Y-119627083D01*
X265535390Y-119627083D02*
X265583009Y-119579464D01*
X265583009Y-119579464D02*
X265678247Y-119531845D01*
X265106819Y-120436607D02*
X265106819Y-121055654D01*
X265106819Y-121055654D02*
X265487771Y-120722321D01*
X265487771Y-120722321D02*
X265487771Y-120865178D01*
X265487771Y-120865178D02*
X265535390Y-120960416D01*
X265535390Y-120960416D02*
X265583009Y-121008035D01*
X265583009Y-121008035D02*
X265678247Y-121055654D01*
X265678247Y-121055654D02*
X265916342Y-121055654D01*
X265916342Y-121055654D02*
X266011580Y-121008035D01*
X266011580Y-121008035D02*
X266059200Y-120960416D01*
X266059200Y-120960416D02*
X266106819Y-120865178D01*
X266106819Y-120865178D02*
X266106819Y-120579464D01*
X266106819Y-120579464D02*
X266059200Y-120484226D01*
X266059200Y-120484226D02*
X266011580Y-120436607D01*
X208956819Y-44443155D02*
X207956819Y-44443155D01*
X207956819Y-44443155D02*
X207956819Y-44681250D01*
X207956819Y-44681250D02*
X208004438Y-44824107D01*
X208004438Y-44824107D02*
X208099676Y-44919345D01*
X208099676Y-44919345D02*
X208194914Y-44966964D01*
X208194914Y-44966964D02*
X208385390Y-45014583D01*
X208385390Y-45014583D02*
X208528247Y-45014583D01*
X208528247Y-45014583D02*
X208718723Y-44966964D01*
X208718723Y-44966964D02*
X208813961Y-44919345D01*
X208813961Y-44919345D02*
X208909200Y-44824107D01*
X208909200Y-44824107D02*
X208956819Y-44681250D01*
X208956819Y-44681250D02*
X208956819Y-44443155D01*
X207956819Y-45347917D02*
X207956819Y-46014583D01*
X207956819Y-46014583D02*
X208956819Y-45586012D01*
X228006819Y-118641964D02*
X227006819Y-118641964D01*
X227006819Y-118641964D02*
X227006819Y-118880059D01*
X227006819Y-118880059D02*
X227054438Y-119022916D01*
X227054438Y-119022916D02*
X227149676Y-119118154D01*
X227149676Y-119118154D02*
X227244914Y-119165773D01*
X227244914Y-119165773D02*
X227435390Y-119213392D01*
X227435390Y-119213392D02*
X227578247Y-119213392D01*
X227578247Y-119213392D02*
X227768723Y-119165773D01*
X227768723Y-119165773D02*
X227863961Y-119118154D01*
X227863961Y-119118154D02*
X227959200Y-119022916D01*
X227959200Y-119022916D02*
X228006819Y-118880059D01*
X228006819Y-118880059D02*
X228006819Y-118641964D01*
X227006819Y-120070535D02*
X227006819Y-119880059D01*
X227006819Y-119880059D02*
X227054438Y-119784821D01*
X227054438Y-119784821D02*
X227102057Y-119737202D01*
X227102057Y-119737202D02*
X227244914Y-119641964D01*
X227244914Y-119641964D02*
X227435390Y-119594345D01*
X227435390Y-119594345D02*
X227816342Y-119594345D01*
X227816342Y-119594345D02*
X227911580Y-119641964D01*
X227911580Y-119641964D02*
X227959200Y-119689583D01*
X227959200Y-119689583D02*
X228006819Y-119784821D01*
X228006819Y-119784821D02*
X228006819Y-119975297D01*
X228006819Y-119975297D02*
X227959200Y-120070535D01*
X227959200Y-120070535D02*
X227911580Y-120118154D01*
X227911580Y-120118154D02*
X227816342Y-120165773D01*
X227816342Y-120165773D02*
X227578247Y-120165773D01*
X227578247Y-120165773D02*
X227483009Y-120118154D01*
X227483009Y-120118154D02*
X227435390Y-120070535D01*
X227435390Y-120070535D02*
X227387771Y-119975297D01*
X227387771Y-119975297D02*
X227387771Y-119784821D01*
X227387771Y-119784821D02*
X227435390Y-119689583D01*
X227435390Y-119689583D02*
X227483009Y-119641964D01*
X227483009Y-119641964D02*
X227578247Y-119594345D01*
X228006819Y-121118154D02*
X228006819Y-120546726D01*
X228006819Y-120832440D02*
X227006819Y-120832440D01*
X227006819Y-120832440D02*
X227149676Y-120737202D01*
X227149676Y-120737202D02*
X227244914Y-120641964D01*
X227244914Y-120641964D02*
X227292533Y-120546726D01*
X204194319Y-120229464D02*
X203194319Y-120229464D01*
X203194319Y-120229464D02*
X203194319Y-120467559D01*
X203194319Y-120467559D02*
X203241938Y-120610416D01*
X203241938Y-120610416D02*
X203337176Y-120705654D01*
X203337176Y-120705654D02*
X203432414Y-120753273D01*
X203432414Y-120753273D02*
X203622890Y-120800892D01*
X203622890Y-120800892D02*
X203765747Y-120800892D01*
X203765747Y-120800892D02*
X203956223Y-120753273D01*
X203956223Y-120753273D02*
X204051461Y-120705654D01*
X204051461Y-120705654D02*
X204146700Y-120610416D01*
X204146700Y-120610416D02*
X204194319Y-120467559D01*
X204194319Y-120467559D02*
X204194319Y-120229464D01*
X203194319Y-121658035D02*
X203194319Y-121467559D01*
X203194319Y-121467559D02*
X203241938Y-121372321D01*
X203241938Y-121372321D02*
X203289557Y-121324702D01*
X203289557Y-121324702D02*
X203432414Y-121229464D01*
X203432414Y-121229464D02*
X203622890Y-121181845D01*
X203622890Y-121181845D02*
X204003842Y-121181845D01*
X204003842Y-121181845D02*
X204099080Y-121229464D01*
X204099080Y-121229464D02*
X204146700Y-121277083D01*
X204146700Y-121277083D02*
X204194319Y-121372321D01*
X204194319Y-121372321D02*
X204194319Y-121562797D01*
X204194319Y-121562797D02*
X204146700Y-121658035D01*
X204146700Y-121658035D02*
X204099080Y-121705654D01*
X204099080Y-121705654D02*
X204003842Y-121753273D01*
X204003842Y-121753273D02*
X203765747Y-121753273D01*
X203765747Y-121753273D02*
X203670509Y-121705654D01*
X203670509Y-121705654D02*
X203622890Y-121658035D01*
X203622890Y-121658035D02*
X203575271Y-121562797D01*
X203575271Y-121562797D02*
X203575271Y-121372321D01*
X203575271Y-121372321D02*
X203622890Y-121277083D01*
X203622890Y-121277083D02*
X203670509Y-121229464D01*
X203670509Y-121229464D02*
X203765747Y-121181845D01*
X203194319Y-122372321D02*
X203194319Y-122467559D01*
X203194319Y-122467559D02*
X203241938Y-122562797D01*
X203241938Y-122562797D02*
X203289557Y-122610416D01*
X203289557Y-122610416D02*
X203384795Y-122658035D01*
X203384795Y-122658035D02*
X203575271Y-122705654D01*
X203575271Y-122705654D02*
X203813366Y-122705654D01*
X203813366Y-122705654D02*
X204003842Y-122658035D01*
X204003842Y-122658035D02*
X204099080Y-122610416D01*
X204099080Y-122610416D02*
X204146700Y-122562797D01*
X204146700Y-122562797D02*
X204194319Y-122467559D01*
X204194319Y-122467559D02*
X204194319Y-122372321D01*
X204194319Y-122372321D02*
X204146700Y-122277083D01*
X204146700Y-122277083D02*
X204099080Y-122229464D01*
X204099080Y-122229464D02*
X204003842Y-122181845D01*
X204003842Y-122181845D02*
X203813366Y-122134226D01*
X203813366Y-122134226D02*
X203575271Y-122134226D01*
X203575271Y-122134226D02*
X203384795Y-122181845D01*
X203384795Y-122181845D02*
X203289557Y-122229464D01*
X203289557Y-122229464D02*
X203241938Y-122277083D01*
X203241938Y-122277083D02*
X203194319Y-122372321D01*
X143869319Y-63079464D02*
X142869319Y-63079464D01*
X142869319Y-63079464D02*
X142869319Y-63317559D01*
X142869319Y-63317559D02*
X142916938Y-63460416D01*
X142916938Y-63460416D02*
X143012176Y-63555654D01*
X143012176Y-63555654D02*
X143107414Y-63603273D01*
X143107414Y-63603273D02*
X143297890Y-63650892D01*
X143297890Y-63650892D02*
X143440747Y-63650892D01*
X143440747Y-63650892D02*
X143631223Y-63603273D01*
X143631223Y-63603273D02*
X143726461Y-63555654D01*
X143726461Y-63555654D02*
X143821700Y-63460416D01*
X143821700Y-63460416D02*
X143869319Y-63317559D01*
X143869319Y-63317559D02*
X143869319Y-63079464D01*
X142964557Y-64031845D02*
X142916938Y-64079464D01*
X142916938Y-64079464D02*
X142869319Y-64174702D01*
X142869319Y-64174702D02*
X142869319Y-64412797D01*
X142869319Y-64412797D02*
X142916938Y-64508035D01*
X142916938Y-64508035D02*
X142964557Y-64555654D01*
X142964557Y-64555654D02*
X143059795Y-64603273D01*
X143059795Y-64603273D02*
X143155033Y-64603273D01*
X143155033Y-64603273D02*
X143297890Y-64555654D01*
X143297890Y-64555654D02*
X143869319Y-63984226D01*
X143869319Y-63984226D02*
X143869319Y-64603273D01*
X142869319Y-65222321D02*
X142869319Y-65317559D01*
X142869319Y-65317559D02*
X142916938Y-65412797D01*
X142916938Y-65412797D02*
X142964557Y-65460416D01*
X142964557Y-65460416D02*
X143059795Y-65508035D01*
X143059795Y-65508035D02*
X143250271Y-65555654D01*
X143250271Y-65555654D02*
X143488366Y-65555654D01*
X143488366Y-65555654D02*
X143678842Y-65508035D01*
X143678842Y-65508035D02*
X143774080Y-65460416D01*
X143774080Y-65460416D02*
X143821700Y-65412797D01*
X143821700Y-65412797D02*
X143869319Y-65317559D01*
X143869319Y-65317559D02*
X143869319Y-65222321D01*
X143869319Y-65222321D02*
X143821700Y-65127083D01*
X143821700Y-65127083D02*
X143774080Y-65079464D01*
X143774080Y-65079464D02*
X143678842Y-65031845D01*
X143678842Y-65031845D02*
X143488366Y-64984226D01*
X143488366Y-64984226D02*
X143250271Y-64984226D01*
X143250271Y-64984226D02*
X143059795Y-65031845D01*
X143059795Y-65031845D02*
X142964557Y-65079464D01*
X142964557Y-65079464D02*
X142916938Y-65127083D01*
X142916938Y-65127083D02*
X142869319Y-65222321D01*
X266106819Y-99529464D02*
X265106819Y-99529464D01*
X265106819Y-99529464D02*
X265106819Y-99767559D01*
X265106819Y-99767559D02*
X265154438Y-99910416D01*
X265154438Y-99910416D02*
X265249676Y-100005654D01*
X265249676Y-100005654D02*
X265344914Y-100053273D01*
X265344914Y-100053273D02*
X265535390Y-100100892D01*
X265535390Y-100100892D02*
X265678247Y-100100892D01*
X265678247Y-100100892D02*
X265868723Y-100053273D01*
X265868723Y-100053273D02*
X265963961Y-100005654D01*
X265963961Y-100005654D02*
X266059200Y-99910416D01*
X266059200Y-99910416D02*
X266106819Y-99767559D01*
X266106819Y-99767559D02*
X266106819Y-99529464D01*
X265106819Y-101005654D02*
X265106819Y-100529464D01*
X265106819Y-100529464D02*
X265583009Y-100481845D01*
X265583009Y-100481845D02*
X265535390Y-100529464D01*
X265535390Y-100529464D02*
X265487771Y-100624702D01*
X265487771Y-100624702D02*
X265487771Y-100862797D01*
X265487771Y-100862797D02*
X265535390Y-100958035D01*
X265535390Y-100958035D02*
X265583009Y-101005654D01*
X265583009Y-101005654D02*
X265678247Y-101053273D01*
X265678247Y-101053273D02*
X265916342Y-101053273D01*
X265916342Y-101053273D02*
X266011580Y-101005654D01*
X266011580Y-101005654D02*
X266059200Y-100958035D01*
X266059200Y-100958035D02*
X266106819Y-100862797D01*
X266106819Y-100862797D02*
X266106819Y-100624702D01*
X266106819Y-100624702D02*
X266059200Y-100529464D01*
X266059200Y-100529464D02*
X266011580Y-100481845D01*
X266106819Y-102005654D02*
X266106819Y-101434226D01*
X266106819Y-101719940D02*
X265106819Y-101719940D01*
X265106819Y-101719940D02*
X265249676Y-101624702D01*
X265249676Y-101624702D02*
X265344914Y-101529464D01*
X265344914Y-101529464D02*
X265392533Y-101434226D01*
X67669319Y-101116964D02*
X66669319Y-101116964D01*
X66669319Y-101116964D02*
X66669319Y-101355059D01*
X66669319Y-101355059D02*
X66716938Y-101497916D01*
X66716938Y-101497916D02*
X66812176Y-101593154D01*
X66812176Y-101593154D02*
X66907414Y-101640773D01*
X66907414Y-101640773D02*
X67097890Y-101688392D01*
X67097890Y-101688392D02*
X67240747Y-101688392D01*
X67240747Y-101688392D02*
X67431223Y-101640773D01*
X67431223Y-101640773D02*
X67526461Y-101593154D01*
X67526461Y-101593154D02*
X67621700Y-101497916D01*
X67621700Y-101497916D02*
X67669319Y-101355059D01*
X67669319Y-101355059D02*
X67669319Y-101116964D01*
X67002652Y-102545535D02*
X67669319Y-102545535D01*
X66621700Y-102307440D02*
X67335985Y-102069345D01*
X67335985Y-102069345D02*
X67335985Y-102688392D01*
X66669319Y-102974107D02*
X66669319Y-103593154D01*
X66669319Y-103593154D02*
X67050271Y-103259821D01*
X67050271Y-103259821D02*
X67050271Y-103402678D01*
X67050271Y-103402678D02*
X67097890Y-103497916D01*
X67097890Y-103497916D02*
X67145509Y-103545535D01*
X67145509Y-103545535D02*
X67240747Y-103593154D01*
X67240747Y-103593154D02*
X67478842Y-103593154D01*
X67478842Y-103593154D02*
X67574080Y-103545535D01*
X67574080Y-103545535D02*
X67621700Y-103497916D01*
X67621700Y-103497916D02*
X67669319Y-103402678D01*
X67669319Y-103402678D02*
X67669319Y-103116964D01*
X67669319Y-103116964D02*
X67621700Y-103021726D01*
X67621700Y-103021726D02*
X67574080Y-102974107D01*
X304206819Y-120229464D02*
X303206819Y-120229464D01*
X303206819Y-120229464D02*
X303206819Y-120467559D01*
X303206819Y-120467559D02*
X303254438Y-120610416D01*
X303254438Y-120610416D02*
X303349676Y-120705654D01*
X303349676Y-120705654D02*
X303444914Y-120753273D01*
X303444914Y-120753273D02*
X303635390Y-120800892D01*
X303635390Y-120800892D02*
X303778247Y-120800892D01*
X303778247Y-120800892D02*
X303968723Y-120753273D01*
X303968723Y-120753273D02*
X304063961Y-120705654D01*
X304063961Y-120705654D02*
X304159200Y-120610416D01*
X304159200Y-120610416D02*
X304206819Y-120467559D01*
X304206819Y-120467559D02*
X304206819Y-120229464D01*
X303206819Y-121658035D02*
X303206819Y-121467559D01*
X303206819Y-121467559D02*
X303254438Y-121372321D01*
X303254438Y-121372321D02*
X303302057Y-121324702D01*
X303302057Y-121324702D02*
X303444914Y-121229464D01*
X303444914Y-121229464D02*
X303635390Y-121181845D01*
X303635390Y-121181845D02*
X304016342Y-121181845D01*
X304016342Y-121181845D02*
X304111580Y-121229464D01*
X304111580Y-121229464D02*
X304159200Y-121277083D01*
X304159200Y-121277083D02*
X304206819Y-121372321D01*
X304206819Y-121372321D02*
X304206819Y-121562797D01*
X304206819Y-121562797D02*
X304159200Y-121658035D01*
X304159200Y-121658035D02*
X304111580Y-121705654D01*
X304111580Y-121705654D02*
X304016342Y-121753273D01*
X304016342Y-121753273D02*
X303778247Y-121753273D01*
X303778247Y-121753273D02*
X303683009Y-121705654D01*
X303683009Y-121705654D02*
X303635390Y-121658035D01*
X303635390Y-121658035D02*
X303587771Y-121562797D01*
X303587771Y-121562797D02*
X303587771Y-121372321D01*
X303587771Y-121372321D02*
X303635390Y-121277083D01*
X303635390Y-121277083D02*
X303683009Y-121229464D01*
X303683009Y-121229464D02*
X303778247Y-121181845D01*
X303206819Y-122658035D02*
X303206819Y-122181845D01*
X303206819Y-122181845D02*
X303683009Y-122134226D01*
X303683009Y-122134226D02*
X303635390Y-122181845D01*
X303635390Y-122181845D02*
X303587771Y-122277083D01*
X303587771Y-122277083D02*
X303587771Y-122515178D01*
X303587771Y-122515178D02*
X303635390Y-122610416D01*
X303635390Y-122610416D02*
X303683009Y-122658035D01*
X303683009Y-122658035D02*
X303778247Y-122705654D01*
X303778247Y-122705654D02*
X304016342Y-122705654D01*
X304016342Y-122705654D02*
X304111580Y-122658035D01*
X304111580Y-122658035D02*
X304159200Y-122610416D01*
X304159200Y-122610416D02*
X304206819Y-122515178D01*
X304206819Y-122515178D02*
X304206819Y-122277083D01*
X304206819Y-122277083D02*
X304159200Y-122181845D01*
X304159200Y-122181845D02*
X304111580Y-122134226D01*
X148631819Y-120229464D02*
X147631819Y-120229464D01*
X147631819Y-120229464D02*
X147631819Y-120467559D01*
X147631819Y-120467559D02*
X147679438Y-120610416D01*
X147679438Y-120610416D02*
X147774676Y-120705654D01*
X147774676Y-120705654D02*
X147869914Y-120753273D01*
X147869914Y-120753273D02*
X148060390Y-120800892D01*
X148060390Y-120800892D02*
X148203247Y-120800892D01*
X148203247Y-120800892D02*
X148393723Y-120753273D01*
X148393723Y-120753273D02*
X148488961Y-120705654D01*
X148488961Y-120705654D02*
X148584200Y-120610416D01*
X148584200Y-120610416D02*
X148631819Y-120467559D01*
X148631819Y-120467559D02*
X148631819Y-120229464D01*
X147631819Y-121705654D02*
X147631819Y-121229464D01*
X147631819Y-121229464D02*
X148108009Y-121181845D01*
X148108009Y-121181845D02*
X148060390Y-121229464D01*
X148060390Y-121229464D02*
X148012771Y-121324702D01*
X148012771Y-121324702D02*
X148012771Y-121562797D01*
X148012771Y-121562797D02*
X148060390Y-121658035D01*
X148060390Y-121658035D02*
X148108009Y-121705654D01*
X148108009Y-121705654D02*
X148203247Y-121753273D01*
X148203247Y-121753273D02*
X148441342Y-121753273D01*
X148441342Y-121753273D02*
X148536580Y-121705654D01*
X148536580Y-121705654D02*
X148584200Y-121658035D01*
X148584200Y-121658035D02*
X148631819Y-121562797D01*
X148631819Y-121562797D02*
X148631819Y-121324702D01*
X148631819Y-121324702D02*
X148584200Y-121229464D01*
X148584200Y-121229464D02*
X148536580Y-121181845D01*
X148631819Y-122229464D02*
X148631819Y-122419940D01*
X148631819Y-122419940D02*
X148584200Y-122515178D01*
X148584200Y-122515178D02*
X148536580Y-122562797D01*
X148536580Y-122562797D02*
X148393723Y-122658035D01*
X148393723Y-122658035D02*
X148203247Y-122705654D01*
X148203247Y-122705654D02*
X147822295Y-122705654D01*
X147822295Y-122705654D02*
X147727057Y-122658035D01*
X147727057Y-122658035D02*
X147679438Y-122610416D01*
X147679438Y-122610416D02*
X147631819Y-122515178D01*
X147631819Y-122515178D02*
X147631819Y-122324702D01*
X147631819Y-122324702D02*
X147679438Y-122229464D01*
X147679438Y-122229464D02*
X147727057Y-122181845D01*
X147727057Y-122181845D02*
X147822295Y-122134226D01*
X147822295Y-122134226D02*
X148060390Y-122134226D01*
X148060390Y-122134226D02*
X148155628Y-122181845D01*
X148155628Y-122181845D02*
X148203247Y-122229464D01*
X148203247Y-122229464D02*
X148250866Y-122324702D01*
X148250866Y-122324702D02*
X148250866Y-122515178D01*
X148250866Y-122515178D02*
X148203247Y-122610416D01*
X148203247Y-122610416D02*
X148155628Y-122658035D01*
X148155628Y-122658035D02*
X148060390Y-122705654D01*
X266106819Y-42441964D02*
X265106819Y-42441964D01*
X265106819Y-42441964D02*
X265106819Y-42680059D01*
X265106819Y-42680059D02*
X265154438Y-42822916D01*
X265154438Y-42822916D02*
X265249676Y-42918154D01*
X265249676Y-42918154D02*
X265344914Y-42965773D01*
X265344914Y-42965773D02*
X265535390Y-43013392D01*
X265535390Y-43013392D02*
X265678247Y-43013392D01*
X265678247Y-43013392D02*
X265868723Y-42965773D01*
X265868723Y-42965773D02*
X265963961Y-42918154D01*
X265963961Y-42918154D02*
X266059200Y-42822916D01*
X266059200Y-42822916D02*
X266106819Y-42680059D01*
X266106819Y-42680059D02*
X266106819Y-42441964D01*
X266106819Y-43965773D02*
X266106819Y-43394345D01*
X266106819Y-43680059D02*
X265106819Y-43680059D01*
X265106819Y-43680059D02*
X265249676Y-43584821D01*
X265249676Y-43584821D02*
X265344914Y-43489583D01*
X265344914Y-43489583D02*
X265392533Y-43394345D01*
X265106819Y-44584821D02*
X265106819Y-44680059D01*
X265106819Y-44680059D02*
X265154438Y-44775297D01*
X265154438Y-44775297D02*
X265202057Y-44822916D01*
X265202057Y-44822916D02*
X265297295Y-44870535D01*
X265297295Y-44870535D02*
X265487771Y-44918154D01*
X265487771Y-44918154D02*
X265725866Y-44918154D01*
X265725866Y-44918154D02*
X265916342Y-44870535D01*
X265916342Y-44870535D02*
X266011580Y-44822916D01*
X266011580Y-44822916D02*
X266059200Y-44775297D01*
X266059200Y-44775297D02*
X266106819Y-44680059D01*
X266106819Y-44680059D02*
X266106819Y-44584821D01*
X266106819Y-44584821D02*
X266059200Y-44489583D01*
X266059200Y-44489583D02*
X266011580Y-44441964D01*
X266011580Y-44441964D02*
X265916342Y-44394345D01*
X265916342Y-44394345D02*
X265725866Y-44346726D01*
X265725866Y-44346726D02*
X265487771Y-44346726D01*
X265487771Y-44346726D02*
X265297295Y-44394345D01*
X265297295Y-44394345D02*
X265202057Y-44441964D01*
X265202057Y-44441964D02*
X265154438Y-44489583D01*
X265154438Y-44489583D02*
X265106819Y-44584821D01*
X124819319Y-42980655D02*
X123819319Y-42980655D01*
X123819319Y-42980655D02*
X123819319Y-43218750D01*
X123819319Y-43218750D02*
X123866938Y-43361607D01*
X123866938Y-43361607D02*
X123962176Y-43456845D01*
X123962176Y-43456845D02*
X124057414Y-43504464D01*
X124057414Y-43504464D02*
X124247890Y-43552083D01*
X124247890Y-43552083D02*
X124390747Y-43552083D01*
X124390747Y-43552083D02*
X124581223Y-43504464D01*
X124581223Y-43504464D02*
X124676461Y-43456845D01*
X124676461Y-43456845D02*
X124771700Y-43361607D01*
X124771700Y-43361607D02*
X124819319Y-43218750D01*
X124819319Y-43218750D02*
X124819319Y-42980655D01*
X123819319Y-44456845D02*
X123819319Y-43980655D01*
X123819319Y-43980655D02*
X124295509Y-43933036D01*
X124295509Y-43933036D02*
X124247890Y-43980655D01*
X124247890Y-43980655D02*
X124200271Y-44075893D01*
X124200271Y-44075893D02*
X124200271Y-44313988D01*
X124200271Y-44313988D02*
X124247890Y-44409226D01*
X124247890Y-44409226D02*
X124295509Y-44456845D01*
X124295509Y-44456845D02*
X124390747Y-44504464D01*
X124390747Y-44504464D02*
X124628842Y-44504464D01*
X124628842Y-44504464D02*
X124724080Y-44456845D01*
X124724080Y-44456845D02*
X124771700Y-44409226D01*
X124771700Y-44409226D02*
X124819319Y-44313988D01*
X124819319Y-44313988D02*
X124819319Y-44075893D01*
X124819319Y-44075893D02*
X124771700Y-43980655D01*
X124771700Y-43980655D02*
X124724080Y-43933036D01*
X247056819Y-59904464D02*
X246056819Y-59904464D01*
X246056819Y-59904464D02*
X246056819Y-60142559D01*
X246056819Y-60142559D02*
X246104438Y-60285416D01*
X246104438Y-60285416D02*
X246199676Y-60380654D01*
X246199676Y-60380654D02*
X246294914Y-60428273D01*
X246294914Y-60428273D02*
X246485390Y-60475892D01*
X246485390Y-60475892D02*
X246628247Y-60475892D01*
X246628247Y-60475892D02*
X246818723Y-60428273D01*
X246818723Y-60428273D02*
X246913961Y-60380654D01*
X246913961Y-60380654D02*
X247009200Y-60285416D01*
X247009200Y-60285416D02*
X247056819Y-60142559D01*
X247056819Y-60142559D02*
X247056819Y-59904464D01*
X246152057Y-60856845D02*
X246104438Y-60904464D01*
X246104438Y-60904464D02*
X246056819Y-60999702D01*
X246056819Y-60999702D02*
X246056819Y-61237797D01*
X246056819Y-61237797D02*
X246104438Y-61333035D01*
X246104438Y-61333035D02*
X246152057Y-61380654D01*
X246152057Y-61380654D02*
X246247295Y-61428273D01*
X246247295Y-61428273D02*
X246342533Y-61428273D01*
X246342533Y-61428273D02*
X246485390Y-61380654D01*
X246485390Y-61380654D02*
X247056819Y-60809226D01*
X247056819Y-60809226D02*
X247056819Y-61428273D01*
X246056819Y-61761607D02*
X246056819Y-62380654D01*
X246056819Y-62380654D02*
X246437771Y-62047321D01*
X246437771Y-62047321D02*
X246437771Y-62190178D01*
X246437771Y-62190178D02*
X246485390Y-62285416D01*
X246485390Y-62285416D02*
X246533009Y-62333035D01*
X246533009Y-62333035D02*
X246628247Y-62380654D01*
X246628247Y-62380654D02*
X246866342Y-62380654D01*
X246866342Y-62380654D02*
X246961580Y-62333035D01*
X246961580Y-62333035D02*
X247009200Y-62285416D01*
X247009200Y-62285416D02*
X247056819Y-62190178D01*
X247056819Y-62190178D02*
X247056819Y-61904464D01*
X247056819Y-61904464D02*
X247009200Y-61809226D01*
X247009200Y-61809226D02*
X246961580Y-61761607D01*
X285156819Y-63079464D02*
X284156819Y-63079464D01*
X284156819Y-63079464D02*
X284156819Y-63317559D01*
X284156819Y-63317559D02*
X284204438Y-63460416D01*
X284204438Y-63460416D02*
X284299676Y-63555654D01*
X284299676Y-63555654D02*
X284394914Y-63603273D01*
X284394914Y-63603273D02*
X284585390Y-63650892D01*
X284585390Y-63650892D02*
X284728247Y-63650892D01*
X284728247Y-63650892D02*
X284918723Y-63603273D01*
X284918723Y-63603273D02*
X285013961Y-63555654D01*
X285013961Y-63555654D02*
X285109200Y-63460416D01*
X285109200Y-63460416D02*
X285156819Y-63317559D01*
X285156819Y-63317559D02*
X285156819Y-63079464D01*
X284252057Y-64031845D02*
X284204438Y-64079464D01*
X284204438Y-64079464D02*
X284156819Y-64174702D01*
X284156819Y-64174702D02*
X284156819Y-64412797D01*
X284156819Y-64412797D02*
X284204438Y-64508035D01*
X284204438Y-64508035D02*
X284252057Y-64555654D01*
X284252057Y-64555654D02*
X284347295Y-64603273D01*
X284347295Y-64603273D02*
X284442533Y-64603273D01*
X284442533Y-64603273D02*
X284585390Y-64555654D01*
X284585390Y-64555654D02*
X285156819Y-63984226D01*
X285156819Y-63984226D02*
X285156819Y-64603273D01*
X284156819Y-65508035D02*
X284156819Y-65031845D01*
X284156819Y-65031845D02*
X284633009Y-64984226D01*
X284633009Y-64984226D02*
X284585390Y-65031845D01*
X284585390Y-65031845D02*
X284537771Y-65127083D01*
X284537771Y-65127083D02*
X284537771Y-65365178D01*
X284537771Y-65365178D02*
X284585390Y-65460416D01*
X284585390Y-65460416D02*
X284633009Y-65508035D01*
X284633009Y-65508035D02*
X284728247Y-65555654D01*
X284728247Y-65555654D02*
X284966342Y-65555654D01*
X284966342Y-65555654D02*
X285061580Y-65508035D01*
X285061580Y-65508035D02*
X285109200Y-65460416D01*
X285109200Y-65460416D02*
X285156819Y-65365178D01*
X285156819Y-65365178D02*
X285156819Y-65127083D01*
X285156819Y-65127083D02*
X285109200Y-65031845D01*
X285109200Y-65031845D02*
X285061580Y-64984226D01*
X304206819Y-43966964D02*
X303206819Y-43966964D01*
X303206819Y-43966964D02*
X303206819Y-44205059D01*
X303206819Y-44205059D02*
X303254438Y-44347916D01*
X303254438Y-44347916D02*
X303349676Y-44443154D01*
X303349676Y-44443154D02*
X303444914Y-44490773D01*
X303444914Y-44490773D02*
X303635390Y-44538392D01*
X303635390Y-44538392D02*
X303778247Y-44538392D01*
X303778247Y-44538392D02*
X303968723Y-44490773D01*
X303968723Y-44490773D02*
X304063961Y-44443154D01*
X304063961Y-44443154D02*
X304159200Y-44347916D01*
X304159200Y-44347916D02*
X304206819Y-44205059D01*
X304206819Y-44205059D02*
X304206819Y-43966964D01*
X304206819Y-45490773D02*
X304206819Y-44919345D01*
X304206819Y-45205059D02*
X303206819Y-45205059D01*
X303206819Y-45205059D02*
X303349676Y-45109821D01*
X303349676Y-45109821D02*
X303444914Y-45014583D01*
X303444914Y-45014583D02*
X303492533Y-44919345D01*
X303302057Y-45871726D02*
X303254438Y-45919345D01*
X303254438Y-45919345D02*
X303206819Y-46014583D01*
X303206819Y-46014583D02*
X303206819Y-46252678D01*
X303206819Y-46252678D02*
X303254438Y-46347916D01*
X303254438Y-46347916D02*
X303302057Y-46395535D01*
X303302057Y-46395535D02*
X303397295Y-46443154D01*
X303397295Y-46443154D02*
X303492533Y-46443154D01*
X303492533Y-46443154D02*
X303635390Y-46395535D01*
X303635390Y-46395535D02*
X304206819Y-45824107D01*
X304206819Y-45824107D02*
X304206819Y-46443154D01*
X323256819Y-44029464D02*
X322256819Y-44029464D01*
X322256819Y-44029464D02*
X322256819Y-44267559D01*
X322256819Y-44267559D02*
X322304438Y-44410416D01*
X322304438Y-44410416D02*
X322399676Y-44505654D01*
X322399676Y-44505654D02*
X322494914Y-44553273D01*
X322494914Y-44553273D02*
X322685390Y-44600892D01*
X322685390Y-44600892D02*
X322828247Y-44600892D01*
X322828247Y-44600892D02*
X323018723Y-44553273D01*
X323018723Y-44553273D02*
X323113961Y-44505654D01*
X323113961Y-44505654D02*
X323209200Y-44410416D01*
X323209200Y-44410416D02*
X323256819Y-44267559D01*
X323256819Y-44267559D02*
X323256819Y-44029464D01*
X323256819Y-45553273D02*
X323256819Y-44981845D01*
X323256819Y-45267559D02*
X322256819Y-45267559D01*
X322256819Y-45267559D02*
X322399676Y-45172321D01*
X322399676Y-45172321D02*
X322494914Y-45077083D01*
X322494914Y-45077083D02*
X322542533Y-44981845D01*
X322256819Y-45886607D02*
X322256819Y-46505654D01*
X322256819Y-46505654D02*
X322637771Y-46172321D01*
X322637771Y-46172321D02*
X322637771Y-46315178D01*
X322637771Y-46315178D02*
X322685390Y-46410416D01*
X322685390Y-46410416D02*
X322733009Y-46458035D01*
X322733009Y-46458035D02*
X322828247Y-46505654D01*
X322828247Y-46505654D02*
X323066342Y-46505654D01*
X323066342Y-46505654D02*
X323161580Y-46458035D01*
X323161580Y-46458035D02*
X323209200Y-46410416D01*
X323209200Y-46410416D02*
X323256819Y-46315178D01*
X323256819Y-46315178D02*
X323256819Y-46029464D01*
X323256819Y-46029464D02*
X323209200Y-45934226D01*
X323209200Y-45934226D02*
X323161580Y-45886607D01*
X67669319Y-63079464D02*
X66669319Y-63079464D01*
X66669319Y-63079464D02*
X66669319Y-63317559D01*
X66669319Y-63317559D02*
X66716938Y-63460416D01*
X66716938Y-63460416D02*
X66812176Y-63555654D01*
X66812176Y-63555654D02*
X66907414Y-63603273D01*
X66907414Y-63603273D02*
X67097890Y-63650892D01*
X67097890Y-63650892D02*
X67240747Y-63650892D01*
X67240747Y-63650892D02*
X67431223Y-63603273D01*
X67431223Y-63603273D02*
X67526461Y-63555654D01*
X67526461Y-63555654D02*
X67621700Y-63460416D01*
X67621700Y-63460416D02*
X67669319Y-63317559D01*
X67669319Y-63317559D02*
X67669319Y-63079464D01*
X67669319Y-64603273D02*
X67669319Y-64031845D01*
X67669319Y-64317559D02*
X66669319Y-64317559D01*
X66669319Y-64317559D02*
X66812176Y-64222321D01*
X66812176Y-64222321D02*
X66907414Y-64127083D01*
X66907414Y-64127083D02*
X66955033Y-64031845D01*
X66669319Y-65460416D02*
X66669319Y-65269940D01*
X66669319Y-65269940D02*
X66716938Y-65174702D01*
X66716938Y-65174702D02*
X66764557Y-65127083D01*
X66764557Y-65127083D02*
X66907414Y-65031845D01*
X66907414Y-65031845D02*
X67097890Y-64984226D01*
X67097890Y-64984226D02*
X67478842Y-64984226D01*
X67478842Y-64984226D02*
X67574080Y-65031845D01*
X67574080Y-65031845D02*
X67621700Y-65079464D01*
X67621700Y-65079464D02*
X67669319Y-65174702D01*
X67669319Y-65174702D02*
X67669319Y-65365178D01*
X67669319Y-65365178D02*
X67621700Y-65460416D01*
X67621700Y-65460416D02*
X67574080Y-65508035D01*
X67574080Y-65508035D02*
X67478842Y-65555654D01*
X67478842Y-65555654D02*
X67240747Y-65555654D01*
X67240747Y-65555654D02*
X67145509Y-65508035D01*
X67145509Y-65508035D02*
X67097890Y-65460416D01*
X67097890Y-65460416D02*
X67050271Y-65365178D01*
X67050271Y-65365178D02*
X67050271Y-65174702D01*
X67050271Y-65174702D02*
X67097890Y-65079464D01*
X67097890Y-65079464D02*
X67145509Y-65031845D01*
X67145509Y-65031845D02*
X67240747Y-64984226D01*
X124819319Y-61491964D02*
X123819319Y-61491964D01*
X123819319Y-61491964D02*
X123819319Y-61730059D01*
X123819319Y-61730059D02*
X123866938Y-61872916D01*
X123866938Y-61872916D02*
X123962176Y-61968154D01*
X123962176Y-61968154D02*
X124057414Y-62015773D01*
X124057414Y-62015773D02*
X124247890Y-62063392D01*
X124247890Y-62063392D02*
X124390747Y-62063392D01*
X124390747Y-62063392D02*
X124581223Y-62015773D01*
X124581223Y-62015773D02*
X124676461Y-61968154D01*
X124676461Y-61968154D02*
X124771700Y-61872916D01*
X124771700Y-61872916D02*
X124819319Y-61730059D01*
X124819319Y-61730059D02*
X124819319Y-61491964D01*
X124819319Y-63015773D02*
X124819319Y-62444345D01*
X124819319Y-62730059D02*
X123819319Y-62730059D01*
X123819319Y-62730059D02*
X123962176Y-62634821D01*
X123962176Y-62634821D02*
X124057414Y-62539583D01*
X124057414Y-62539583D02*
X124105033Y-62444345D01*
X124819319Y-63491964D02*
X124819319Y-63682440D01*
X124819319Y-63682440D02*
X124771700Y-63777678D01*
X124771700Y-63777678D02*
X124724080Y-63825297D01*
X124724080Y-63825297D02*
X124581223Y-63920535D01*
X124581223Y-63920535D02*
X124390747Y-63968154D01*
X124390747Y-63968154D02*
X124009795Y-63968154D01*
X124009795Y-63968154D02*
X123914557Y-63920535D01*
X123914557Y-63920535D02*
X123866938Y-63872916D01*
X123866938Y-63872916D02*
X123819319Y-63777678D01*
X123819319Y-63777678D02*
X123819319Y-63587202D01*
X123819319Y-63587202D02*
X123866938Y-63491964D01*
X123866938Y-63491964D02*
X123914557Y-63444345D01*
X123914557Y-63444345D02*
X124009795Y-63396726D01*
X124009795Y-63396726D02*
X124247890Y-63396726D01*
X124247890Y-63396726D02*
X124343128Y-63444345D01*
X124343128Y-63444345D02*
X124390747Y-63491964D01*
X124390747Y-63491964D02*
X124438366Y-63587202D01*
X124438366Y-63587202D02*
X124438366Y-63777678D01*
X124438366Y-63777678D02*
X124390747Y-63872916D01*
X124390747Y-63872916D02*
X124343128Y-63920535D01*
X124343128Y-63920535D02*
X124247890Y-63968154D01*
X328019319Y-82129464D02*
X327019319Y-82129464D01*
X327019319Y-82129464D02*
X327019319Y-82367559D01*
X327019319Y-82367559D02*
X327066938Y-82510416D01*
X327066938Y-82510416D02*
X327162176Y-82605654D01*
X327162176Y-82605654D02*
X327257414Y-82653273D01*
X327257414Y-82653273D02*
X327447890Y-82700892D01*
X327447890Y-82700892D02*
X327590747Y-82700892D01*
X327590747Y-82700892D02*
X327781223Y-82653273D01*
X327781223Y-82653273D02*
X327876461Y-82605654D01*
X327876461Y-82605654D02*
X327971700Y-82510416D01*
X327971700Y-82510416D02*
X328019319Y-82367559D01*
X328019319Y-82367559D02*
X328019319Y-82129464D01*
X327352652Y-83558035D02*
X328019319Y-83558035D01*
X326971700Y-83319940D02*
X327685985Y-83081845D01*
X327685985Y-83081845D02*
X327685985Y-83700892D01*
X328019319Y-84605654D02*
X328019319Y-84034226D01*
X328019319Y-84319940D02*
X327019319Y-84319940D01*
X327019319Y-84319940D02*
X327162176Y-84224702D01*
X327162176Y-84224702D02*
X327257414Y-84129464D01*
X327257414Y-84129464D02*
X327305033Y-84034226D01*
X143869319Y-82129464D02*
X142869319Y-82129464D01*
X142869319Y-82129464D02*
X142869319Y-82367559D01*
X142869319Y-82367559D02*
X142916938Y-82510416D01*
X142916938Y-82510416D02*
X143012176Y-82605654D01*
X143012176Y-82605654D02*
X143107414Y-82653273D01*
X143107414Y-82653273D02*
X143297890Y-82700892D01*
X143297890Y-82700892D02*
X143440747Y-82700892D01*
X143440747Y-82700892D02*
X143631223Y-82653273D01*
X143631223Y-82653273D02*
X143726461Y-82605654D01*
X143726461Y-82605654D02*
X143821700Y-82510416D01*
X143821700Y-82510416D02*
X143869319Y-82367559D01*
X143869319Y-82367559D02*
X143869319Y-82129464D01*
X142869319Y-83034226D02*
X142869319Y-83653273D01*
X142869319Y-83653273D02*
X143250271Y-83319940D01*
X143250271Y-83319940D02*
X143250271Y-83462797D01*
X143250271Y-83462797D02*
X143297890Y-83558035D01*
X143297890Y-83558035D02*
X143345509Y-83605654D01*
X143345509Y-83605654D02*
X143440747Y-83653273D01*
X143440747Y-83653273D02*
X143678842Y-83653273D01*
X143678842Y-83653273D02*
X143774080Y-83605654D01*
X143774080Y-83605654D02*
X143821700Y-83558035D01*
X143821700Y-83558035D02*
X143869319Y-83462797D01*
X143869319Y-83462797D02*
X143869319Y-83177083D01*
X143869319Y-83177083D02*
X143821700Y-83081845D01*
X143821700Y-83081845D02*
X143774080Y-83034226D01*
X143202652Y-84510416D02*
X143869319Y-84510416D01*
X142821700Y-84272321D02*
X143535985Y-84034226D01*
X143535985Y-84034226D02*
X143535985Y-84653273D01*
X124819319Y-99529464D02*
X123819319Y-99529464D01*
X123819319Y-99529464D02*
X123819319Y-99767559D01*
X123819319Y-99767559D02*
X123866938Y-99910416D01*
X123866938Y-99910416D02*
X123962176Y-100005654D01*
X123962176Y-100005654D02*
X124057414Y-100053273D01*
X124057414Y-100053273D02*
X124247890Y-100100892D01*
X124247890Y-100100892D02*
X124390747Y-100100892D01*
X124390747Y-100100892D02*
X124581223Y-100053273D01*
X124581223Y-100053273D02*
X124676461Y-100005654D01*
X124676461Y-100005654D02*
X124771700Y-99910416D01*
X124771700Y-99910416D02*
X124819319Y-99767559D01*
X124819319Y-99767559D02*
X124819319Y-99529464D01*
X124152652Y-100958035D02*
X124819319Y-100958035D01*
X123771700Y-100719940D02*
X124485985Y-100481845D01*
X124485985Y-100481845D02*
X124485985Y-101100892D01*
X123819319Y-101910416D02*
X123819319Y-101719940D01*
X123819319Y-101719940D02*
X123866938Y-101624702D01*
X123866938Y-101624702D02*
X123914557Y-101577083D01*
X123914557Y-101577083D02*
X124057414Y-101481845D01*
X124057414Y-101481845D02*
X124247890Y-101434226D01*
X124247890Y-101434226D02*
X124628842Y-101434226D01*
X124628842Y-101434226D02*
X124724080Y-101481845D01*
X124724080Y-101481845D02*
X124771700Y-101529464D01*
X124771700Y-101529464D02*
X124819319Y-101624702D01*
X124819319Y-101624702D02*
X124819319Y-101815178D01*
X124819319Y-101815178D02*
X124771700Y-101910416D01*
X124771700Y-101910416D02*
X124724080Y-101958035D01*
X124724080Y-101958035D02*
X124628842Y-102005654D01*
X124628842Y-102005654D02*
X124390747Y-102005654D01*
X124390747Y-102005654D02*
X124295509Y-101958035D01*
X124295509Y-101958035D02*
X124247890Y-101910416D01*
X124247890Y-101910416D02*
X124200271Y-101815178D01*
X124200271Y-101815178D02*
X124200271Y-101624702D01*
X124200271Y-101624702D02*
X124247890Y-101529464D01*
X124247890Y-101529464D02*
X124295509Y-101481845D01*
X124295509Y-101481845D02*
X124390747Y-101434226D01*
X285156819Y-101116964D02*
X284156819Y-101116964D01*
X284156819Y-101116964D02*
X284156819Y-101355059D01*
X284156819Y-101355059D02*
X284204438Y-101497916D01*
X284204438Y-101497916D02*
X284299676Y-101593154D01*
X284299676Y-101593154D02*
X284394914Y-101640773D01*
X284394914Y-101640773D02*
X284585390Y-101688392D01*
X284585390Y-101688392D02*
X284728247Y-101688392D01*
X284728247Y-101688392D02*
X284918723Y-101640773D01*
X284918723Y-101640773D02*
X285013961Y-101593154D01*
X285013961Y-101593154D02*
X285109200Y-101497916D01*
X285109200Y-101497916D02*
X285156819Y-101355059D01*
X285156819Y-101355059D02*
X285156819Y-101116964D01*
X284156819Y-102593154D02*
X284156819Y-102116964D01*
X284156819Y-102116964D02*
X284633009Y-102069345D01*
X284633009Y-102069345D02*
X284585390Y-102116964D01*
X284585390Y-102116964D02*
X284537771Y-102212202D01*
X284537771Y-102212202D02*
X284537771Y-102450297D01*
X284537771Y-102450297D02*
X284585390Y-102545535D01*
X284585390Y-102545535D02*
X284633009Y-102593154D01*
X284633009Y-102593154D02*
X284728247Y-102640773D01*
X284728247Y-102640773D02*
X284966342Y-102640773D01*
X284966342Y-102640773D02*
X285061580Y-102593154D01*
X285061580Y-102593154D02*
X285109200Y-102545535D01*
X285109200Y-102545535D02*
X285156819Y-102450297D01*
X285156819Y-102450297D02*
X285156819Y-102212202D01*
X285156819Y-102212202D02*
X285109200Y-102116964D01*
X285109200Y-102116964D02*
X285061580Y-102069345D01*
X284252057Y-103021726D02*
X284204438Y-103069345D01*
X284204438Y-103069345D02*
X284156819Y-103164583D01*
X284156819Y-103164583D02*
X284156819Y-103402678D01*
X284156819Y-103402678D02*
X284204438Y-103497916D01*
X284204438Y-103497916D02*
X284252057Y-103545535D01*
X284252057Y-103545535D02*
X284347295Y-103593154D01*
X284347295Y-103593154D02*
X284442533Y-103593154D01*
X284442533Y-103593154D02*
X284585390Y-103545535D01*
X284585390Y-103545535D02*
X285156819Y-102974107D01*
X285156819Y-102974107D02*
X285156819Y-103593154D01*
X228006819Y-80541964D02*
X227006819Y-80541964D01*
X227006819Y-80541964D02*
X227006819Y-80780059D01*
X227006819Y-80780059D02*
X227054438Y-80922916D01*
X227054438Y-80922916D02*
X227149676Y-81018154D01*
X227149676Y-81018154D02*
X227244914Y-81065773D01*
X227244914Y-81065773D02*
X227435390Y-81113392D01*
X227435390Y-81113392D02*
X227578247Y-81113392D01*
X227578247Y-81113392D02*
X227768723Y-81065773D01*
X227768723Y-81065773D02*
X227863961Y-81018154D01*
X227863961Y-81018154D02*
X227959200Y-80922916D01*
X227959200Y-80922916D02*
X228006819Y-80780059D01*
X228006819Y-80780059D02*
X228006819Y-80541964D01*
X227006819Y-81446726D02*
X227006819Y-82065773D01*
X227006819Y-82065773D02*
X227387771Y-81732440D01*
X227387771Y-81732440D02*
X227387771Y-81875297D01*
X227387771Y-81875297D02*
X227435390Y-81970535D01*
X227435390Y-81970535D02*
X227483009Y-82018154D01*
X227483009Y-82018154D02*
X227578247Y-82065773D01*
X227578247Y-82065773D02*
X227816342Y-82065773D01*
X227816342Y-82065773D02*
X227911580Y-82018154D01*
X227911580Y-82018154D02*
X227959200Y-81970535D01*
X227959200Y-81970535D02*
X228006819Y-81875297D01*
X228006819Y-81875297D02*
X228006819Y-81589583D01*
X228006819Y-81589583D02*
X227959200Y-81494345D01*
X227959200Y-81494345D02*
X227911580Y-81446726D01*
X227006819Y-82922916D02*
X227006819Y-82732440D01*
X227006819Y-82732440D02*
X227054438Y-82637202D01*
X227054438Y-82637202D02*
X227102057Y-82589583D01*
X227102057Y-82589583D02*
X227244914Y-82494345D01*
X227244914Y-82494345D02*
X227435390Y-82446726D01*
X227435390Y-82446726D02*
X227816342Y-82446726D01*
X227816342Y-82446726D02*
X227911580Y-82494345D01*
X227911580Y-82494345D02*
X227959200Y-82541964D01*
X227959200Y-82541964D02*
X228006819Y-82637202D01*
X228006819Y-82637202D02*
X228006819Y-82827678D01*
X228006819Y-82827678D02*
X227959200Y-82922916D01*
X227959200Y-82922916D02*
X227911580Y-82970535D01*
X227911580Y-82970535D02*
X227816342Y-83018154D01*
X227816342Y-83018154D02*
X227578247Y-83018154D01*
X227578247Y-83018154D02*
X227483009Y-82970535D01*
X227483009Y-82970535D02*
X227435390Y-82922916D01*
X227435390Y-82922916D02*
X227387771Y-82827678D01*
X227387771Y-82827678D02*
X227387771Y-82637202D01*
X227387771Y-82637202D02*
X227435390Y-82541964D01*
X227435390Y-82541964D02*
X227483009Y-82494345D01*
X227483009Y-82494345D02*
X227578247Y-82446726D01*
X344688069Y-63079464D02*
X343688069Y-63079464D01*
X343688069Y-63079464D02*
X343688069Y-63317559D01*
X343688069Y-63317559D02*
X343735688Y-63460416D01*
X343735688Y-63460416D02*
X343830926Y-63555654D01*
X343830926Y-63555654D02*
X343926164Y-63603273D01*
X343926164Y-63603273D02*
X344116640Y-63650892D01*
X344116640Y-63650892D02*
X344259497Y-63650892D01*
X344259497Y-63650892D02*
X344449973Y-63603273D01*
X344449973Y-63603273D02*
X344545211Y-63555654D01*
X344545211Y-63555654D02*
X344640450Y-63460416D01*
X344640450Y-63460416D02*
X344688069Y-63317559D01*
X344688069Y-63317559D02*
X344688069Y-63079464D01*
X343783307Y-64031845D02*
X343735688Y-64079464D01*
X343735688Y-64079464D02*
X343688069Y-64174702D01*
X343688069Y-64174702D02*
X343688069Y-64412797D01*
X343688069Y-64412797D02*
X343735688Y-64508035D01*
X343735688Y-64508035D02*
X343783307Y-64555654D01*
X343783307Y-64555654D02*
X343878545Y-64603273D01*
X343878545Y-64603273D02*
X343973783Y-64603273D01*
X343973783Y-64603273D02*
X344116640Y-64555654D01*
X344116640Y-64555654D02*
X344688069Y-63984226D01*
X344688069Y-63984226D02*
X344688069Y-64603273D01*
X344116640Y-65174702D02*
X344069021Y-65079464D01*
X344069021Y-65079464D02*
X344021402Y-65031845D01*
X344021402Y-65031845D02*
X343926164Y-64984226D01*
X343926164Y-64984226D02*
X343878545Y-64984226D01*
X343878545Y-64984226D02*
X343783307Y-65031845D01*
X343783307Y-65031845D02*
X343735688Y-65079464D01*
X343735688Y-65079464D02*
X343688069Y-65174702D01*
X343688069Y-65174702D02*
X343688069Y-65365178D01*
X343688069Y-65365178D02*
X343735688Y-65460416D01*
X343735688Y-65460416D02*
X343783307Y-65508035D01*
X343783307Y-65508035D02*
X343878545Y-65555654D01*
X343878545Y-65555654D02*
X343926164Y-65555654D01*
X343926164Y-65555654D02*
X344021402Y-65508035D01*
X344021402Y-65508035D02*
X344069021Y-65460416D01*
X344069021Y-65460416D02*
X344116640Y-65365178D01*
X344116640Y-65365178D02*
X344116640Y-65174702D01*
X344116640Y-65174702D02*
X344164259Y-65079464D01*
X344164259Y-65079464D02*
X344211878Y-65031845D01*
X344211878Y-65031845D02*
X344307116Y-64984226D01*
X344307116Y-64984226D02*
X344497592Y-64984226D01*
X344497592Y-64984226D02*
X344592830Y-65031845D01*
X344592830Y-65031845D02*
X344640450Y-65079464D01*
X344640450Y-65079464D02*
X344688069Y-65174702D01*
X344688069Y-65174702D02*
X344688069Y-65365178D01*
X344688069Y-65365178D02*
X344640450Y-65460416D01*
X344640450Y-65460416D02*
X344592830Y-65508035D01*
X344592830Y-65508035D02*
X344497592Y-65555654D01*
X344497592Y-65555654D02*
X344307116Y-65555654D01*
X344307116Y-65555654D02*
X344211878Y-65508035D01*
X344211878Y-65508035D02*
X344164259Y-65460416D01*
X344164259Y-65460416D02*
X344116640Y-65365178D01*
X67669319Y-82066964D02*
X66669319Y-82066964D01*
X66669319Y-82066964D02*
X66669319Y-82305059D01*
X66669319Y-82305059D02*
X66716938Y-82447916D01*
X66716938Y-82447916D02*
X66812176Y-82543154D01*
X66812176Y-82543154D02*
X66907414Y-82590773D01*
X66907414Y-82590773D02*
X67097890Y-82638392D01*
X67097890Y-82638392D02*
X67240747Y-82638392D01*
X67240747Y-82638392D02*
X67431223Y-82590773D01*
X67431223Y-82590773D02*
X67526461Y-82543154D01*
X67526461Y-82543154D02*
X67621700Y-82447916D01*
X67621700Y-82447916D02*
X67669319Y-82305059D01*
X67669319Y-82305059D02*
X67669319Y-82066964D01*
X66669319Y-82971726D02*
X66669319Y-83590773D01*
X66669319Y-83590773D02*
X67050271Y-83257440D01*
X67050271Y-83257440D02*
X67050271Y-83400297D01*
X67050271Y-83400297D02*
X67097890Y-83495535D01*
X67097890Y-83495535D02*
X67145509Y-83543154D01*
X67145509Y-83543154D02*
X67240747Y-83590773D01*
X67240747Y-83590773D02*
X67478842Y-83590773D01*
X67478842Y-83590773D02*
X67574080Y-83543154D01*
X67574080Y-83543154D02*
X67621700Y-83495535D01*
X67621700Y-83495535D02*
X67669319Y-83400297D01*
X67669319Y-83400297D02*
X67669319Y-83114583D01*
X67669319Y-83114583D02*
X67621700Y-83019345D01*
X67621700Y-83019345D02*
X67574080Y-82971726D01*
X66669319Y-84209821D02*
X66669319Y-84305059D01*
X66669319Y-84305059D02*
X66716938Y-84400297D01*
X66716938Y-84400297D02*
X66764557Y-84447916D01*
X66764557Y-84447916D02*
X66859795Y-84495535D01*
X66859795Y-84495535D02*
X67050271Y-84543154D01*
X67050271Y-84543154D02*
X67288366Y-84543154D01*
X67288366Y-84543154D02*
X67478842Y-84495535D01*
X67478842Y-84495535D02*
X67574080Y-84447916D01*
X67574080Y-84447916D02*
X67621700Y-84400297D01*
X67621700Y-84400297D02*
X67669319Y-84305059D01*
X67669319Y-84305059D02*
X67669319Y-84209821D01*
X67669319Y-84209821D02*
X67621700Y-84114583D01*
X67621700Y-84114583D02*
X67574080Y-84066964D01*
X67574080Y-84066964D02*
X67478842Y-84019345D01*
X67478842Y-84019345D02*
X67288366Y-83971726D01*
X67288366Y-83971726D02*
X67050271Y-83971726D01*
X67050271Y-83971726D02*
X66859795Y-84019345D01*
X66859795Y-84019345D02*
X66764557Y-84066964D01*
X66764557Y-84066964D02*
X66716938Y-84114583D01*
X66716938Y-84114583D02*
X66669319Y-84209821D01*
X247056819Y-41393155D02*
X246056819Y-41393155D01*
X246056819Y-41393155D02*
X246056819Y-41631250D01*
X246056819Y-41631250D02*
X246104438Y-41774107D01*
X246104438Y-41774107D02*
X246199676Y-41869345D01*
X246199676Y-41869345D02*
X246294914Y-41916964D01*
X246294914Y-41916964D02*
X246485390Y-41964583D01*
X246485390Y-41964583D02*
X246628247Y-41964583D01*
X246628247Y-41964583D02*
X246818723Y-41916964D01*
X246818723Y-41916964D02*
X246913961Y-41869345D01*
X246913961Y-41869345D02*
X247009200Y-41774107D01*
X247009200Y-41774107D02*
X247056819Y-41631250D01*
X247056819Y-41631250D02*
X247056819Y-41393155D01*
X247056819Y-42440774D02*
X247056819Y-42631250D01*
X247056819Y-42631250D02*
X247009200Y-42726488D01*
X247009200Y-42726488D02*
X246961580Y-42774107D01*
X246961580Y-42774107D02*
X246818723Y-42869345D01*
X246818723Y-42869345D02*
X246628247Y-42916964D01*
X246628247Y-42916964D02*
X246247295Y-42916964D01*
X246247295Y-42916964D02*
X246152057Y-42869345D01*
X246152057Y-42869345D02*
X246104438Y-42821726D01*
X246104438Y-42821726D02*
X246056819Y-42726488D01*
X246056819Y-42726488D02*
X246056819Y-42536012D01*
X246056819Y-42536012D02*
X246104438Y-42440774D01*
X246104438Y-42440774D02*
X246152057Y-42393155D01*
X246152057Y-42393155D02*
X246247295Y-42345536D01*
X246247295Y-42345536D02*
X246485390Y-42345536D01*
X246485390Y-42345536D02*
X246580628Y-42393155D01*
X246580628Y-42393155D02*
X246628247Y-42440774D01*
X246628247Y-42440774D02*
X246675866Y-42536012D01*
X246675866Y-42536012D02*
X246675866Y-42726488D01*
X246675866Y-42726488D02*
X246628247Y-42821726D01*
X246628247Y-42821726D02*
X246580628Y-42869345D01*
X246580628Y-42869345D02*
X246485390Y-42916964D01*
X285156819Y-44029464D02*
X284156819Y-44029464D01*
X284156819Y-44029464D02*
X284156819Y-44267559D01*
X284156819Y-44267559D02*
X284204438Y-44410416D01*
X284204438Y-44410416D02*
X284299676Y-44505654D01*
X284299676Y-44505654D02*
X284394914Y-44553273D01*
X284394914Y-44553273D02*
X284585390Y-44600892D01*
X284585390Y-44600892D02*
X284728247Y-44600892D01*
X284728247Y-44600892D02*
X284918723Y-44553273D01*
X284918723Y-44553273D02*
X285013961Y-44505654D01*
X285013961Y-44505654D02*
X285109200Y-44410416D01*
X285109200Y-44410416D02*
X285156819Y-44267559D01*
X285156819Y-44267559D02*
X285156819Y-44029464D01*
X285156819Y-45553273D02*
X285156819Y-44981845D01*
X285156819Y-45267559D02*
X284156819Y-45267559D01*
X284156819Y-45267559D02*
X284299676Y-45172321D01*
X284299676Y-45172321D02*
X284394914Y-45077083D01*
X284394914Y-45077083D02*
X284442533Y-44981845D01*
X285156819Y-46505654D02*
X285156819Y-45934226D01*
X285156819Y-46219940D02*
X284156819Y-46219940D01*
X284156819Y-46219940D02*
X284299676Y-46124702D01*
X284299676Y-46124702D02*
X284394914Y-46029464D01*
X284394914Y-46029464D02*
X284442533Y-45934226D01*
X43856819Y-82066964D02*
X42856819Y-82066964D01*
X42856819Y-82066964D02*
X42856819Y-82305059D01*
X42856819Y-82305059D02*
X42904438Y-82447916D01*
X42904438Y-82447916D02*
X42999676Y-82543154D01*
X42999676Y-82543154D02*
X43094914Y-82590773D01*
X43094914Y-82590773D02*
X43285390Y-82638392D01*
X43285390Y-82638392D02*
X43428247Y-82638392D01*
X43428247Y-82638392D02*
X43618723Y-82590773D01*
X43618723Y-82590773D02*
X43713961Y-82543154D01*
X43713961Y-82543154D02*
X43809200Y-82447916D01*
X43809200Y-82447916D02*
X43856819Y-82305059D01*
X43856819Y-82305059D02*
X43856819Y-82066964D01*
X42952057Y-83019345D02*
X42904438Y-83066964D01*
X42904438Y-83066964D02*
X42856819Y-83162202D01*
X42856819Y-83162202D02*
X42856819Y-83400297D01*
X42856819Y-83400297D02*
X42904438Y-83495535D01*
X42904438Y-83495535D02*
X42952057Y-83543154D01*
X42952057Y-83543154D02*
X43047295Y-83590773D01*
X43047295Y-83590773D02*
X43142533Y-83590773D01*
X43142533Y-83590773D02*
X43285390Y-83543154D01*
X43285390Y-83543154D02*
X43856819Y-82971726D01*
X43856819Y-82971726D02*
X43856819Y-83590773D01*
X43856819Y-84066964D02*
X43856819Y-84257440D01*
X43856819Y-84257440D02*
X43809200Y-84352678D01*
X43809200Y-84352678D02*
X43761580Y-84400297D01*
X43761580Y-84400297D02*
X43618723Y-84495535D01*
X43618723Y-84495535D02*
X43428247Y-84543154D01*
X43428247Y-84543154D02*
X43047295Y-84543154D01*
X43047295Y-84543154D02*
X42952057Y-84495535D01*
X42952057Y-84495535D02*
X42904438Y-84447916D01*
X42904438Y-84447916D02*
X42856819Y-84352678D01*
X42856819Y-84352678D02*
X42856819Y-84162202D01*
X42856819Y-84162202D02*
X42904438Y-84066964D01*
X42904438Y-84066964D02*
X42952057Y-84019345D01*
X42952057Y-84019345D02*
X43047295Y-83971726D01*
X43047295Y-83971726D02*
X43285390Y-83971726D01*
X43285390Y-83971726D02*
X43380628Y-84019345D01*
X43380628Y-84019345D02*
X43428247Y-84066964D01*
X43428247Y-84066964D02*
X43475866Y-84162202D01*
X43475866Y-84162202D02*
X43475866Y-84352678D01*
X43475866Y-84352678D02*
X43428247Y-84447916D01*
X43428247Y-84447916D02*
X43380628Y-84495535D01*
X43380628Y-84495535D02*
X43285390Y-84543154D01*
X124819319Y-80541964D02*
X123819319Y-80541964D01*
X123819319Y-80541964D02*
X123819319Y-80780059D01*
X123819319Y-80780059D02*
X123866938Y-80922916D01*
X123866938Y-80922916D02*
X123962176Y-81018154D01*
X123962176Y-81018154D02*
X124057414Y-81065773D01*
X124057414Y-81065773D02*
X124247890Y-81113392D01*
X124247890Y-81113392D02*
X124390747Y-81113392D01*
X124390747Y-81113392D02*
X124581223Y-81065773D01*
X124581223Y-81065773D02*
X124676461Y-81018154D01*
X124676461Y-81018154D02*
X124771700Y-80922916D01*
X124771700Y-80922916D02*
X124819319Y-80780059D01*
X124819319Y-80780059D02*
X124819319Y-80541964D01*
X123819319Y-81446726D02*
X123819319Y-82065773D01*
X123819319Y-82065773D02*
X124200271Y-81732440D01*
X124200271Y-81732440D02*
X124200271Y-81875297D01*
X124200271Y-81875297D02*
X124247890Y-81970535D01*
X124247890Y-81970535D02*
X124295509Y-82018154D01*
X124295509Y-82018154D02*
X124390747Y-82065773D01*
X124390747Y-82065773D02*
X124628842Y-82065773D01*
X124628842Y-82065773D02*
X124724080Y-82018154D01*
X124724080Y-82018154D02*
X124771700Y-81970535D01*
X124771700Y-81970535D02*
X124819319Y-81875297D01*
X124819319Y-81875297D02*
X124819319Y-81589583D01*
X124819319Y-81589583D02*
X124771700Y-81494345D01*
X124771700Y-81494345D02*
X124724080Y-81446726D01*
X123819319Y-82399107D02*
X123819319Y-83018154D01*
X123819319Y-83018154D02*
X124200271Y-82684821D01*
X124200271Y-82684821D02*
X124200271Y-82827678D01*
X124200271Y-82827678D02*
X124247890Y-82922916D01*
X124247890Y-82922916D02*
X124295509Y-82970535D01*
X124295509Y-82970535D02*
X124390747Y-83018154D01*
X124390747Y-83018154D02*
X124628842Y-83018154D01*
X124628842Y-83018154D02*
X124724080Y-82970535D01*
X124724080Y-82970535D02*
X124771700Y-82922916D01*
X124771700Y-82922916D02*
X124819319Y-82827678D01*
X124819319Y-82827678D02*
X124819319Y-82541964D01*
X124819319Y-82541964D02*
X124771700Y-82446726D01*
X124771700Y-82446726D02*
X124724080Y-82399107D01*
X247056819Y-98004464D02*
X246056819Y-98004464D01*
X246056819Y-98004464D02*
X246056819Y-98242559D01*
X246056819Y-98242559D02*
X246104438Y-98385416D01*
X246104438Y-98385416D02*
X246199676Y-98480654D01*
X246199676Y-98480654D02*
X246294914Y-98528273D01*
X246294914Y-98528273D02*
X246485390Y-98575892D01*
X246485390Y-98575892D02*
X246628247Y-98575892D01*
X246628247Y-98575892D02*
X246818723Y-98528273D01*
X246818723Y-98528273D02*
X246913961Y-98480654D01*
X246913961Y-98480654D02*
X247009200Y-98385416D01*
X247009200Y-98385416D02*
X247056819Y-98242559D01*
X247056819Y-98242559D02*
X247056819Y-98004464D01*
X246056819Y-99480654D02*
X246056819Y-99004464D01*
X246056819Y-99004464D02*
X246533009Y-98956845D01*
X246533009Y-98956845D02*
X246485390Y-99004464D01*
X246485390Y-99004464D02*
X246437771Y-99099702D01*
X246437771Y-99099702D02*
X246437771Y-99337797D01*
X246437771Y-99337797D02*
X246485390Y-99433035D01*
X246485390Y-99433035D02*
X246533009Y-99480654D01*
X246533009Y-99480654D02*
X246628247Y-99528273D01*
X246628247Y-99528273D02*
X246866342Y-99528273D01*
X246866342Y-99528273D02*
X246961580Y-99480654D01*
X246961580Y-99480654D02*
X247009200Y-99433035D01*
X247009200Y-99433035D02*
X247056819Y-99337797D01*
X247056819Y-99337797D02*
X247056819Y-99099702D01*
X247056819Y-99099702D02*
X247009200Y-99004464D01*
X247009200Y-99004464D02*
X246961580Y-98956845D01*
X246056819Y-100147321D02*
X246056819Y-100242559D01*
X246056819Y-100242559D02*
X246104438Y-100337797D01*
X246104438Y-100337797D02*
X246152057Y-100385416D01*
X246152057Y-100385416D02*
X246247295Y-100433035D01*
X246247295Y-100433035D02*
X246437771Y-100480654D01*
X246437771Y-100480654D02*
X246675866Y-100480654D01*
X246675866Y-100480654D02*
X246866342Y-100433035D01*
X246866342Y-100433035D02*
X246961580Y-100385416D01*
X246961580Y-100385416D02*
X247009200Y-100337797D01*
X247009200Y-100337797D02*
X247056819Y-100242559D01*
X247056819Y-100242559D02*
X247056819Y-100147321D01*
X247056819Y-100147321D02*
X247009200Y-100052083D01*
X247009200Y-100052083D02*
X246961580Y-100004464D01*
X246961580Y-100004464D02*
X246866342Y-99956845D01*
X246866342Y-99956845D02*
X246675866Y-99909226D01*
X246675866Y-99909226D02*
X246437771Y-99909226D01*
X246437771Y-99909226D02*
X246247295Y-99956845D01*
X246247295Y-99956845D02*
X246152057Y-100004464D01*
X246152057Y-100004464D02*
X246104438Y-100052083D01*
X246104438Y-100052083D02*
X246056819Y-100147321D01*
X304206819Y-82129464D02*
X303206819Y-82129464D01*
X303206819Y-82129464D02*
X303206819Y-82367559D01*
X303206819Y-82367559D02*
X303254438Y-82510416D01*
X303254438Y-82510416D02*
X303349676Y-82605654D01*
X303349676Y-82605654D02*
X303444914Y-82653273D01*
X303444914Y-82653273D02*
X303635390Y-82700892D01*
X303635390Y-82700892D02*
X303778247Y-82700892D01*
X303778247Y-82700892D02*
X303968723Y-82653273D01*
X303968723Y-82653273D02*
X304063961Y-82605654D01*
X304063961Y-82605654D02*
X304159200Y-82510416D01*
X304159200Y-82510416D02*
X304206819Y-82367559D01*
X304206819Y-82367559D02*
X304206819Y-82129464D01*
X303540152Y-83558035D02*
X304206819Y-83558035D01*
X303159200Y-83319940D02*
X303873485Y-83081845D01*
X303873485Y-83081845D02*
X303873485Y-83700892D01*
X303206819Y-84272321D02*
X303206819Y-84367559D01*
X303206819Y-84367559D02*
X303254438Y-84462797D01*
X303254438Y-84462797D02*
X303302057Y-84510416D01*
X303302057Y-84510416D02*
X303397295Y-84558035D01*
X303397295Y-84558035D02*
X303587771Y-84605654D01*
X303587771Y-84605654D02*
X303825866Y-84605654D01*
X303825866Y-84605654D02*
X304016342Y-84558035D01*
X304016342Y-84558035D02*
X304111580Y-84510416D01*
X304111580Y-84510416D02*
X304159200Y-84462797D01*
X304159200Y-84462797D02*
X304206819Y-84367559D01*
X304206819Y-84367559D02*
X304206819Y-84272321D01*
X304206819Y-84272321D02*
X304159200Y-84177083D01*
X304159200Y-84177083D02*
X304111580Y-84129464D01*
X304111580Y-84129464D02*
X304016342Y-84081845D01*
X304016342Y-84081845D02*
X303825866Y-84034226D01*
X303825866Y-84034226D02*
X303587771Y-84034226D01*
X303587771Y-84034226D02*
X303397295Y-84081845D01*
X303397295Y-84081845D02*
X303302057Y-84129464D01*
X303302057Y-84129464D02*
X303254438Y-84177083D01*
X303254438Y-84177083D02*
X303206819Y-84272321D01*
X48619319Y-120229464D02*
X47619319Y-120229464D01*
X47619319Y-120229464D02*
X47619319Y-120467559D01*
X47619319Y-120467559D02*
X47666938Y-120610416D01*
X47666938Y-120610416D02*
X47762176Y-120705654D01*
X47762176Y-120705654D02*
X47857414Y-120753273D01*
X47857414Y-120753273D02*
X48047890Y-120800892D01*
X48047890Y-120800892D02*
X48190747Y-120800892D01*
X48190747Y-120800892D02*
X48381223Y-120753273D01*
X48381223Y-120753273D02*
X48476461Y-120705654D01*
X48476461Y-120705654D02*
X48571700Y-120610416D01*
X48571700Y-120610416D02*
X48619319Y-120467559D01*
X48619319Y-120467559D02*
X48619319Y-120229464D01*
X47619319Y-121705654D02*
X47619319Y-121229464D01*
X47619319Y-121229464D02*
X48095509Y-121181845D01*
X48095509Y-121181845D02*
X48047890Y-121229464D01*
X48047890Y-121229464D02*
X48000271Y-121324702D01*
X48000271Y-121324702D02*
X48000271Y-121562797D01*
X48000271Y-121562797D02*
X48047890Y-121658035D01*
X48047890Y-121658035D02*
X48095509Y-121705654D01*
X48095509Y-121705654D02*
X48190747Y-121753273D01*
X48190747Y-121753273D02*
X48428842Y-121753273D01*
X48428842Y-121753273D02*
X48524080Y-121705654D01*
X48524080Y-121705654D02*
X48571700Y-121658035D01*
X48571700Y-121658035D02*
X48619319Y-121562797D01*
X48619319Y-121562797D02*
X48619319Y-121324702D01*
X48619319Y-121324702D02*
X48571700Y-121229464D01*
X48571700Y-121229464D02*
X48524080Y-121181845D01*
X47952652Y-122610416D02*
X48619319Y-122610416D01*
X47571700Y-122372321D02*
X48285985Y-122134226D01*
X48285985Y-122134226D02*
X48285985Y-122753273D01*
X344688069Y-43966964D02*
X343688069Y-43966964D01*
X343688069Y-43966964D02*
X343688069Y-44205059D01*
X343688069Y-44205059D02*
X343735688Y-44347916D01*
X343735688Y-44347916D02*
X343830926Y-44443154D01*
X343830926Y-44443154D02*
X343926164Y-44490773D01*
X343926164Y-44490773D02*
X344116640Y-44538392D01*
X344116640Y-44538392D02*
X344259497Y-44538392D01*
X344259497Y-44538392D02*
X344449973Y-44490773D01*
X344449973Y-44490773D02*
X344545211Y-44443154D01*
X344545211Y-44443154D02*
X344640450Y-44347916D01*
X344640450Y-44347916D02*
X344688069Y-44205059D01*
X344688069Y-44205059D02*
X344688069Y-43966964D01*
X344688069Y-45490773D02*
X344688069Y-44919345D01*
X344688069Y-45205059D02*
X343688069Y-45205059D01*
X343688069Y-45205059D02*
X343830926Y-45109821D01*
X343830926Y-45109821D02*
X343926164Y-45014583D01*
X343926164Y-45014583D02*
X343973783Y-44919345D01*
X344021402Y-46347916D02*
X344688069Y-46347916D01*
X343640450Y-46109821D02*
X344354735Y-45871726D01*
X344354735Y-45871726D02*
X344354735Y-46490773D01*
X285156819Y-82129464D02*
X284156819Y-82129464D01*
X284156819Y-82129464D02*
X284156819Y-82367559D01*
X284156819Y-82367559D02*
X284204438Y-82510416D01*
X284204438Y-82510416D02*
X284299676Y-82605654D01*
X284299676Y-82605654D02*
X284394914Y-82653273D01*
X284394914Y-82653273D02*
X284585390Y-82700892D01*
X284585390Y-82700892D02*
X284728247Y-82700892D01*
X284728247Y-82700892D02*
X284918723Y-82653273D01*
X284918723Y-82653273D02*
X285013961Y-82605654D01*
X285013961Y-82605654D02*
X285109200Y-82510416D01*
X285109200Y-82510416D02*
X285156819Y-82367559D01*
X285156819Y-82367559D02*
X285156819Y-82129464D01*
X284156819Y-83034226D02*
X284156819Y-83653273D01*
X284156819Y-83653273D02*
X284537771Y-83319940D01*
X284537771Y-83319940D02*
X284537771Y-83462797D01*
X284537771Y-83462797D02*
X284585390Y-83558035D01*
X284585390Y-83558035D02*
X284633009Y-83605654D01*
X284633009Y-83605654D02*
X284728247Y-83653273D01*
X284728247Y-83653273D02*
X284966342Y-83653273D01*
X284966342Y-83653273D02*
X285061580Y-83605654D01*
X285061580Y-83605654D02*
X285109200Y-83558035D01*
X285109200Y-83558035D02*
X285156819Y-83462797D01*
X285156819Y-83462797D02*
X285156819Y-83177083D01*
X285156819Y-83177083D02*
X285109200Y-83081845D01*
X285109200Y-83081845D02*
X285061580Y-83034226D01*
X285156819Y-84129464D02*
X285156819Y-84319940D01*
X285156819Y-84319940D02*
X285109200Y-84415178D01*
X285109200Y-84415178D02*
X285061580Y-84462797D01*
X285061580Y-84462797D02*
X284918723Y-84558035D01*
X284918723Y-84558035D02*
X284728247Y-84605654D01*
X284728247Y-84605654D02*
X284347295Y-84605654D01*
X284347295Y-84605654D02*
X284252057Y-84558035D01*
X284252057Y-84558035D02*
X284204438Y-84510416D01*
X284204438Y-84510416D02*
X284156819Y-84415178D01*
X284156819Y-84415178D02*
X284156819Y-84224702D01*
X284156819Y-84224702D02*
X284204438Y-84129464D01*
X284204438Y-84129464D02*
X284252057Y-84081845D01*
X284252057Y-84081845D02*
X284347295Y-84034226D01*
X284347295Y-84034226D02*
X284585390Y-84034226D01*
X284585390Y-84034226D02*
X284680628Y-84081845D01*
X284680628Y-84081845D02*
X284728247Y-84129464D01*
X284728247Y-84129464D02*
X284775866Y-84224702D01*
X284775866Y-84224702D02*
X284775866Y-84415178D01*
X284775866Y-84415178D02*
X284728247Y-84510416D01*
X284728247Y-84510416D02*
X284680628Y-84558035D01*
X284680628Y-84558035D02*
X284585390Y-84605654D01*
D11*
X319475000Y-61956250D02*
X319475000Y-66756250D01*
X319475000Y-66756250D02*
X321875000Y-66756250D01*
X319786000Y-65118250D02*
X321564000Y-65118250D01*
X321875000Y-61956250D02*
X319475000Y-61956250D01*
X321875000Y-66756250D02*
X321875000Y-61956250D01*
D12*
X320675000Y-65118250D02*
X319786000Y-63594250D01*
X321564000Y-63594250D01*
X320675000Y-65118250D01*
G36*
X320675000Y-65118250D02*
G01*
X319786000Y-63594250D01*
X321564000Y-63594250D01*
X320675000Y-65118250D01*
G37*
X319475000Y-65756250D02*
X319175000Y-65756250D01*
X319175000Y-64956250D01*
X319475000Y-64956250D01*
X319475000Y-65756250D01*
G36*
X319475000Y-65756250D02*
G01*
X319175000Y-65756250D01*
X319175000Y-64956250D01*
X319475000Y-64956250D01*
X319475000Y-65756250D01*
G37*
X322175000Y-65756250D02*
X321875000Y-65756250D01*
X321875000Y-64956250D01*
X322175000Y-64956250D01*
X322175000Y-65756250D01*
G36*
X322175000Y-65756250D02*
G01*
X321875000Y-65756250D01*
X321875000Y-64956250D01*
X322175000Y-64956250D01*
X322175000Y-65756250D01*
G37*
D11*
X40075000Y-99931250D02*
X40075000Y-104731250D01*
X40075000Y-104731250D02*
X42475000Y-104731250D01*
X40386000Y-103093250D02*
X42164000Y-103093250D01*
X42475000Y-99931250D02*
X40075000Y-99931250D01*
X42475000Y-104731250D02*
X42475000Y-99931250D01*
D12*
X41275000Y-103093250D02*
X40386000Y-101569250D01*
X42164000Y-101569250D01*
X41275000Y-103093250D01*
G36*
X41275000Y-103093250D02*
G01*
X40386000Y-101569250D01*
X42164000Y-101569250D01*
X41275000Y-103093250D01*
G37*
X40075000Y-103731250D02*
X39775000Y-103731250D01*
X39775000Y-102931250D01*
X40075000Y-102931250D01*
X40075000Y-103731250D01*
G36*
X40075000Y-103731250D02*
G01*
X39775000Y-103731250D01*
X39775000Y-102931250D01*
X40075000Y-102931250D01*
X40075000Y-103731250D01*
G37*
X42775000Y-103731250D02*
X42475000Y-103731250D01*
X42475000Y-102931250D01*
X42775000Y-102931250D01*
X42775000Y-103731250D01*
G36*
X42775000Y-103731250D02*
G01*
X42475000Y-103731250D01*
X42475000Y-102931250D01*
X42775000Y-102931250D01*
X42775000Y-103731250D01*
G37*
D11*
X305187500Y-100056250D02*
X305187500Y-104856250D01*
X305187500Y-104856250D02*
X307587500Y-104856250D01*
X305498500Y-103218250D02*
X307276500Y-103218250D01*
X307587500Y-100056250D02*
X305187500Y-100056250D01*
X307587500Y-104856250D02*
X307587500Y-100056250D01*
D12*
X306387500Y-103218250D02*
X305498500Y-101694250D01*
X307276500Y-101694250D01*
X306387500Y-103218250D01*
G36*
X306387500Y-103218250D02*
G01*
X305498500Y-101694250D01*
X307276500Y-101694250D01*
X306387500Y-103218250D01*
G37*
X305187500Y-103856250D02*
X304887500Y-103856250D01*
X304887500Y-103056250D01*
X305187500Y-103056250D01*
X305187500Y-103856250D01*
G36*
X305187500Y-103856250D02*
G01*
X304887500Y-103856250D01*
X304887500Y-103056250D01*
X305187500Y-103056250D01*
X305187500Y-103856250D01*
G37*
X307887500Y-103856250D02*
X307587500Y-103856250D01*
X307587500Y-103056250D01*
X307887500Y-103056250D01*
X307887500Y-103856250D01*
G36*
X307887500Y-103856250D02*
G01*
X307587500Y-103856250D01*
X307587500Y-103056250D01*
X307887500Y-103056250D01*
X307887500Y-103856250D01*
G37*
D11*
X224225000Y-41193750D02*
X224225000Y-45993750D01*
X224225000Y-45993750D02*
X226625000Y-45993750D01*
X224536000Y-44355750D02*
X226314000Y-44355750D01*
X226625000Y-41193750D02*
X224225000Y-41193750D01*
X226625000Y-45993750D02*
X226625000Y-41193750D01*
D12*
X225425000Y-44355750D02*
X224536000Y-42831750D01*
X226314000Y-42831750D01*
X225425000Y-44355750D01*
G36*
X225425000Y-44355750D02*
G01*
X224536000Y-42831750D01*
X226314000Y-42831750D01*
X225425000Y-44355750D01*
G37*
X224225000Y-44993750D02*
X223925000Y-44993750D01*
X223925000Y-44193750D01*
X224225000Y-44193750D01*
X224225000Y-44993750D01*
G36*
X224225000Y-44993750D02*
G01*
X223925000Y-44993750D01*
X223925000Y-44193750D01*
X224225000Y-44193750D01*
X224225000Y-44993750D01*
G37*
X226925000Y-44993750D02*
X226625000Y-44993750D01*
X226625000Y-44193750D01*
X226925000Y-44193750D01*
X226925000Y-44993750D01*
G36*
X226925000Y-44993750D02*
G01*
X226625000Y-44993750D01*
X226625000Y-44193750D01*
X226925000Y-44193750D01*
X226925000Y-44993750D01*
G37*
D11*
X63887500Y-119043750D02*
X63887500Y-123843750D01*
X63887500Y-123843750D02*
X66287500Y-123843750D01*
X64198500Y-122205750D02*
X65976500Y-122205750D01*
X66287500Y-119043750D02*
X63887500Y-119043750D01*
X66287500Y-123843750D02*
X66287500Y-119043750D01*
D12*
X65087500Y-122205750D02*
X64198500Y-120681750D01*
X65976500Y-120681750D01*
X65087500Y-122205750D01*
G36*
X65087500Y-122205750D02*
G01*
X64198500Y-120681750D01*
X65976500Y-120681750D01*
X65087500Y-122205750D01*
G37*
X63887500Y-122843750D02*
X63587500Y-122843750D01*
X63587500Y-122043750D01*
X63887500Y-122043750D01*
X63887500Y-122843750D01*
G36*
X63887500Y-122843750D02*
G01*
X63587500Y-122843750D01*
X63587500Y-122043750D01*
X63887500Y-122043750D01*
X63887500Y-122843750D01*
G37*
X66587500Y-122843750D02*
X66287500Y-122843750D01*
X66287500Y-122043750D01*
X66587500Y-122043750D01*
X66587500Y-122843750D01*
G36*
X66587500Y-122843750D02*
G01*
X66287500Y-122843750D01*
X66287500Y-122043750D01*
X66587500Y-122043750D01*
X66587500Y-122843750D01*
G37*
D11*
X82937500Y-41193750D02*
X82937500Y-45993750D01*
X82937500Y-45993750D02*
X85337500Y-45993750D01*
X83248500Y-44355750D02*
X85026500Y-44355750D01*
X85337500Y-41193750D02*
X82937500Y-41193750D01*
X85337500Y-45993750D02*
X85337500Y-41193750D01*
D12*
X84137500Y-44355750D02*
X83248500Y-42831750D01*
X85026500Y-42831750D01*
X84137500Y-44355750D01*
G36*
X84137500Y-44355750D02*
G01*
X83248500Y-42831750D01*
X85026500Y-42831750D01*
X84137500Y-44355750D01*
G37*
X82937500Y-44993750D02*
X82637500Y-44993750D01*
X82637500Y-44193750D01*
X82937500Y-44193750D01*
X82937500Y-44993750D01*
G36*
X82937500Y-44993750D02*
G01*
X82637500Y-44993750D01*
X82637500Y-44193750D01*
X82937500Y-44193750D01*
X82937500Y-44993750D01*
G37*
X85637500Y-44993750D02*
X85337500Y-44993750D01*
X85337500Y-44193750D01*
X85637500Y-44193750D01*
X85637500Y-44993750D01*
G36*
X85637500Y-44993750D02*
G01*
X85337500Y-44993750D01*
X85337500Y-44193750D01*
X85637500Y-44193750D01*
X85637500Y-44993750D01*
G37*
D11*
X101987500Y-58781250D02*
X101987500Y-63581250D01*
X101987500Y-63581250D02*
X104387500Y-63581250D01*
X102298500Y-61943250D02*
X104076500Y-61943250D01*
X104387500Y-58781250D02*
X101987500Y-58781250D01*
X104387500Y-63581250D02*
X104387500Y-58781250D01*
D12*
X103187500Y-61943250D02*
X102298500Y-60419250D01*
X104076500Y-60419250D01*
X103187500Y-61943250D01*
G36*
X103187500Y-61943250D02*
G01*
X102298500Y-60419250D01*
X104076500Y-60419250D01*
X103187500Y-61943250D01*
G37*
X101987500Y-62581250D02*
X101687500Y-62581250D01*
X101687500Y-61781250D01*
X101987500Y-61781250D01*
X101987500Y-62581250D01*
G36*
X101987500Y-62581250D02*
G01*
X101687500Y-62581250D01*
X101687500Y-61781250D01*
X101987500Y-61781250D01*
X101987500Y-62581250D01*
G37*
X104687500Y-62581250D02*
X104387500Y-62581250D01*
X104387500Y-61781250D01*
X104687500Y-61781250D01*
X104687500Y-62581250D01*
G36*
X104687500Y-62581250D02*
G01*
X104387500Y-62581250D01*
X104387500Y-61781250D01*
X104687500Y-61781250D01*
X104687500Y-62581250D01*
G37*
D11*
X101987500Y-39606250D02*
X101987500Y-44406250D01*
X101987500Y-44406250D02*
X104387500Y-44406250D01*
X102298500Y-42768250D02*
X104076500Y-42768250D01*
X104387500Y-39606250D02*
X101987500Y-39606250D01*
X104387500Y-44406250D02*
X104387500Y-39606250D01*
D12*
X103187500Y-42768250D02*
X102298500Y-41244250D01*
X104076500Y-41244250D01*
X103187500Y-42768250D01*
G36*
X103187500Y-42768250D02*
G01*
X102298500Y-41244250D01*
X104076500Y-41244250D01*
X103187500Y-42768250D01*
G37*
X101987500Y-43406250D02*
X101687500Y-43406250D01*
X101687500Y-42606250D01*
X101987500Y-42606250D01*
X101987500Y-43406250D01*
G36*
X101987500Y-43406250D02*
G01*
X101687500Y-43406250D01*
X101687500Y-42606250D01*
X101987500Y-42606250D01*
X101987500Y-43406250D01*
G37*
X104687500Y-43406250D02*
X104387500Y-43406250D01*
X104387500Y-42606250D01*
X104687500Y-42606250D01*
X104687500Y-43406250D01*
G36*
X104687500Y-43406250D02*
G01*
X104387500Y-43406250D01*
X104387500Y-42606250D01*
X104687500Y-42606250D01*
X104687500Y-43406250D01*
G37*
D11*
X82937500Y-117393750D02*
X82937500Y-122193750D01*
X82937500Y-122193750D02*
X85337500Y-122193750D01*
X83248500Y-120555750D02*
X85026500Y-120555750D01*
X85337500Y-117393750D02*
X82937500Y-117393750D01*
X85337500Y-122193750D02*
X85337500Y-117393750D01*
D12*
X84137500Y-120555750D02*
X83248500Y-119031750D01*
X85026500Y-119031750D01*
X84137500Y-120555750D01*
G36*
X84137500Y-120555750D02*
G01*
X83248500Y-119031750D01*
X85026500Y-119031750D01*
X84137500Y-120555750D01*
G37*
X82937500Y-121193750D02*
X82637500Y-121193750D01*
X82637500Y-120393750D01*
X82937500Y-120393750D01*
X82937500Y-121193750D01*
G36*
X82937500Y-121193750D02*
G01*
X82637500Y-121193750D01*
X82637500Y-120393750D01*
X82937500Y-120393750D01*
X82937500Y-121193750D01*
G37*
X85637500Y-121193750D02*
X85337500Y-121193750D01*
X85337500Y-120393750D01*
X85637500Y-120393750D01*
X85637500Y-121193750D01*
G36*
X85637500Y-121193750D02*
G01*
X85337500Y-121193750D01*
X85337500Y-120393750D01*
X85637500Y-120393750D01*
X85637500Y-121193750D01*
G37*
D11*
X243275000Y-77706250D02*
X243275000Y-82506250D01*
X243275000Y-82506250D02*
X245675000Y-82506250D01*
X243586000Y-80868250D02*
X245364000Y-80868250D01*
X245675000Y-77706250D02*
X243275000Y-77706250D01*
X245675000Y-82506250D02*
X245675000Y-77706250D01*
D12*
X244475000Y-80868250D02*
X243586000Y-79344250D01*
X245364000Y-79344250D01*
X244475000Y-80868250D01*
G36*
X244475000Y-80868250D02*
G01*
X243586000Y-79344250D01*
X245364000Y-79344250D01*
X244475000Y-80868250D01*
G37*
X243275000Y-81506250D02*
X242975000Y-81506250D01*
X242975000Y-80706250D01*
X243275000Y-80706250D01*
X243275000Y-81506250D01*
G36*
X243275000Y-81506250D02*
G01*
X242975000Y-81506250D01*
X242975000Y-80706250D01*
X243275000Y-80706250D01*
X243275000Y-81506250D01*
G37*
X245975000Y-81506250D02*
X245675000Y-81506250D01*
X245675000Y-80706250D01*
X245975000Y-80706250D01*
X245975000Y-81506250D01*
G36*
X245975000Y-81506250D02*
G01*
X245675000Y-81506250D01*
X245675000Y-80706250D01*
X245975000Y-80706250D01*
X245975000Y-81506250D01*
G37*
D11*
X101987500Y-96756250D02*
X101987500Y-101556250D01*
X101987500Y-101556250D02*
X104387500Y-101556250D01*
X102298500Y-99918250D02*
X104076500Y-99918250D01*
X104387500Y-96756250D02*
X101987500Y-96756250D01*
X104387500Y-101556250D02*
X104387500Y-96756250D01*
D12*
X103187500Y-99918250D02*
X102298500Y-98394250D01*
X104076500Y-98394250D01*
X103187500Y-99918250D01*
G36*
X103187500Y-99918250D02*
G01*
X102298500Y-98394250D01*
X104076500Y-98394250D01*
X103187500Y-99918250D01*
G37*
X101987500Y-100556250D02*
X101687500Y-100556250D01*
X101687500Y-99756250D01*
X101987500Y-99756250D01*
X101987500Y-100556250D01*
G36*
X101987500Y-100556250D02*
G01*
X101687500Y-100556250D01*
X101687500Y-99756250D01*
X101987500Y-99756250D01*
X101987500Y-100556250D01*
G37*
X104687500Y-100556250D02*
X104387500Y-100556250D01*
X104387500Y-99756250D01*
X104687500Y-99756250D01*
X104687500Y-100556250D01*
G36*
X104687500Y-100556250D02*
G01*
X104387500Y-100556250D01*
X104387500Y-99756250D01*
X104687500Y-99756250D01*
X104687500Y-100556250D01*
G37*
D11*
X262325000Y-79356250D02*
X262325000Y-84156250D01*
X262325000Y-84156250D02*
X264725000Y-84156250D01*
X262636000Y-82518250D02*
X264414000Y-82518250D01*
X264725000Y-79356250D02*
X262325000Y-79356250D01*
X264725000Y-84156250D02*
X264725000Y-79356250D01*
D12*
X263525000Y-82518250D02*
X262636000Y-80994250D01*
X264414000Y-80994250D01*
X263525000Y-82518250D01*
G36*
X263525000Y-82518250D02*
G01*
X262636000Y-80994250D01*
X264414000Y-80994250D01*
X263525000Y-82518250D01*
G37*
X262325000Y-83156250D02*
X262025000Y-83156250D01*
X262025000Y-82356250D01*
X262325000Y-82356250D01*
X262325000Y-83156250D01*
G36*
X262325000Y-83156250D02*
G01*
X262025000Y-83156250D01*
X262025000Y-82356250D01*
X262325000Y-82356250D01*
X262325000Y-83156250D01*
G37*
X265025000Y-83156250D02*
X264725000Y-83156250D01*
X264725000Y-82356250D01*
X265025000Y-82356250D01*
X265025000Y-83156250D01*
G36*
X265025000Y-83156250D02*
G01*
X264725000Y-83156250D01*
X264725000Y-82356250D01*
X265025000Y-82356250D01*
X265025000Y-83156250D01*
G37*
D11*
X224225000Y-98343750D02*
X224225000Y-103143750D01*
X224225000Y-103143750D02*
X226625000Y-103143750D01*
X224536000Y-101505750D02*
X226314000Y-101505750D01*
X226625000Y-98343750D02*
X224225000Y-98343750D01*
X226625000Y-103143750D02*
X226625000Y-98343750D01*
D12*
X225425000Y-101505750D02*
X224536000Y-99981750D01*
X226314000Y-99981750D01*
X225425000Y-101505750D01*
G36*
X225425000Y-101505750D02*
G01*
X224536000Y-99981750D01*
X226314000Y-99981750D01*
X225425000Y-101505750D01*
G37*
X224225000Y-102143750D02*
X223925000Y-102143750D01*
X223925000Y-101343750D01*
X224225000Y-101343750D01*
X224225000Y-102143750D01*
G36*
X224225000Y-102143750D02*
G01*
X223925000Y-102143750D01*
X223925000Y-101343750D01*
X224225000Y-101343750D01*
X224225000Y-102143750D01*
G37*
X226925000Y-102143750D02*
X226625000Y-102143750D01*
X226625000Y-101343750D01*
X226925000Y-101343750D01*
X226925000Y-102143750D01*
G36*
X226925000Y-102143750D02*
G01*
X226625000Y-102143750D01*
X226625000Y-101343750D01*
X226925000Y-101343750D01*
X226925000Y-102143750D01*
G37*
D11*
X40075000Y-61956250D02*
X40075000Y-66756250D01*
X40075000Y-66756250D02*
X42475000Y-66756250D01*
X40386000Y-65118250D02*
X42164000Y-65118250D01*
X42475000Y-61956250D02*
X40075000Y-61956250D01*
X42475000Y-66756250D02*
X42475000Y-61956250D01*
D12*
X41275000Y-65118250D02*
X40386000Y-63594250D01*
X42164000Y-63594250D01*
X41275000Y-65118250D01*
G36*
X41275000Y-65118250D02*
G01*
X40386000Y-63594250D01*
X42164000Y-63594250D01*
X41275000Y-65118250D01*
G37*
X40075000Y-65756250D02*
X39775000Y-65756250D01*
X39775000Y-64956250D01*
X40075000Y-64956250D01*
X40075000Y-65756250D01*
G36*
X40075000Y-65756250D02*
G01*
X39775000Y-65756250D01*
X39775000Y-64956250D01*
X40075000Y-64956250D01*
X40075000Y-65756250D01*
G37*
X42775000Y-65756250D02*
X42475000Y-65756250D01*
X42475000Y-64956250D01*
X42775000Y-64956250D01*
X42775000Y-65756250D01*
G36*
X42775000Y-65756250D02*
G01*
X42475000Y-65756250D01*
X42475000Y-64956250D01*
X42775000Y-64956250D01*
X42775000Y-65756250D01*
G37*
D11*
X205175000Y-99931250D02*
X205175000Y-104731250D01*
X205175000Y-104731250D02*
X207575000Y-104731250D01*
X205486000Y-103093250D02*
X207264000Y-103093250D01*
X207575000Y-99931250D02*
X205175000Y-99931250D01*
X207575000Y-104731250D02*
X207575000Y-99931250D01*
D12*
X206375000Y-103093250D02*
X205486000Y-101569250D01*
X207264000Y-101569250D01*
X206375000Y-103093250D01*
G36*
X206375000Y-103093250D02*
G01*
X205486000Y-101569250D01*
X207264000Y-101569250D01*
X206375000Y-103093250D01*
G37*
X205175000Y-103731250D02*
X204875000Y-103731250D01*
X204875000Y-102931250D01*
X205175000Y-102931250D01*
X205175000Y-103731250D01*
G36*
X205175000Y-103731250D02*
G01*
X204875000Y-103731250D01*
X204875000Y-102931250D01*
X205175000Y-102931250D01*
X205175000Y-103731250D01*
G37*
X207875000Y-103731250D02*
X207575000Y-103731250D01*
X207575000Y-102931250D01*
X207875000Y-102931250D01*
X207875000Y-103731250D01*
G36*
X207875000Y-103731250D02*
G01*
X207575000Y-103731250D01*
X207575000Y-102931250D01*
X207875000Y-102931250D01*
X207875000Y-103731250D01*
G37*
D11*
X140087500Y-99931250D02*
X140087500Y-104731250D01*
X140087500Y-104731250D02*
X142487500Y-104731250D01*
X140398500Y-103093250D02*
X142176500Y-103093250D01*
X142487500Y-99931250D02*
X140087500Y-99931250D01*
X142487500Y-104731250D02*
X142487500Y-99931250D01*
D12*
X141287500Y-103093250D02*
X140398500Y-101569250D01*
X142176500Y-101569250D01*
X141287500Y-103093250D01*
G36*
X141287500Y-103093250D02*
G01*
X140398500Y-101569250D01*
X142176500Y-101569250D01*
X141287500Y-103093250D01*
G37*
X140087500Y-103731250D02*
X139787500Y-103731250D01*
X139787500Y-102931250D01*
X140087500Y-102931250D01*
X140087500Y-103731250D01*
G36*
X140087500Y-103731250D02*
G01*
X139787500Y-103731250D01*
X139787500Y-102931250D01*
X140087500Y-102931250D01*
X140087500Y-103731250D01*
G37*
X142787500Y-103731250D02*
X142487500Y-103731250D01*
X142487500Y-102931250D01*
X142787500Y-102931250D01*
X142787500Y-103731250D01*
G36*
X142787500Y-103731250D02*
G01*
X142487500Y-103731250D01*
X142487500Y-102931250D01*
X142787500Y-102931250D01*
X142787500Y-103731250D01*
G37*
D11*
X140087500Y-42781250D02*
X140087500Y-47581250D01*
X140087500Y-47581250D02*
X142487500Y-47581250D01*
X140398500Y-45943250D02*
X142176500Y-45943250D01*
X142487500Y-42781250D02*
X140087500Y-42781250D01*
X142487500Y-47581250D02*
X142487500Y-42781250D01*
D12*
X141287500Y-45943250D02*
X140398500Y-44419250D01*
X142176500Y-44419250D01*
X141287500Y-45943250D01*
G36*
X141287500Y-45943250D02*
G01*
X140398500Y-44419250D01*
X142176500Y-44419250D01*
X141287500Y-45943250D01*
G37*
X140087500Y-46581250D02*
X139787500Y-46581250D01*
X139787500Y-45781250D01*
X140087500Y-45781250D01*
X140087500Y-46581250D01*
G36*
X140087500Y-46581250D02*
G01*
X139787500Y-46581250D01*
X139787500Y-45781250D01*
X140087500Y-45781250D01*
X140087500Y-46581250D01*
G37*
X142787500Y-46581250D02*
X142487500Y-46581250D01*
X142487500Y-45781250D01*
X142787500Y-45781250D01*
X142787500Y-46581250D01*
G36*
X142787500Y-46581250D02*
G01*
X142487500Y-46581250D01*
X142487500Y-45781250D01*
X142787500Y-45781250D01*
X142787500Y-46581250D01*
G37*
D11*
X82937500Y-98468750D02*
X82937500Y-103268750D01*
X82937500Y-103268750D02*
X85337500Y-103268750D01*
X83248500Y-101630750D02*
X85026500Y-101630750D01*
X85337500Y-98468750D02*
X82937500Y-98468750D01*
X85337500Y-103268750D02*
X85337500Y-98468750D01*
D12*
X84137500Y-101630750D02*
X83248500Y-100106750D01*
X85026500Y-100106750D01*
X84137500Y-101630750D01*
G36*
X84137500Y-101630750D02*
G01*
X83248500Y-100106750D01*
X85026500Y-100106750D01*
X84137500Y-101630750D01*
G37*
X82937500Y-102268750D02*
X82637500Y-102268750D01*
X82637500Y-101468750D01*
X82937500Y-101468750D01*
X82937500Y-102268750D01*
G36*
X82937500Y-102268750D02*
G01*
X82637500Y-102268750D01*
X82637500Y-101468750D01*
X82937500Y-101468750D01*
X82937500Y-102268750D01*
G37*
X85637500Y-102268750D02*
X85337500Y-102268750D01*
X85337500Y-101468750D01*
X85637500Y-101468750D01*
X85637500Y-102268750D01*
G36*
X85637500Y-102268750D02*
G01*
X85337500Y-102268750D01*
X85337500Y-101468750D01*
X85637500Y-101468750D01*
X85637500Y-102268750D01*
G37*
D11*
X82937500Y-79356250D02*
X82937500Y-84156250D01*
X82937500Y-84156250D02*
X85337500Y-84156250D01*
X83248500Y-82518250D02*
X85026500Y-82518250D01*
X85337500Y-79356250D02*
X82937500Y-79356250D01*
X85337500Y-84156250D02*
X85337500Y-79356250D01*
D12*
X84137500Y-82518250D02*
X83248500Y-80994250D01*
X85026500Y-80994250D01*
X84137500Y-82518250D01*
G36*
X84137500Y-82518250D02*
G01*
X83248500Y-80994250D01*
X85026500Y-80994250D01*
X84137500Y-82518250D01*
G37*
X82937500Y-83156250D02*
X82637500Y-83156250D01*
X82637500Y-82356250D01*
X82937500Y-82356250D01*
X82937500Y-83156250D01*
G36*
X82937500Y-83156250D02*
G01*
X82637500Y-83156250D01*
X82637500Y-82356250D01*
X82937500Y-82356250D01*
X82937500Y-83156250D01*
G37*
X85637500Y-83156250D02*
X85337500Y-83156250D01*
X85337500Y-82356250D01*
X85637500Y-82356250D01*
X85637500Y-83156250D01*
G36*
X85637500Y-83156250D02*
G01*
X85337500Y-83156250D01*
X85337500Y-82356250D01*
X85637500Y-82356250D01*
X85637500Y-83156250D01*
G37*
D11*
X121037500Y-117456250D02*
X121037500Y-122256250D01*
X121037500Y-122256250D02*
X123437500Y-122256250D01*
X121348500Y-120618250D02*
X123126500Y-120618250D01*
X123437500Y-117456250D02*
X121037500Y-117456250D01*
X123437500Y-122256250D02*
X123437500Y-117456250D01*
D12*
X122237500Y-120618250D02*
X121348500Y-119094250D01*
X123126500Y-119094250D01*
X122237500Y-120618250D01*
G36*
X122237500Y-120618250D02*
G01*
X121348500Y-119094250D01*
X123126500Y-119094250D01*
X122237500Y-120618250D01*
G37*
X121037500Y-121256250D02*
X120737500Y-121256250D01*
X120737500Y-120456250D01*
X121037500Y-120456250D01*
X121037500Y-121256250D01*
G36*
X121037500Y-121256250D02*
G01*
X120737500Y-121256250D01*
X120737500Y-120456250D01*
X121037500Y-120456250D01*
X121037500Y-121256250D01*
G37*
X123737500Y-121256250D02*
X123437500Y-121256250D01*
X123437500Y-120456250D01*
X123737500Y-120456250D01*
X123737500Y-121256250D01*
G36*
X123737500Y-121256250D02*
G01*
X123437500Y-121256250D01*
X123437500Y-120456250D01*
X123737500Y-120456250D01*
X123737500Y-121256250D01*
G37*
D11*
X40075000Y-42843750D02*
X40075000Y-47643750D01*
X40075000Y-47643750D02*
X42475000Y-47643750D01*
X40386000Y-46005750D02*
X42164000Y-46005750D01*
X42475000Y-42843750D02*
X40075000Y-42843750D01*
X42475000Y-47643750D02*
X42475000Y-42843750D01*
D12*
X41275000Y-46005750D02*
X40386000Y-44481750D01*
X42164000Y-44481750D01*
X41275000Y-46005750D01*
G36*
X41275000Y-46005750D02*
G01*
X40386000Y-44481750D01*
X42164000Y-44481750D01*
X41275000Y-46005750D01*
G37*
X40075000Y-46643750D02*
X39775000Y-46643750D01*
X39775000Y-45843750D01*
X40075000Y-45843750D01*
X40075000Y-46643750D01*
G36*
X40075000Y-46643750D02*
G01*
X39775000Y-46643750D01*
X39775000Y-45843750D01*
X40075000Y-45843750D01*
X40075000Y-46643750D01*
G37*
X42775000Y-46643750D02*
X42475000Y-46643750D01*
X42475000Y-45843750D01*
X42775000Y-45843750D01*
X42775000Y-46643750D01*
G36*
X42775000Y-46643750D02*
G01*
X42475000Y-46643750D01*
X42475000Y-45843750D01*
X42775000Y-45843750D01*
X42775000Y-46643750D01*
G37*
D11*
X300425000Y-61893750D02*
X300425000Y-66693750D01*
X300425000Y-66693750D02*
X302825000Y-66693750D01*
X300736000Y-65055750D02*
X302514000Y-65055750D01*
X302825000Y-61893750D02*
X300425000Y-61893750D01*
X302825000Y-66693750D02*
X302825000Y-61893750D01*
D12*
X301625000Y-65055750D02*
X300736000Y-63531750D01*
X302514000Y-63531750D01*
X301625000Y-65055750D01*
G36*
X301625000Y-65055750D02*
G01*
X300736000Y-63531750D01*
X302514000Y-63531750D01*
X301625000Y-65055750D01*
G37*
X300425000Y-65693750D02*
X300125000Y-65693750D01*
X300125000Y-64893750D01*
X300425000Y-64893750D01*
X300425000Y-65693750D01*
G36*
X300425000Y-65693750D02*
G01*
X300125000Y-65693750D01*
X300125000Y-64893750D01*
X300425000Y-64893750D01*
X300425000Y-65693750D01*
G37*
X303125000Y-65693750D02*
X302825000Y-65693750D01*
X302825000Y-64893750D01*
X303125000Y-64893750D01*
X303125000Y-65693750D01*
G36*
X303125000Y-65693750D02*
G01*
X302825000Y-65693750D01*
X302825000Y-64893750D01*
X303125000Y-64893750D01*
X303125000Y-65693750D01*
G37*
D11*
X63887500Y-42843750D02*
X63887500Y-47643750D01*
X63887500Y-47643750D02*
X66287500Y-47643750D01*
X64198500Y-46005750D02*
X65976500Y-46005750D01*
X66287500Y-42843750D02*
X63887500Y-42843750D01*
X66287500Y-47643750D02*
X66287500Y-42843750D01*
D12*
X65087500Y-46005750D02*
X64198500Y-44481750D01*
X65976500Y-44481750D01*
X65087500Y-46005750D01*
G36*
X65087500Y-46005750D02*
G01*
X64198500Y-44481750D01*
X65976500Y-44481750D01*
X65087500Y-46005750D01*
G37*
X63887500Y-46643750D02*
X63587500Y-46643750D01*
X63587500Y-45843750D01*
X63887500Y-45843750D01*
X63887500Y-46643750D01*
G36*
X63887500Y-46643750D02*
G01*
X63587500Y-46643750D01*
X63587500Y-45843750D01*
X63887500Y-45843750D01*
X63887500Y-46643750D01*
G37*
X66587500Y-46643750D02*
X66287500Y-46643750D01*
X66287500Y-45843750D01*
X66587500Y-45843750D01*
X66587500Y-46643750D01*
G36*
X66587500Y-46643750D02*
G01*
X66287500Y-46643750D01*
X66287500Y-45843750D01*
X66587500Y-45843750D01*
X66587500Y-46643750D01*
G37*
D11*
X205175000Y-61956250D02*
X205175000Y-66756250D01*
X205175000Y-66756250D02*
X207575000Y-66756250D01*
X205486000Y-65118250D02*
X207264000Y-65118250D01*
X207575000Y-61956250D02*
X205175000Y-61956250D01*
X207575000Y-66756250D02*
X207575000Y-61956250D01*
D12*
X206375000Y-65118250D02*
X205486000Y-63594250D01*
X207264000Y-63594250D01*
X206375000Y-65118250D01*
G36*
X206375000Y-65118250D02*
G01*
X205486000Y-63594250D01*
X207264000Y-63594250D01*
X206375000Y-65118250D01*
G37*
X205175000Y-65756250D02*
X204875000Y-65756250D01*
X204875000Y-64956250D01*
X205175000Y-64956250D01*
X205175000Y-65756250D01*
G36*
X205175000Y-65756250D02*
G01*
X204875000Y-65756250D01*
X204875000Y-64956250D01*
X205175000Y-64956250D01*
X205175000Y-65756250D01*
G37*
X207875000Y-65756250D02*
X207575000Y-65756250D01*
X207575000Y-64956250D01*
X207875000Y-64956250D01*
X207875000Y-65756250D01*
G36*
X207875000Y-65756250D02*
G01*
X207575000Y-65756250D01*
X207575000Y-64956250D01*
X207875000Y-64956250D01*
X207875000Y-65756250D01*
G37*
D11*
X101987500Y-77768750D02*
X101987500Y-82568750D01*
X101987500Y-82568750D02*
X104387500Y-82568750D01*
X102298500Y-80930750D02*
X104076500Y-80930750D01*
X104387500Y-77768750D02*
X101987500Y-77768750D01*
X104387500Y-82568750D02*
X104387500Y-77768750D01*
D12*
X103187500Y-80930750D02*
X102298500Y-79406750D01*
X104076500Y-79406750D01*
X103187500Y-80930750D01*
G36*
X103187500Y-80930750D02*
G01*
X102298500Y-79406750D01*
X104076500Y-79406750D01*
X103187500Y-80930750D01*
G37*
X101987500Y-81568750D02*
X101687500Y-81568750D01*
X101687500Y-80768750D01*
X101987500Y-80768750D01*
X101987500Y-81568750D01*
G36*
X101987500Y-81568750D02*
G01*
X101687500Y-81568750D01*
X101687500Y-80768750D01*
X101987500Y-80768750D01*
X101987500Y-81568750D01*
G37*
X104687500Y-81568750D02*
X104387500Y-81568750D01*
X104387500Y-80768750D01*
X104687500Y-80768750D01*
X104687500Y-81568750D01*
G36*
X104687500Y-81568750D02*
G01*
X104387500Y-81568750D01*
X104387500Y-80768750D01*
X104687500Y-80768750D01*
X104687500Y-81568750D01*
G37*
D11*
X224225000Y-60243750D02*
X224225000Y-65043750D01*
X224225000Y-65043750D02*
X226625000Y-65043750D01*
X224536000Y-63405750D02*
X226314000Y-63405750D01*
X226625000Y-60243750D02*
X224225000Y-60243750D01*
X226625000Y-65043750D02*
X226625000Y-60243750D01*
D12*
X225425000Y-63405750D02*
X224536000Y-61881750D01*
X226314000Y-61881750D01*
X225425000Y-63405750D01*
G36*
X225425000Y-63405750D02*
G01*
X224536000Y-61881750D01*
X226314000Y-61881750D01*
X225425000Y-63405750D01*
G37*
X224225000Y-64043750D02*
X223925000Y-64043750D01*
X223925000Y-63243750D01*
X224225000Y-63243750D01*
X224225000Y-64043750D01*
G36*
X224225000Y-64043750D02*
G01*
X223925000Y-64043750D01*
X223925000Y-63243750D01*
X224225000Y-63243750D01*
X224225000Y-64043750D01*
G37*
X226925000Y-64043750D02*
X226625000Y-64043750D01*
X226625000Y-63243750D01*
X226925000Y-63243750D01*
X226925000Y-64043750D01*
G36*
X226925000Y-64043750D02*
G01*
X226625000Y-64043750D01*
X226625000Y-63243750D01*
X226925000Y-63243750D01*
X226925000Y-64043750D01*
G37*
D11*
X101987500Y-115806250D02*
X101987500Y-120606250D01*
X101987500Y-120606250D02*
X104387500Y-120606250D01*
X102298500Y-118968250D02*
X104076500Y-118968250D01*
X104387500Y-115806250D02*
X101987500Y-115806250D01*
X104387500Y-120606250D02*
X104387500Y-115806250D01*
D12*
X103187500Y-118968250D02*
X102298500Y-117444250D01*
X104076500Y-117444250D01*
X103187500Y-118968250D01*
G36*
X103187500Y-118968250D02*
G01*
X102298500Y-117444250D01*
X104076500Y-117444250D01*
X103187500Y-118968250D01*
G37*
X101987500Y-119606250D02*
X101687500Y-119606250D01*
X101687500Y-118806250D01*
X101987500Y-118806250D01*
X101987500Y-119606250D01*
G36*
X101987500Y-119606250D02*
G01*
X101687500Y-119606250D01*
X101687500Y-118806250D01*
X101987500Y-118806250D01*
X101987500Y-119606250D01*
G37*
X104687500Y-119606250D02*
X104387500Y-119606250D01*
X104387500Y-118806250D01*
X104687500Y-118806250D01*
X104687500Y-119606250D01*
G36*
X104687500Y-119606250D02*
G01*
X104387500Y-119606250D01*
X104387500Y-118806250D01*
X104687500Y-118806250D01*
X104687500Y-119606250D01*
G37*
D11*
X243275000Y-115806250D02*
X243275000Y-120606250D01*
X243275000Y-120606250D02*
X245675000Y-120606250D01*
X243586000Y-118968250D02*
X245364000Y-118968250D01*
X245675000Y-115806250D02*
X243275000Y-115806250D01*
X245675000Y-120606250D02*
X245675000Y-115806250D01*
D12*
X244475000Y-118968250D02*
X243586000Y-117444250D01*
X245364000Y-117444250D01*
X244475000Y-118968250D01*
G36*
X244475000Y-118968250D02*
G01*
X243586000Y-117444250D01*
X245364000Y-117444250D01*
X244475000Y-118968250D01*
G37*
X243275000Y-119606250D02*
X242975000Y-119606250D01*
X242975000Y-118806250D01*
X243275000Y-118806250D01*
X243275000Y-119606250D01*
G36*
X243275000Y-119606250D02*
G01*
X242975000Y-119606250D01*
X242975000Y-118806250D01*
X243275000Y-118806250D01*
X243275000Y-119606250D01*
G37*
X245975000Y-119606250D02*
X245675000Y-119606250D01*
X245675000Y-118806250D01*
X245975000Y-118806250D01*
X245975000Y-119606250D01*
G36*
X245975000Y-119606250D02*
G01*
X245675000Y-119606250D01*
X245675000Y-118806250D01*
X245975000Y-118806250D01*
X245975000Y-119606250D01*
G37*
D11*
X82937500Y-60306250D02*
X82937500Y-65106250D01*
X82937500Y-65106250D02*
X85337500Y-65106250D01*
X83248500Y-63468250D02*
X85026500Y-63468250D01*
X85337500Y-60306250D02*
X82937500Y-60306250D01*
X85337500Y-65106250D02*
X85337500Y-60306250D01*
D12*
X84137500Y-63468250D02*
X83248500Y-61944250D01*
X85026500Y-61944250D01*
X84137500Y-63468250D01*
G36*
X84137500Y-63468250D02*
G01*
X83248500Y-61944250D01*
X85026500Y-61944250D01*
X84137500Y-63468250D01*
G37*
X82937500Y-64106250D02*
X82637500Y-64106250D01*
X82637500Y-63306250D01*
X82937500Y-63306250D01*
X82937500Y-64106250D01*
G36*
X82937500Y-64106250D02*
G01*
X82637500Y-64106250D01*
X82637500Y-63306250D01*
X82937500Y-63306250D01*
X82937500Y-64106250D01*
G37*
X85637500Y-64106250D02*
X85337500Y-64106250D01*
X85337500Y-63306250D01*
X85637500Y-63306250D01*
X85637500Y-64106250D01*
G36*
X85637500Y-64106250D02*
G01*
X85337500Y-64106250D01*
X85337500Y-63306250D01*
X85637500Y-63306250D01*
X85637500Y-64106250D01*
G37*
D11*
X262325000Y-60306250D02*
X262325000Y-65106250D01*
X262325000Y-65106250D02*
X264725000Y-65106250D01*
X262636000Y-63468250D02*
X264414000Y-63468250D01*
X264725000Y-60306250D02*
X262325000Y-60306250D01*
X264725000Y-65106250D02*
X264725000Y-60306250D01*
D12*
X263525000Y-63468250D02*
X262636000Y-61944250D01*
X264414000Y-61944250D01*
X263525000Y-63468250D01*
G36*
X263525000Y-63468250D02*
G01*
X262636000Y-61944250D01*
X264414000Y-61944250D01*
X263525000Y-63468250D01*
G37*
X262325000Y-64106250D02*
X262025000Y-64106250D01*
X262025000Y-63306250D01*
X262325000Y-63306250D01*
X262325000Y-64106250D01*
G36*
X262325000Y-64106250D02*
G01*
X262025000Y-64106250D01*
X262025000Y-63306250D01*
X262325000Y-63306250D01*
X262325000Y-64106250D01*
G37*
X265025000Y-64106250D02*
X264725000Y-64106250D01*
X264725000Y-63306250D01*
X265025000Y-63306250D01*
X265025000Y-64106250D01*
G36*
X265025000Y-64106250D02*
G01*
X264725000Y-64106250D01*
X264725000Y-63306250D01*
X265025000Y-63306250D01*
X265025000Y-64106250D01*
G37*
D11*
X281375000Y-119043750D02*
X281375000Y-123843750D01*
X281375000Y-123843750D02*
X283775000Y-123843750D01*
X281686000Y-122205750D02*
X283464000Y-122205750D01*
X283775000Y-119043750D02*
X281375000Y-119043750D01*
X283775000Y-123843750D02*
X283775000Y-119043750D01*
D12*
X282575000Y-122205750D02*
X281686000Y-120681750D01*
X283464000Y-120681750D01*
X282575000Y-122205750D01*
G36*
X282575000Y-122205750D02*
G01*
X281686000Y-120681750D01*
X283464000Y-120681750D01*
X282575000Y-122205750D01*
G37*
X281375000Y-122843750D02*
X281075000Y-122843750D01*
X281075000Y-122043750D01*
X281375000Y-122043750D01*
X281375000Y-122843750D01*
G36*
X281375000Y-122843750D02*
G01*
X281075000Y-122843750D01*
X281075000Y-122043750D01*
X281375000Y-122043750D01*
X281375000Y-122843750D01*
G37*
X284075000Y-122843750D02*
X283775000Y-122843750D01*
X283775000Y-122043750D01*
X284075000Y-122043750D01*
X284075000Y-122843750D01*
G36*
X284075000Y-122843750D02*
G01*
X283775000Y-122843750D01*
X283775000Y-122043750D01*
X284075000Y-122043750D01*
X284075000Y-122843750D01*
G37*
D11*
X205175000Y-80943750D02*
X205175000Y-85743750D01*
X205175000Y-85743750D02*
X207575000Y-85743750D01*
X205486000Y-84105750D02*
X207264000Y-84105750D01*
X207575000Y-80943750D02*
X205175000Y-80943750D01*
X207575000Y-85743750D02*
X207575000Y-80943750D01*
D12*
X206375000Y-84105750D02*
X205486000Y-82581750D01*
X207264000Y-82581750D01*
X206375000Y-84105750D01*
G36*
X206375000Y-84105750D02*
G01*
X205486000Y-82581750D01*
X207264000Y-82581750D01*
X206375000Y-84105750D01*
G37*
X205175000Y-84743750D02*
X204875000Y-84743750D01*
X204875000Y-83943750D01*
X205175000Y-83943750D01*
X205175000Y-84743750D01*
G36*
X205175000Y-84743750D02*
G01*
X204875000Y-84743750D01*
X204875000Y-83943750D01*
X205175000Y-83943750D01*
X205175000Y-84743750D01*
G37*
X207875000Y-84743750D02*
X207575000Y-84743750D01*
X207575000Y-83943750D01*
X207875000Y-83943750D01*
X207875000Y-84743750D01*
G36*
X207875000Y-84743750D02*
G01*
X207575000Y-84743750D01*
X207575000Y-83943750D01*
X207875000Y-83943750D01*
X207875000Y-84743750D01*
G37*
D11*
X262325000Y-117393750D02*
X262325000Y-122193750D01*
X262325000Y-122193750D02*
X264725000Y-122193750D01*
X262636000Y-120555750D02*
X264414000Y-120555750D01*
X264725000Y-117393750D02*
X262325000Y-117393750D01*
X264725000Y-122193750D02*
X264725000Y-117393750D01*
D12*
X263525000Y-120555750D02*
X262636000Y-119031750D01*
X264414000Y-119031750D01*
X263525000Y-120555750D01*
G36*
X263525000Y-120555750D02*
G01*
X262636000Y-119031750D01*
X264414000Y-119031750D01*
X263525000Y-120555750D01*
G37*
X262325000Y-121193750D02*
X262025000Y-121193750D01*
X262025000Y-120393750D01*
X262325000Y-120393750D01*
X262325000Y-121193750D01*
G36*
X262325000Y-121193750D02*
G01*
X262025000Y-121193750D01*
X262025000Y-120393750D01*
X262325000Y-120393750D01*
X262325000Y-121193750D01*
G37*
X265025000Y-121193750D02*
X264725000Y-121193750D01*
X264725000Y-120393750D01*
X265025000Y-120393750D01*
X265025000Y-121193750D01*
G36*
X265025000Y-121193750D02*
G01*
X264725000Y-121193750D01*
X264725000Y-120393750D01*
X265025000Y-120393750D01*
X265025000Y-121193750D01*
G37*
D11*
X205175000Y-42781250D02*
X205175000Y-47581250D01*
X205175000Y-47581250D02*
X207575000Y-47581250D01*
X205486000Y-45943250D02*
X207264000Y-45943250D01*
X207575000Y-42781250D02*
X205175000Y-42781250D01*
X207575000Y-47581250D02*
X207575000Y-42781250D01*
D12*
X206375000Y-45943250D02*
X205486000Y-44419250D01*
X207264000Y-44419250D01*
X206375000Y-45943250D01*
G36*
X206375000Y-45943250D02*
G01*
X205486000Y-44419250D01*
X207264000Y-44419250D01*
X206375000Y-45943250D01*
G37*
X205175000Y-46581250D02*
X204875000Y-46581250D01*
X204875000Y-45781250D01*
X205175000Y-45781250D01*
X205175000Y-46581250D01*
G36*
X205175000Y-46581250D02*
G01*
X204875000Y-46581250D01*
X204875000Y-45781250D01*
X205175000Y-45781250D01*
X205175000Y-46581250D01*
G37*
X207875000Y-46581250D02*
X207575000Y-46581250D01*
X207575000Y-45781250D01*
X207875000Y-45781250D01*
X207875000Y-46581250D01*
G36*
X207875000Y-46581250D02*
G01*
X207575000Y-46581250D01*
X207575000Y-45781250D01*
X207875000Y-45781250D01*
X207875000Y-46581250D01*
G37*
D11*
X224225000Y-117456250D02*
X224225000Y-122256250D01*
X224225000Y-122256250D02*
X226625000Y-122256250D01*
X224536000Y-120618250D02*
X226314000Y-120618250D01*
X226625000Y-117456250D02*
X224225000Y-117456250D01*
X226625000Y-122256250D02*
X226625000Y-117456250D01*
D12*
X225425000Y-120618250D02*
X224536000Y-119094250D01*
X226314000Y-119094250D01*
X225425000Y-120618250D01*
G36*
X225425000Y-120618250D02*
G01*
X224536000Y-119094250D01*
X226314000Y-119094250D01*
X225425000Y-120618250D01*
G37*
X224225000Y-121256250D02*
X223925000Y-121256250D01*
X223925000Y-120456250D01*
X224225000Y-120456250D01*
X224225000Y-121256250D01*
G36*
X224225000Y-121256250D02*
G01*
X223925000Y-121256250D01*
X223925000Y-120456250D01*
X224225000Y-120456250D01*
X224225000Y-121256250D01*
G37*
X226925000Y-121256250D02*
X226625000Y-121256250D01*
X226625000Y-120456250D01*
X226925000Y-120456250D01*
X226925000Y-121256250D01*
G36*
X226925000Y-121256250D02*
G01*
X226625000Y-121256250D01*
X226625000Y-120456250D01*
X226925000Y-120456250D01*
X226925000Y-121256250D01*
G37*
D11*
X200412500Y-119043750D02*
X200412500Y-123843750D01*
X200412500Y-123843750D02*
X202812500Y-123843750D01*
X200723500Y-122205750D02*
X202501500Y-122205750D01*
X202812500Y-119043750D02*
X200412500Y-119043750D01*
X202812500Y-123843750D02*
X202812500Y-119043750D01*
D12*
X201612500Y-122205750D02*
X200723500Y-120681750D01*
X202501500Y-120681750D01*
X201612500Y-122205750D01*
G36*
X201612500Y-122205750D02*
G01*
X200723500Y-120681750D01*
X202501500Y-120681750D01*
X201612500Y-122205750D01*
G37*
X200412500Y-122843750D02*
X200112500Y-122843750D01*
X200112500Y-122043750D01*
X200412500Y-122043750D01*
X200412500Y-122843750D01*
G36*
X200412500Y-122843750D02*
G01*
X200112500Y-122843750D01*
X200112500Y-122043750D01*
X200412500Y-122043750D01*
X200412500Y-122843750D01*
G37*
X203112500Y-122843750D02*
X202812500Y-122843750D01*
X202812500Y-122043750D01*
X203112500Y-122043750D01*
X203112500Y-122843750D01*
G36*
X203112500Y-122843750D02*
G01*
X202812500Y-122843750D01*
X202812500Y-122043750D01*
X203112500Y-122043750D01*
X203112500Y-122843750D01*
G37*
D11*
X140087500Y-61893750D02*
X140087500Y-66693750D01*
X140087500Y-66693750D02*
X142487500Y-66693750D01*
X140398500Y-65055750D02*
X142176500Y-65055750D01*
X142487500Y-61893750D02*
X140087500Y-61893750D01*
X142487500Y-66693750D02*
X142487500Y-61893750D01*
D12*
X141287500Y-65055750D02*
X140398500Y-63531750D01*
X142176500Y-63531750D01*
X141287500Y-65055750D01*
G36*
X141287500Y-65055750D02*
G01*
X140398500Y-63531750D01*
X142176500Y-63531750D01*
X141287500Y-65055750D01*
G37*
X140087500Y-65693750D02*
X139787500Y-65693750D01*
X139787500Y-64893750D01*
X140087500Y-64893750D01*
X140087500Y-65693750D01*
G36*
X140087500Y-65693750D02*
G01*
X139787500Y-65693750D01*
X139787500Y-64893750D01*
X140087500Y-64893750D01*
X140087500Y-65693750D01*
G37*
X142787500Y-65693750D02*
X142487500Y-65693750D01*
X142487500Y-64893750D01*
X142787500Y-64893750D01*
X142787500Y-65693750D01*
G36*
X142787500Y-65693750D02*
G01*
X142487500Y-65693750D01*
X142487500Y-64893750D01*
X142787500Y-64893750D01*
X142787500Y-65693750D01*
G37*
D11*
X262325000Y-98343750D02*
X262325000Y-103143750D01*
X262325000Y-103143750D02*
X264725000Y-103143750D01*
X262636000Y-101505750D02*
X264414000Y-101505750D01*
X264725000Y-98343750D02*
X262325000Y-98343750D01*
X264725000Y-103143750D02*
X264725000Y-98343750D01*
D12*
X263525000Y-101505750D02*
X262636000Y-99981750D01*
X264414000Y-99981750D01*
X263525000Y-101505750D01*
G36*
X263525000Y-101505750D02*
G01*
X262636000Y-99981750D01*
X264414000Y-99981750D01*
X263525000Y-101505750D01*
G37*
X262325000Y-102143750D02*
X262025000Y-102143750D01*
X262025000Y-101343750D01*
X262325000Y-101343750D01*
X262325000Y-102143750D01*
G36*
X262325000Y-102143750D02*
G01*
X262025000Y-102143750D01*
X262025000Y-101343750D01*
X262325000Y-101343750D01*
X262325000Y-102143750D01*
G37*
X265025000Y-102143750D02*
X264725000Y-102143750D01*
X264725000Y-101343750D01*
X265025000Y-101343750D01*
X265025000Y-102143750D01*
G36*
X265025000Y-102143750D02*
G01*
X264725000Y-102143750D01*
X264725000Y-101343750D01*
X265025000Y-101343750D01*
X265025000Y-102143750D01*
G37*
D11*
X63887500Y-99931250D02*
X63887500Y-104731250D01*
X63887500Y-104731250D02*
X66287500Y-104731250D01*
X64198500Y-103093250D02*
X65976500Y-103093250D01*
X66287500Y-99931250D02*
X63887500Y-99931250D01*
X66287500Y-104731250D02*
X66287500Y-99931250D01*
D12*
X65087500Y-103093250D02*
X64198500Y-101569250D01*
X65976500Y-101569250D01*
X65087500Y-103093250D01*
G36*
X65087500Y-103093250D02*
G01*
X64198500Y-101569250D01*
X65976500Y-101569250D01*
X65087500Y-103093250D01*
G37*
X63887500Y-103731250D02*
X63587500Y-103731250D01*
X63587500Y-102931250D01*
X63887500Y-102931250D01*
X63887500Y-103731250D01*
G36*
X63887500Y-103731250D02*
G01*
X63587500Y-103731250D01*
X63587500Y-102931250D01*
X63887500Y-102931250D01*
X63887500Y-103731250D01*
G37*
X66587500Y-103731250D02*
X66287500Y-103731250D01*
X66287500Y-102931250D01*
X66587500Y-102931250D01*
X66587500Y-103731250D01*
G36*
X66587500Y-103731250D02*
G01*
X66287500Y-103731250D01*
X66287500Y-102931250D01*
X66587500Y-102931250D01*
X66587500Y-103731250D01*
G37*
D11*
X300425000Y-119043750D02*
X300425000Y-123843750D01*
X300425000Y-123843750D02*
X302825000Y-123843750D01*
X300736000Y-122205750D02*
X302514000Y-122205750D01*
X302825000Y-119043750D02*
X300425000Y-119043750D01*
X302825000Y-123843750D02*
X302825000Y-119043750D01*
D12*
X301625000Y-122205750D02*
X300736000Y-120681750D01*
X302514000Y-120681750D01*
X301625000Y-122205750D01*
G36*
X301625000Y-122205750D02*
G01*
X300736000Y-120681750D01*
X302514000Y-120681750D01*
X301625000Y-122205750D01*
G37*
X300425000Y-122843750D02*
X300125000Y-122843750D01*
X300125000Y-122043750D01*
X300425000Y-122043750D01*
X300425000Y-122843750D01*
G36*
X300425000Y-122843750D02*
G01*
X300125000Y-122843750D01*
X300125000Y-122043750D01*
X300425000Y-122043750D01*
X300425000Y-122843750D01*
G37*
X303125000Y-122843750D02*
X302825000Y-122843750D01*
X302825000Y-122043750D01*
X303125000Y-122043750D01*
X303125000Y-122843750D01*
G36*
X303125000Y-122843750D02*
G01*
X302825000Y-122843750D01*
X302825000Y-122043750D01*
X303125000Y-122043750D01*
X303125000Y-122843750D01*
G37*
D11*
X144850000Y-119043750D02*
X144850000Y-123843750D01*
X144850000Y-123843750D02*
X147250000Y-123843750D01*
X145161000Y-122205750D02*
X146939000Y-122205750D01*
X147250000Y-119043750D02*
X144850000Y-119043750D01*
X147250000Y-123843750D02*
X147250000Y-119043750D01*
D12*
X146050000Y-122205750D02*
X145161000Y-120681750D01*
X146939000Y-120681750D01*
X146050000Y-122205750D01*
G36*
X146050000Y-122205750D02*
G01*
X145161000Y-120681750D01*
X146939000Y-120681750D01*
X146050000Y-122205750D01*
G37*
X144850000Y-122843750D02*
X144550000Y-122843750D01*
X144550000Y-122043750D01*
X144850000Y-122043750D01*
X144850000Y-122843750D01*
G36*
X144850000Y-122843750D02*
G01*
X144550000Y-122843750D01*
X144550000Y-122043750D01*
X144850000Y-122043750D01*
X144850000Y-122843750D01*
G37*
X147550000Y-122843750D02*
X147250000Y-122843750D01*
X147250000Y-122043750D01*
X147550000Y-122043750D01*
X147550000Y-122843750D01*
G36*
X147550000Y-122843750D02*
G01*
X147250000Y-122843750D01*
X147250000Y-122043750D01*
X147550000Y-122043750D01*
X147550000Y-122843750D01*
G37*
D11*
X262325000Y-41256250D02*
X262325000Y-46056250D01*
X262325000Y-46056250D02*
X264725000Y-46056250D01*
X262636000Y-44418250D02*
X264414000Y-44418250D01*
X264725000Y-41256250D02*
X262325000Y-41256250D01*
X264725000Y-46056250D02*
X264725000Y-41256250D01*
D12*
X263525000Y-44418250D02*
X262636000Y-42894250D01*
X264414000Y-42894250D01*
X263525000Y-44418250D01*
G36*
X263525000Y-44418250D02*
G01*
X262636000Y-42894250D01*
X264414000Y-42894250D01*
X263525000Y-44418250D01*
G37*
X262325000Y-45056250D02*
X262025000Y-45056250D01*
X262025000Y-44256250D01*
X262325000Y-44256250D01*
X262325000Y-45056250D01*
G36*
X262325000Y-45056250D02*
G01*
X262025000Y-45056250D01*
X262025000Y-44256250D01*
X262325000Y-44256250D01*
X262325000Y-45056250D01*
G37*
X265025000Y-45056250D02*
X264725000Y-45056250D01*
X264725000Y-44256250D01*
X265025000Y-44256250D01*
X265025000Y-45056250D01*
G36*
X265025000Y-45056250D02*
G01*
X264725000Y-45056250D01*
X264725000Y-44256250D01*
X265025000Y-44256250D01*
X265025000Y-45056250D01*
G37*
D11*
X121037500Y-41318750D02*
X121037500Y-46118750D01*
X121037500Y-46118750D02*
X123437500Y-46118750D01*
X121348500Y-44480750D02*
X123126500Y-44480750D01*
X123437500Y-41318750D02*
X121037500Y-41318750D01*
X123437500Y-46118750D02*
X123437500Y-41318750D01*
D12*
X122237500Y-44480750D02*
X121348500Y-42956750D01*
X123126500Y-42956750D01*
X122237500Y-44480750D01*
G36*
X122237500Y-44480750D02*
G01*
X121348500Y-42956750D01*
X123126500Y-42956750D01*
X122237500Y-44480750D01*
G37*
X121037500Y-45118750D02*
X120737500Y-45118750D01*
X120737500Y-44318750D01*
X121037500Y-44318750D01*
X121037500Y-45118750D01*
G36*
X121037500Y-45118750D02*
G01*
X120737500Y-45118750D01*
X120737500Y-44318750D01*
X121037500Y-44318750D01*
X121037500Y-45118750D01*
G37*
X123737500Y-45118750D02*
X123437500Y-45118750D01*
X123437500Y-44318750D01*
X123737500Y-44318750D01*
X123737500Y-45118750D01*
G36*
X123737500Y-45118750D02*
G01*
X123437500Y-45118750D01*
X123437500Y-44318750D01*
X123737500Y-44318750D01*
X123737500Y-45118750D01*
G37*
D11*
X243275000Y-58718750D02*
X243275000Y-63518750D01*
X243275000Y-63518750D02*
X245675000Y-63518750D01*
X243586000Y-61880750D02*
X245364000Y-61880750D01*
X245675000Y-58718750D02*
X243275000Y-58718750D01*
X245675000Y-63518750D02*
X245675000Y-58718750D01*
D12*
X244475000Y-61880750D02*
X243586000Y-60356750D01*
X245364000Y-60356750D01*
X244475000Y-61880750D01*
G36*
X244475000Y-61880750D02*
G01*
X243586000Y-60356750D01*
X245364000Y-60356750D01*
X244475000Y-61880750D01*
G37*
X243275000Y-62518750D02*
X242975000Y-62518750D01*
X242975000Y-61718750D01*
X243275000Y-61718750D01*
X243275000Y-62518750D01*
G36*
X243275000Y-62518750D02*
G01*
X242975000Y-62518750D01*
X242975000Y-61718750D01*
X243275000Y-61718750D01*
X243275000Y-62518750D01*
G37*
X245975000Y-62518750D02*
X245675000Y-62518750D01*
X245675000Y-61718750D01*
X245975000Y-61718750D01*
X245975000Y-62518750D01*
G36*
X245975000Y-62518750D02*
G01*
X245675000Y-62518750D01*
X245675000Y-61718750D01*
X245975000Y-61718750D01*
X245975000Y-62518750D01*
G37*
D11*
X281375000Y-61893750D02*
X281375000Y-66693750D01*
X281375000Y-66693750D02*
X283775000Y-66693750D01*
X281686000Y-65055750D02*
X283464000Y-65055750D01*
X283775000Y-61893750D02*
X281375000Y-61893750D01*
X283775000Y-66693750D02*
X283775000Y-61893750D01*
D12*
X282575000Y-65055750D02*
X281686000Y-63531750D01*
X283464000Y-63531750D01*
X282575000Y-65055750D01*
G36*
X282575000Y-65055750D02*
G01*
X281686000Y-63531750D01*
X283464000Y-63531750D01*
X282575000Y-65055750D01*
G37*
X281375000Y-65693750D02*
X281075000Y-65693750D01*
X281075000Y-64893750D01*
X281375000Y-64893750D01*
X281375000Y-65693750D01*
G36*
X281375000Y-65693750D02*
G01*
X281075000Y-65693750D01*
X281075000Y-64893750D01*
X281375000Y-64893750D01*
X281375000Y-65693750D01*
G37*
X284075000Y-65693750D02*
X283775000Y-65693750D01*
X283775000Y-64893750D01*
X284075000Y-64893750D01*
X284075000Y-65693750D01*
G36*
X284075000Y-65693750D02*
G01*
X283775000Y-65693750D01*
X283775000Y-64893750D01*
X284075000Y-64893750D01*
X284075000Y-65693750D01*
G37*
D11*
X300425000Y-42781250D02*
X300425000Y-47581250D01*
X300425000Y-47581250D02*
X302825000Y-47581250D01*
X300736000Y-45943250D02*
X302514000Y-45943250D01*
X302825000Y-42781250D02*
X300425000Y-42781250D01*
X302825000Y-47581250D02*
X302825000Y-42781250D01*
D12*
X301625000Y-45943250D02*
X300736000Y-44419250D01*
X302514000Y-44419250D01*
X301625000Y-45943250D01*
G36*
X301625000Y-45943250D02*
G01*
X300736000Y-44419250D01*
X302514000Y-44419250D01*
X301625000Y-45943250D01*
G37*
X300425000Y-46581250D02*
X300125000Y-46581250D01*
X300125000Y-45781250D01*
X300425000Y-45781250D01*
X300425000Y-46581250D01*
G36*
X300425000Y-46581250D02*
G01*
X300125000Y-46581250D01*
X300125000Y-45781250D01*
X300425000Y-45781250D01*
X300425000Y-46581250D01*
G37*
X303125000Y-46581250D02*
X302825000Y-46581250D01*
X302825000Y-45781250D01*
X303125000Y-45781250D01*
X303125000Y-46581250D01*
G36*
X303125000Y-46581250D02*
G01*
X302825000Y-46581250D01*
X302825000Y-45781250D01*
X303125000Y-45781250D01*
X303125000Y-46581250D01*
G37*
D11*
X319475000Y-42843750D02*
X319475000Y-47643750D01*
X319475000Y-47643750D02*
X321875000Y-47643750D01*
X319786000Y-46005750D02*
X321564000Y-46005750D01*
X321875000Y-42843750D02*
X319475000Y-42843750D01*
X321875000Y-47643750D02*
X321875000Y-42843750D01*
D12*
X320675000Y-46005750D02*
X319786000Y-44481750D01*
X321564000Y-44481750D01*
X320675000Y-46005750D01*
G36*
X320675000Y-46005750D02*
G01*
X319786000Y-44481750D01*
X321564000Y-44481750D01*
X320675000Y-46005750D01*
G37*
X319475000Y-46643750D02*
X319175000Y-46643750D01*
X319175000Y-45843750D01*
X319475000Y-45843750D01*
X319475000Y-46643750D01*
G36*
X319475000Y-46643750D02*
G01*
X319175000Y-46643750D01*
X319175000Y-45843750D01*
X319475000Y-45843750D01*
X319475000Y-46643750D01*
G37*
X322175000Y-46643750D02*
X321875000Y-46643750D01*
X321875000Y-45843750D01*
X322175000Y-45843750D01*
X322175000Y-46643750D01*
G36*
X322175000Y-46643750D02*
G01*
X321875000Y-46643750D01*
X321875000Y-45843750D01*
X322175000Y-45843750D01*
X322175000Y-46643750D01*
G37*
D11*
X63887500Y-61893750D02*
X63887500Y-66693750D01*
X63887500Y-66693750D02*
X66287500Y-66693750D01*
X64198500Y-65055750D02*
X65976500Y-65055750D01*
X66287500Y-61893750D02*
X63887500Y-61893750D01*
X66287500Y-66693750D02*
X66287500Y-61893750D01*
D12*
X65087500Y-65055750D02*
X64198500Y-63531750D01*
X65976500Y-63531750D01*
X65087500Y-65055750D01*
G36*
X65087500Y-65055750D02*
G01*
X64198500Y-63531750D01*
X65976500Y-63531750D01*
X65087500Y-65055750D01*
G37*
X63887500Y-65693750D02*
X63587500Y-65693750D01*
X63587500Y-64893750D01*
X63887500Y-64893750D01*
X63887500Y-65693750D01*
G36*
X63887500Y-65693750D02*
G01*
X63587500Y-65693750D01*
X63587500Y-64893750D01*
X63887500Y-64893750D01*
X63887500Y-65693750D01*
G37*
X66587500Y-65693750D02*
X66287500Y-65693750D01*
X66287500Y-64893750D01*
X66587500Y-64893750D01*
X66587500Y-65693750D01*
G36*
X66587500Y-65693750D02*
G01*
X66287500Y-65693750D01*
X66287500Y-64893750D01*
X66587500Y-64893750D01*
X66587500Y-65693750D01*
G37*
D11*
X121037500Y-60306250D02*
X121037500Y-65106250D01*
X121037500Y-65106250D02*
X123437500Y-65106250D01*
X121348500Y-63468250D02*
X123126500Y-63468250D01*
X123437500Y-60306250D02*
X121037500Y-60306250D01*
X123437500Y-65106250D02*
X123437500Y-60306250D01*
D12*
X122237500Y-63468250D02*
X121348500Y-61944250D01*
X123126500Y-61944250D01*
X122237500Y-63468250D01*
G36*
X122237500Y-63468250D02*
G01*
X121348500Y-61944250D01*
X123126500Y-61944250D01*
X122237500Y-63468250D01*
G37*
X121037500Y-64106250D02*
X120737500Y-64106250D01*
X120737500Y-63306250D01*
X121037500Y-63306250D01*
X121037500Y-64106250D01*
G36*
X121037500Y-64106250D02*
G01*
X120737500Y-64106250D01*
X120737500Y-63306250D01*
X121037500Y-63306250D01*
X121037500Y-64106250D01*
G37*
X123737500Y-64106250D02*
X123437500Y-64106250D01*
X123437500Y-63306250D01*
X123737500Y-63306250D01*
X123737500Y-64106250D01*
G36*
X123737500Y-64106250D02*
G01*
X123437500Y-64106250D01*
X123437500Y-63306250D01*
X123737500Y-63306250D01*
X123737500Y-64106250D01*
G37*
D11*
X324237500Y-80943750D02*
X324237500Y-85743750D01*
X324237500Y-85743750D02*
X326637500Y-85743750D01*
X324548500Y-84105750D02*
X326326500Y-84105750D01*
X326637500Y-80943750D02*
X324237500Y-80943750D01*
X326637500Y-85743750D02*
X326637500Y-80943750D01*
D12*
X325437500Y-84105750D02*
X324548500Y-82581750D01*
X326326500Y-82581750D01*
X325437500Y-84105750D01*
G36*
X325437500Y-84105750D02*
G01*
X324548500Y-82581750D01*
X326326500Y-82581750D01*
X325437500Y-84105750D01*
G37*
X324237500Y-84743750D02*
X323937500Y-84743750D01*
X323937500Y-83943750D01*
X324237500Y-83943750D01*
X324237500Y-84743750D01*
G36*
X324237500Y-84743750D02*
G01*
X323937500Y-84743750D01*
X323937500Y-83943750D01*
X324237500Y-83943750D01*
X324237500Y-84743750D01*
G37*
X326937500Y-84743750D02*
X326637500Y-84743750D01*
X326637500Y-83943750D01*
X326937500Y-83943750D01*
X326937500Y-84743750D01*
G36*
X326937500Y-84743750D02*
G01*
X326637500Y-84743750D01*
X326637500Y-83943750D01*
X326937500Y-83943750D01*
X326937500Y-84743750D01*
G37*
D11*
X140087500Y-80943750D02*
X140087500Y-85743750D01*
X140087500Y-85743750D02*
X142487500Y-85743750D01*
X140398500Y-84105750D02*
X142176500Y-84105750D01*
X142487500Y-80943750D02*
X140087500Y-80943750D01*
X142487500Y-85743750D02*
X142487500Y-80943750D01*
D12*
X141287500Y-84105750D02*
X140398500Y-82581750D01*
X142176500Y-82581750D01*
X141287500Y-84105750D01*
G36*
X141287500Y-84105750D02*
G01*
X140398500Y-82581750D01*
X142176500Y-82581750D01*
X141287500Y-84105750D01*
G37*
X140087500Y-84743750D02*
X139787500Y-84743750D01*
X139787500Y-83943750D01*
X140087500Y-83943750D01*
X140087500Y-84743750D01*
G36*
X140087500Y-84743750D02*
G01*
X139787500Y-84743750D01*
X139787500Y-83943750D01*
X140087500Y-83943750D01*
X140087500Y-84743750D01*
G37*
X142787500Y-84743750D02*
X142487500Y-84743750D01*
X142487500Y-83943750D01*
X142787500Y-83943750D01*
X142787500Y-84743750D01*
G36*
X142787500Y-84743750D02*
G01*
X142487500Y-84743750D01*
X142487500Y-83943750D01*
X142787500Y-83943750D01*
X142787500Y-84743750D01*
G37*
D11*
X121037500Y-98343750D02*
X121037500Y-103143750D01*
X121037500Y-103143750D02*
X123437500Y-103143750D01*
X121348500Y-101505750D02*
X123126500Y-101505750D01*
X123437500Y-98343750D02*
X121037500Y-98343750D01*
X123437500Y-103143750D02*
X123437500Y-98343750D01*
D12*
X122237500Y-101505750D02*
X121348500Y-99981750D01*
X123126500Y-99981750D01*
X122237500Y-101505750D01*
G36*
X122237500Y-101505750D02*
G01*
X121348500Y-99981750D01*
X123126500Y-99981750D01*
X122237500Y-101505750D01*
G37*
X121037500Y-102143750D02*
X120737500Y-102143750D01*
X120737500Y-101343750D01*
X121037500Y-101343750D01*
X121037500Y-102143750D01*
G36*
X121037500Y-102143750D02*
G01*
X120737500Y-102143750D01*
X120737500Y-101343750D01*
X121037500Y-101343750D01*
X121037500Y-102143750D01*
G37*
X123737500Y-102143750D02*
X123437500Y-102143750D01*
X123437500Y-101343750D01*
X123737500Y-101343750D01*
X123737500Y-102143750D01*
G36*
X123737500Y-102143750D02*
G01*
X123437500Y-102143750D01*
X123437500Y-101343750D01*
X123737500Y-101343750D01*
X123737500Y-102143750D01*
G37*
D11*
X281375000Y-99931250D02*
X281375000Y-104731250D01*
X281375000Y-104731250D02*
X283775000Y-104731250D01*
X281686000Y-103093250D02*
X283464000Y-103093250D01*
X283775000Y-99931250D02*
X281375000Y-99931250D01*
X283775000Y-104731250D02*
X283775000Y-99931250D01*
D12*
X282575000Y-103093250D02*
X281686000Y-101569250D01*
X283464000Y-101569250D01*
X282575000Y-103093250D01*
G36*
X282575000Y-103093250D02*
G01*
X281686000Y-101569250D01*
X283464000Y-101569250D01*
X282575000Y-103093250D01*
G37*
X281375000Y-103731250D02*
X281075000Y-103731250D01*
X281075000Y-102931250D01*
X281375000Y-102931250D01*
X281375000Y-103731250D01*
G36*
X281375000Y-103731250D02*
G01*
X281075000Y-103731250D01*
X281075000Y-102931250D01*
X281375000Y-102931250D01*
X281375000Y-103731250D01*
G37*
X284075000Y-103731250D02*
X283775000Y-103731250D01*
X283775000Y-102931250D01*
X284075000Y-102931250D01*
X284075000Y-103731250D01*
G36*
X284075000Y-103731250D02*
G01*
X283775000Y-103731250D01*
X283775000Y-102931250D01*
X284075000Y-102931250D01*
X284075000Y-103731250D01*
G37*
D11*
X224225000Y-79356250D02*
X224225000Y-84156250D01*
X224225000Y-84156250D02*
X226625000Y-84156250D01*
X224536000Y-82518250D02*
X226314000Y-82518250D01*
X226625000Y-79356250D02*
X224225000Y-79356250D01*
X226625000Y-84156250D02*
X226625000Y-79356250D01*
D12*
X225425000Y-82518250D02*
X224536000Y-80994250D01*
X226314000Y-80994250D01*
X225425000Y-82518250D01*
G36*
X225425000Y-82518250D02*
G01*
X224536000Y-80994250D01*
X226314000Y-80994250D01*
X225425000Y-82518250D01*
G37*
X224225000Y-83156250D02*
X223925000Y-83156250D01*
X223925000Y-82356250D01*
X224225000Y-82356250D01*
X224225000Y-83156250D01*
G36*
X224225000Y-83156250D02*
G01*
X223925000Y-83156250D01*
X223925000Y-82356250D01*
X224225000Y-82356250D01*
X224225000Y-83156250D01*
G37*
X226925000Y-83156250D02*
X226625000Y-83156250D01*
X226625000Y-82356250D01*
X226925000Y-82356250D01*
X226925000Y-83156250D01*
G36*
X226925000Y-83156250D02*
G01*
X226625000Y-83156250D01*
X226625000Y-82356250D01*
X226925000Y-82356250D01*
X226925000Y-83156250D01*
G37*
D11*
X340906250Y-61893750D02*
X340906250Y-66693750D01*
X340906250Y-66693750D02*
X343306250Y-66693750D01*
X341217250Y-65055750D02*
X342995250Y-65055750D01*
X343306250Y-61893750D02*
X340906250Y-61893750D01*
X343306250Y-66693750D02*
X343306250Y-61893750D01*
D12*
X342106250Y-65055750D02*
X341217250Y-63531750D01*
X342995250Y-63531750D01*
X342106250Y-65055750D01*
G36*
X342106250Y-65055750D02*
G01*
X341217250Y-63531750D01*
X342995250Y-63531750D01*
X342106250Y-65055750D01*
G37*
X340906250Y-65693750D02*
X340606250Y-65693750D01*
X340606250Y-64893750D01*
X340906250Y-64893750D01*
X340906250Y-65693750D01*
G36*
X340906250Y-65693750D02*
G01*
X340606250Y-65693750D01*
X340606250Y-64893750D01*
X340906250Y-64893750D01*
X340906250Y-65693750D01*
G37*
X343606250Y-65693750D02*
X343306250Y-65693750D01*
X343306250Y-64893750D01*
X343606250Y-64893750D01*
X343606250Y-65693750D01*
G36*
X343606250Y-65693750D02*
G01*
X343306250Y-65693750D01*
X343306250Y-64893750D01*
X343606250Y-64893750D01*
X343606250Y-65693750D01*
G37*
D11*
X63887500Y-80881250D02*
X63887500Y-85681250D01*
X63887500Y-85681250D02*
X66287500Y-85681250D01*
X64198500Y-84043250D02*
X65976500Y-84043250D01*
X66287500Y-80881250D02*
X63887500Y-80881250D01*
X66287500Y-85681250D02*
X66287500Y-80881250D01*
D12*
X65087500Y-84043250D02*
X64198500Y-82519250D01*
X65976500Y-82519250D01*
X65087500Y-84043250D01*
G36*
X65087500Y-84043250D02*
G01*
X64198500Y-82519250D01*
X65976500Y-82519250D01*
X65087500Y-84043250D01*
G37*
X63887500Y-84681250D02*
X63587500Y-84681250D01*
X63587500Y-83881250D01*
X63887500Y-83881250D01*
X63887500Y-84681250D01*
G36*
X63887500Y-84681250D02*
G01*
X63587500Y-84681250D01*
X63587500Y-83881250D01*
X63887500Y-83881250D01*
X63887500Y-84681250D01*
G37*
X66587500Y-84681250D02*
X66287500Y-84681250D01*
X66287500Y-83881250D01*
X66587500Y-83881250D01*
X66587500Y-84681250D01*
G36*
X66587500Y-84681250D02*
G01*
X66287500Y-84681250D01*
X66287500Y-83881250D01*
X66587500Y-83881250D01*
X66587500Y-84681250D01*
G37*
D11*
X243275000Y-39731250D02*
X243275000Y-44531250D01*
X243275000Y-44531250D02*
X245675000Y-44531250D01*
X243586000Y-42893250D02*
X245364000Y-42893250D01*
X245675000Y-39731250D02*
X243275000Y-39731250D01*
X245675000Y-44531250D02*
X245675000Y-39731250D01*
D12*
X244475000Y-42893250D02*
X243586000Y-41369250D01*
X245364000Y-41369250D01*
X244475000Y-42893250D01*
G36*
X244475000Y-42893250D02*
G01*
X243586000Y-41369250D01*
X245364000Y-41369250D01*
X244475000Y-42893250D01*
G37*
X243275000Y-43531250D02*
X242975000Y-43531250D01*
X242975000Y-42731250D01*
X243275000Y-42731250D01*
X243275000Y-43531250D01*
G36*
X243275000Y-43531250D02*
G01*
X242975000Y-43531250D01*
X242975000Y-42731250D01*
X243275000Y-42731250D01*
X243275000Y-43531250D01*
G37*
X245975000Y-43531250D02*
X245675000Y-43531250D01*
X245675000Y-42731250D01*
X245975000Y-42731250D01*
X245975000Y-43531250D01*
G36*
X245975000Y-43531250D02*
G01*
X245675000Y-43531250D01*
X245675000Y-42731250D01*
X245975000Y-42731250D01*
X245975000Y-43531250D01*
G37*
D11*
X281375000Y-42843750D02*
X281375000Y-47643750D01*
X281375000Y-47643750D02*
X283775000Y-47643750D01*
X281686000Y-46005750D02*
X283464000Y-46005750D01*
X283775000Y-42843750D02*
X281375000Y-42843750D01*
X283775000Y-47643750D02*
X283775000Y-42843750D01*
D12*
X282575000Y-46005750D02*
X281686000Y-44481750D01*
X283464000Y-44481750D01*
X282575000Y-46005750D01*
G36*
X282575000Y-46005750D02*
G01*
X281686000Y-44481750D01*
X283464000Y-44481750D01*
X282575000Y-46005750D01*
G37*
X281375000Y-46643750D02*
X281075000Y-46643750D01*
X281075000Y-45843750D01*
X281375000Y-45843750D01*
X281375000Y-46643750D01*
G36*
X281375000Y-46643750D02*
G01*
X281075000Y-46643750D01*
X281075000Y-45843750D01*
X281375000Y-45843750D01*
X281375000Y-46643750D01*
G37*
X284075000Y-46643750D02*
X283775000Y-46643750D01*
X283775000Y-45843750D01*
X284075000Y-45843750D01*
X284075000Y-46643750D01*
G36*
X284075000Y-46643750D02*
G01*
X283775000Y-46643750D01*
X283775000Y-45843750D01*
X284075000Y-45843750D01*
X284075000Y-46643750D01*
G37*
D11*
X40075000Y-80881250D02*
X40075000Y-85681250D01*
X40075000Y-85681250D02*
X42475000Y-85681250D01*
X40386000Y-84043250D02*
X42164000Y-84043250D01*
X42475000Y-80881250D02*
X40075000Y-80881250D01*
X42475000Y-85681250D02*
X42475000Y-80881250D01*
D12*
X41275000Y-84043250D02*
X40386000Y-82519250D01*
X42164000Y-82519250D01*
X41275000Y-84043250D01*
G36*
X41275000Y-84043250D02*
G01*
X40386000Y-82519250D01*
X42164000Y-82519250D01*
X41275000Y-84043250D01*
G37*
X40075000Y-84681250D02*
X39775000Y-84681250D01*
X39775000Y-83881250D01*
X40075000Y-83881250D01*
X40075000Y-84681250D01*
G36*
X40075000Y-84681250D02*
G01*
X39775000Y-84681250D01*
X39775000Y-83881250D01*
X40075000Y-83881250D01*
X40075000Y-84681250D01*
G37*
X42775000Y-84681250D02*
X42475000Y-84681250D01*
X42475000Y-83881250D01*
X42775000Y-83881250D01*
X42775000Y-84681250D01*
G36*
X42775000Y-84681250D02*
G01*
X42475000Y-84681250D01*
X42475000Y-83881250D01*
X42775000Y-83881250D01*
X42775000Y-84681250D01*
G37*
D11*
X121037500Y-79356250D02*
X121037500Y-84156250D01*
X121037500Y-84156250D02*
X123437500Y-84156250D01*
X121348500Y-82518250D02*
X123126500Y-82518250D01*
X123437500Y-79356250D02*
X121037500Y-79356250D01*
X123437500Y-84156250D02*
X123437500Y-79356250D01*
D12*
X122237500Y-82518250D02*
X121348500Y-80994250D01*
X123126500Y-80994250D01*
X122237500Y-82518250D01*
G36*
X122237500Y-82518250D02*
G01*
X121348500Y-80994250D01*
X123126500Y-80994250D01*
X122237500Y-82518250D01*
G37*
X121037500Y-83156250D02*
X120737500Y-83156250D01*
X120737500Y-82356250D01*
X121037500Y-82356250D01*
X121037500Y-83156250D01*
G36*
X121037500Y-83156250D02*
G01*
X120737500Y-83156250D01*
X120737500Y-82356250D01*
X121037500Y-82356250D01*
X121037500Y-83156250D01*
G37*
X123737500Y-83156250D02*
X123437500Y-83156250D01*
X123437500Y-82356250D01*
X123737500Y-82356250D01*
X123737500Y-83156250D01*
G36*
X123737500Y-83156250D02*
G01*
X123437500Y-83156250D01*
X123437500Y-82356250D01*
X123737500Y-82356250D01*
X123737500Y-83156250D01*
G37*
D11*
X243275000Y-96818750D02*
X243275000Y-101618750D01*
X243275000Y-101618750D02*
X245675000Y-101618750D01*
X243586000Y-99980750D02*
X245364000Y-99980750D01*
X245675000Y-96818750D02*
X243275000Y-96818750D01*
X245675000Y-101618750D02*
X245675000Y-96818750D01*
D12*
X244475000Y-99980750D02*
X243586000Y-98456750D01*
X245364000Y-98456750D01*
X244475000Y-99980750D01*
G36*
X244475000Y-99980750D02*
G01*
X243586000Y-98456750D01*
X245364000Y-98456750D01*
X244475000Y-99980750D01*
G37*
X243275000Y-100618750D02*
X242975000Y-100618750D01*
X242975000Y-99818750D01*
X243275000Y-99818750D01*
X243275000Y-100618750D01*
G36*
X243275000Y-100618750D02*
G01*
X242975000Y-100618750D01*
X242975000Y-99818750D01*
X243275000Y-99818750D01*
X243275000Y-100618750D01*
G37*
X245975000Y-100618750D02*
X245675000Y-100618750D01*
X245675000Y-99818750D01*
X245975000Y-99818750D01*
X245975000Y-100618750D01*
G36*
X245975000Y-100618750D02*
G01*
X245675000Y-100618750D01*
X245675000Y-99818750D01*
X245975000Y-99818750D01*
X245975000Y-100618750D01*
G37*
D11*
X300425000Y-80943750D02*
X300425000Y-85743750D01*
X300425000Y-85743750D02*
X302825000Y-85743750D01*
X300736000Y-84105750D02*
X302514000Y-84105750D01*
X302825000Y-80943750D02*
X300425000Y-80943750D01*
X302825000Y-85743750D02*
X302825000Y-80943750D01*
D12*
X301625000Y-84105750D02*
X300736000Y-82581750D01*
X302514000Y-82581750D01*
X301625000Y-84105750D01*
G36*
X301625000Y-84105750D02*
G01*
X300736000Y-82581750D01*
X302514000Y-82581750D01*
X301625000Y-84105750D01*
G37*
X300425000Y-84743750D02*
X300125000Y-84743750D01*
X300125000Y-83943750D01*
X300425000Y-83943750D01*
X300425000Y-84743750D01*
G36*
X300425000Y-84743750D02*
G01*
X300125000Y-84743750D01*
X300125000Y-83943750D01*
X300425000Y-83943750D01*
X300425000Y-84743750D01*
G37*
X303125000Y-84743750D02*
X302825000Y-84743750D01*
X302825000Y-83943750D01*
X303125000Y-83943750D01*
X303125000Y-84743750D01*
G36*
X303125000Y-84743750D02*
G01*
X302825000Y-84743750D01*
X302825000Y-83943750D01*
X303125000Y-83943750D01*
X303125000Y-84743750D01*
G37*
D11*
X44837500Y-119043750D02*
X44837500Y-123843750D01*
X44837500Y-123843750D02*
X47237500Y-123843750D01*
X45148500Y-122205750D02*
X46926500Y-122205750D01*
X47237500Y-119043750D02*
X44837500Y-119043750D01*
X47237500Y-123843750D02*
X47237500Y-119043750D01*
D12*
X46037500Y-122205750D02*
X45148500Y-120681750D01*
X46926500Y-120681750D01*
X46037500Y-122205750D01*
G36*
X46037500Y-122205750D02*
G01*
X45148500Y-120681750D01*
X46926500Y-120681750D01*
X46037500Y-122205750D01*
G37*
X44837500Y-122843750D02*
X44537500Y-122843750D01*
X44537500Y-122043750D01*
X44837500Y-122043750D01*
X44837500Y-122843750D01*
G36*
X44837500Y-122843750D02*
G01*
X44537500Y-122843750D01*
X44537500Y-122043750D01*
X44837500Y-122043750D01*
X44837500Y-122843750D01*
G37*
X47537500Y-122843750D02*
X47237500Y-122843750D01*
X47237500Y-122043750D01*
X47537500Y-122043750D01*
X47537500Y-122843750D01*
G36*
X47537500Y-122843750D02*
G01*
X47237500Y-122843750D01*
X47237500Y-122043750D01*
X47537500Y-122043750D01*
X47537500Y-122843750D01*
G37*
D11*
X340906250Y-42781250D02*
X340906250Y-47581250D01*
X340906250Y-47581250D02*
X343306250Y-47581250D01*
X341217250Y-45943250D02*
X342995250Y-45943250D01*
X343306250Y-42781250D02*
X340906250Y-42781250D01*
X343306250Y-47581250D02*
X343306250Y-42781250D01*
D12*
X342106250Y-45943250D02*
X341217250Y-44419250D01*
X342995250Y-44419250D01*
X342106250Y-45943250D01*
G36*
X342106250Y-45943250D02*
G01*
X341217250Y-44419250D01*
X342995250Y-44419250D01*
X342106250Y-45943250D01*
G37*
X340906250Y-46581250D02*
X340606250Y-46581250D01*
X340606250Y-45781250D01*
X340906250Y-45781250D01*
X340906250Y-46581250D01*
G36*
X340906250Y-46581250D02*
G01*
X340606250Y-46581250D01*
X340606250Y-45781250D01*
X340906250Y-45781250D01*
X340906250Y-46581250D01*
G37*
X343606250Y-46581250D02*
X343306250Y-46581250D01*
X343306250Y-45781250D01*
X343606250Y-45781250D01*
X343606250Y-46581250D01*
G36*
X343606250Y-46581250D02*
G01*
X343306250Y-46581250D01*
X343306250Y-45781250D01*
X343606250Y-45781250D01*
X343606250Y-46581250D01*
G37*
D11*
X281375000Y-80943750D02*
X281375000Y-85743750D01*
X281375000Y-85743750D02*
X283775000Y-85743750D01*
X281686000Y-84105750D02*
X283464000Y-84105750D01*
X283775000Y-80943750D02*
X281375000Y-80943750D01*
X283775000Y-85743750D02*
X283775000Y-80943750D01*
D12*
X282575000Y-84105750D02*
X281686000Y-82581750D01*
X283464000Y-82581750D01*
X282575000Y-84105750D01*
G36*
X282575000Y-84105750D02*
G01*
X281686000Y-82581750D01*
X283464000Y-82581750D01*
X282575000Y-84105750D01*
G37*
X281375000Y-84743750D02*
X281075000Y-84743750D01*
X281075000Y-83943750D01*
X281375000Y-83943750D01*
X281375000Y-84743750D01*
G36*
X281375000Y-84743750D02*
G01*
X281075000Y-84743750D01*
X281075000Y-83943750D01*
X281375000Y-83943750D01*
X281375000Y-84743750D01*
G37*
X284075000Y-84743750D02*
X283775000Y-84743750D01*
X283775000Y-83943750D01*
X284075000Y-83943750D01*
X284075000Y-84743750D01*
G36*
X284075000Y-84743750D02*
G01*
X283775000Y-84743750D01*
X283775000Y-83943750D01*
X284075000Y-83943750D01*
X284075000Y-84743750D01*
G37*
%LPC*%
D13*
X236220000Y-95250000D03*
D14*
X241300000Y-95250000D03*
D13*
X246380000Y-95250000D03*
D15*
X237490000Y-92710000D03*
X243840000Y-90170000D03*
D13*
X293370000Y-41275000D03*
D14*
X298450000Y-41275000D03*
D13*
X303530000Y-41275000D03*
D15*
X294640000Y-38735000D03*
X300990000Y-36195000D03*
D13*
X113982500Y-39687500D03*
D14*
X119062500Y-39687500D03*
D13*
X124142500Y-39687500D03*
D15*
X115252500Y-37147500D03*
X121602500Y-34607500D03*
D13*
X133032500Y-41275000D03*
D14*
X138112500Y-41275000D03*
D13*
X143192500Y-41275000D03*
D15*
X134302500Y-38735000D03*
X140652500Y-36195000D03*
D16*
X178806250Y-72850000D03*
X185806250Y-72850000D03*
D17*
X189106250Y-75000000D03*
X180606250Y-70700000D03*
X183606250Y-70700000D03*
X187606250Y-70700000D03*
D13*
X255270000Y-58737500D03*
D14*
X260350000Y-58737500D03*
D13*
X265430000Y-58737500D03*
D15*
X256540000Y-56197500D03*
X262890000Y-53657500D03*
D13*
X236220000Y-76200000D03*
D14*
X241300000Y-76200000D03*
D13*
X246380000Y-76200000D03*
D15*
X237490000Y-73660000D03*
X243840000Y-71120000D03*
D13*
X236220000Y-57150000D03*
D14*
X241300000Y-57150000D03*
D13*
X246380000Y-57150000D03*
D15*
X237490000Y-54610000D03*
X243840000Y-52070000D03*
D13*
X217170000Y-77787500D03*
D14*
X222250000Y-77787500D03*
D13*
X227330000Y-77787500D03*
D15*
X218440000Y-75247500D03*
X224790000Y-72707500D03*
D13*
X56832500Y-60325000D03*
D14*
X61912500Y-60325000D03*
D13*
X66992500Y-60325000D03*
D15*
X58102500Y-57785000D03*
X64452500Y-55245000D03*
D18*
X176212500Y-35718750D03*
X176212500Y-38258750D03*
D19*
X176212500Y-40798750D03*
X176212500Y-43338750D03*
D18*
X176212500Y-45878750D03*
X176212500Y-48418750D03*
X176212500Y-50958750D03*
X176212500Y-53498750D03*
X176212500Y-56038750D03*
X176212500Y-58578750D03*
X176212500Y-61118750D03*
X176212500Y-63658750D03*
X191452500Y-35718750D03*
D19*
X191452500Y-38258750D03*
D18*
X191452500Y-40798750D03*
X191452500Y-43338750D03*
X191452500Y-45878750D03*
X191452500Y-48418750D03*
X191452500Y-50958750D03*
X191452500Y-53498750D03*
X191452500Y-56038750D03*
X191452500Y-58578750D03*
X191452500Y-61118750D03*
X191452500Y-63658750D03*
D13*
X133032500Y-98425000D03*
D14*
X138112500Y-98425000D03*
D13*
X143192500Y-98425000D03*
D15*
X134302500Y-95885000D03*
X140652500Y-93345000D03*
D13*
X94932500Y-76200000D03*
D14*
X100012500Y-76200000D03*
D13*
X105092500Y-76200000D03*
D15*
X96202500Y-73660000D03*
X102552500Y-71120000D03*
D13*
X94932500Y-95250000D03*
D14*
X100012500Y-95250000D03*
D13*
X105092500Y-95250000D03*
D15*
X96202500Y-92710000D03*
X102552500Y-90170000D03*
D13*
X56832500Y-41275000D03*
D14*
X61912500Y-41275000D03*
D13*
X66992500Y-41275000D03*
D15*
X58102500Y-38735000D03*
X64452500Y-36195000D03*
D13*
X56832500Y-98425000D03*
D14*
X61912500Y-98425000D03*
D13*
X66992500Y-98425000D03*
D15*
X58102500Y-95885000D03*
X64452500Y-93345000D03*
D13*
X33020000Y-60325000D03*
D14*
X38100000Y-60325000D03*
D13*
X43180000Y-60325000D03*
D15*
X34290000Y-57785000D03*
X40640000Y-55245000D03*
D20*
X180443750Y-31800000D03*
X179703750Y-31800000D03*
X178963750Y-31800000D03*
X178223750Y-31800000D03*
X177483750Y-31800000D03*
X176743750Y-31800000D03*
D13*
X33020000Y-98425000D03*
D14*
X38100000Y-98425000D03*
D13*
X43180000Y-98425000D03*
D15*
X34290000Y-95885000D03*
X40640000Y-93345000D03*
D13*
X113982500Y-96837500D03*
D14*
X119062500Y-96837500D03*
D13*
X124142500Y-96837500D03*
D15*
X115252500Y-94297500D03*
X121602500Y-91757500D03*
D13*
X133032500Y-79375000D03*
D14*
X138112500Y-79375000D03*
D13*
X143192500Y-79375000D03*
D15*
X134302500Y-76835000D03*
X140652500Y-74295000D03*
D13*
X333851250Y-60325000D03*
D14*
X338931250Y-60325000D03*
D13*
X344011250Y-60325000D03*
D15*
X335121250Y-57785000D03*
X341471250Y-55245000D03*
D20*
X164568750Y-31800000D03*
X163828750Y-31800000D03*
X163088750Y-31800000D03*
X162348750Y-31800000D03*
X161608750Y-31800000D03*
X160868750Y-31800000D03*
D13*
X56832500Y-117475000D03*
D14*
X61912500Y-117475000D03*
D13*
X66992500Y-117475000D03*
D15*
X58102500Y-114935000D03*
X64452500Y-112395000D03*
D13*
X317182500Y-79375000D03*
D14*
X322262500Y-79375000D03*
D13*
X327342500Y-79375000D03*
D15*
X318452500Y-76835000D03*
X324802500Y-74295000D03*
D13*
X75882500Y-77787500D03*
D14*
X80962500Y-77787500D03*
D13*
X86042500Y-77787500D03*
D15*
X77152500Y-75247500D03*
X83502500Y-72707500D03*
D13*
X33020000Y-79375000D03*
D14*
X38100000Y-79375000D03*
D13*
X43180000Y-79375000D03*
D15*
X34290000Y-76835000D03*
X40640000Y-74295000D03*
D13*
X217170000Y-96837500D03*
D14*
X222250000Y-96837500D03*
D13*
X227330000Y-96837500D03*
D15*
X218440000Y-94297500D03*
X224790000Y-91757500D03*
D13*
X298132500Y-98425000D03*
D14*
X303212500Y-98425000D03*
D13*
X308292500Y-98425000D03*
D15*
X299402500Y-95885000D03*
X305752500Y-93345000D03*
D13*
X255270000Y-96837500D03*
D14*
X260350000Y-96837500D03*
D13*
X265430000Y-96837500D03*
D15*
X256540000Y-94297500D03*
X262890000Y-91757500D03*
D13*
X274320000Y-41275000D03*
D14*
X279400000Y-41275000D03*
D13*
X284480000Y-41275000D03*
D15*
X275590000Y-38735000D03*
X281940000Y-36195000D03*
D20*
X160868750Y-126156250D03*
X161608750Y-126156250D03*
X162348750Y-126156250D03*
X163088750Y-126156250D03*
X163828750Y-126156250D03*
X164568750Y-126156250D03*
D13*
X217170000Y-115887500D03*
D14*
X222250000Y-115887500D03*
D13*
X227330000Y-115887500D03*
D15*
X218440000Y-113347500D03*
X224790000Y-110807500D03*
D20*
X347925000Y-32593750D03*
X347185000Y-32593750D03*
X346445000Y-32593750D03*
X345705000Y-32593750D03*
X344965000Y-32593750D03*
X344225000Y-32593750D03*
D13*
X94932500Y-57150000D03*
D14*
X100012500Y-57150000D03*
D13*
X105092500Y-57150000D03*
D15*
X96202500Y-54610000D03*
X102552500Y-52070000D03*
D13*
X236220000Y-38100000D03*
D14*
X241300000Y-38100000D03*
D13*
X246380000Y-38100000D03*
D15*
X237490000Y-35560000D03*
X243840000Y-33020000D03*
D20*
X30425000Y-32593750D03*
X29685000Y-32593750D03*
X28945000Y-32593750D03*
X28205000Y-32593750D03*
X27465000Y-32593750D03*
X26725000Y-32593750D03*
D13*
X137795000Y-117475000D03*
D14*
X142875000Y-117475000D03*
D13*
X147955000Y-117475000D03*
D15*
X139065000Y-114935000D03*
X145415000Y-112395000D03*
D13*
X198120000Y-98425000D03*
D14*
X203200000Y-98425000D03*
D13*
X208280000Y-98425000D03*
D15*
X199390000Y-95885000D03*
X205740000Y-93345000D03*
D20*
X301362500Y-126156250D03*
X302102500Y-126156250D03*
X302842500Y-126156250D03*
X303582500Y-126156250D03*
X304322500Y-126156250D03*
X305062500Y-126156250D03*
D13*
X312420000Y-41275000D03*
D14*
X317500000Y-41275000D03*
D13*
X322580000Y-41275000D03*
D15*
X313690000Y-38735000D03*
X320040000Y-36195000D03*
D13*
X312420000Y-60325000D03*
D14*
X317500000Y-60325000D03*
D13*
X322580000Y-60325000D03*
D15*
X313690000Y-57785000D03*
X320040000Y-55245000D03*
D13*
X293370000Y-60325000D03*
D14*
X298450000Y-60325000D03*
D13*
X303530000Y-60325000D03*
D15*
X294640000Y-57785000D03*
X300990000Y-55245000D03*
D13*
X217170000Y-58737500D03*
D14*
X222250000Y-58737500D03*
D13*
X227330000Y-58737500D03*
D15*
X218440000Y-56197500D03*
X224790000Y-53657500D03*
D13*
X236220000Y-114300000D03*
D14*
X241300000Y-114300000D03*
D13*
X246380000Y-114300000D03*
D15*
X237490000Y-111760000D03*
X243840000Y-109220000D03*
D13*
X255270000Y-39687500D03*
D14*
X260350000Y-39687500D03*
D13*
X265430000Y-39687500D03*
D15*
X256540000Y-37147500D03*
X262890000Y-34607500D03*
D13*
X113982500Y-115887500D03*
D14*
X119062500Y-115887500D03*
D13*
X124142500Y-115887500D03*
D15*
X115252500Y-113347500D03*
X121602500Y-110807500D03*
D16*
X162506250Y-72975000D03*
X155506250Y-72975000D03*
D17*
X152206250Y-70825000D03*
X160706250Y-75125000D03*
X157706250Y-75125000D03*
X153706250Y-75125000D03*
D13*
X94932500Y-114300000D03*
D14*
X100012500Y-114300000D03*
D13*
X105092500Y-114300000D03*
D15*
X96202500Y-111760000D03*
X102552500Y-109220000D03*
D13*
X274320000Y-79375000D03*
D14*
X279400000Y-79375000D03*
D13*
X284480000Y-79375000D03*
D15*
X275590000Y-76835000D03*
X281940000Y-74295000D03*
D13*
X217170000Y-39687500D03*
D14*
X222250000Y-39687500D03*
D13*
X227330000Y-39687500D03*
D15*
X218440000Y-37147500D03*
X224790000Y-34607500D03*
D13*
X75882500Y-58737500D03*
D14*
X80962500Y-58737500D03*
D13*
X86042500Y-58737500D03*
D15*
X77152500Y-56197500D03*
X83502500Y-53657500D03*
D20*
X176743750Y-126156250D03*
X177483750Y-126156250D03*
X178223750Y-126156250D03*
X178963750Y-126156250D03*
X179703750Y-126156250D03*
X180443750Y-126156250D03*
D13*
X113982500Y-77787500D03*
D14*
X119062500Y-77787500D03*
D13*
X124142500Y-77787500D03*
D15*
X115252500Y-75247500D03*
X121602500Y-72707500D03*
D13*
X193357500Y-117475000D03*
D14*
X198437500Y-117475000D03*
D13*
X203517500Y-117475000D03*
D15*
X194627500Y-114935000D03*
X200977500Y-112395000D03*
D13*
X293370000Y-117475000D03*
D14*
X298450000Y-117475000D03*
D13*
X303530000Y-117475000D03*
D15*
X294640000Y-114935000D03*
X300990000Y-112395000D03*
D13*
X255270000Y-77787500D03*
D14*
X260350000Y-77787500D03*
D13*
X265430000Y-77787500D03*
D15*
X256540000Y-75247500D03*
X262890000Y-72707500D03*
D13*
X255270000Y-115887500D03*
D14*
X260350000Y-115887500D03*
D13*
X265430000Y-115887500D03*
D15*
X256540000Y-113347500D03*
X262890000Y-110807500D03*
D13*
X113982500Y-58737500D03*
D14*
X119062500Y-58737500D03*
D13*
X124142500Y-58737500D03*
D15*
X115252500Y-56197500D03*
X121602500Y-53657500D03*
D13*
X94932500Y-38100000D03*
D14*
X100012500Y-38100000D03*
D13*
X105092500Y-38100000D03*
D15*
X96202500Y-35560000D03*
X102552500Y-33020000D03*
D13*
X198120000Y-60325000D03*
D14*
X203200000Y-60325000D03*
D13*
X208280000Y-60325000D03*
D15*
X199390000Y-57785000D03*
X205740000Y-55245000D03*
D13*
X56832500Y-79375000D03*
D14*
X61912500Y-79375000D03*
D13*
X66992500Y-79375000D03*
D15*
X58102500Y-76835000D03*
X64452500Y-74295000D03*
D13*
X75882500Y-39687500D03*
D14*
X80962500Y-39687500D03*
D13*
X86042500Y-39687500D03*
D15*
X77152500Y-37147500D03*
X83502500Y-34607500D03*
D13*
X33020000Y-41275000D03*
D14*
X38100000Y-41275000D03*
D13*
X43180000Y-41275000D03*
D15*
X34290000Y-38735000D03*
X40640000Y-36195000D03*
D18*
X149860000Y-35718750D03*
X149860000Y-38258750D03*
D19*
X149860000Y-40798750D03*
X149860000Y-43338750D03*
D18*
X149860000Y-45878750D03*
X149860000Y-48418750D03*
X149860000Y-50958750D03*
X149860000Y-53498750D03*
X149860000Y-56038750D03*
X149860000Y-58578750D03*
X149860000Y-61118750D03*
X149860000Y-63658750D03*
X165100000Y-35718750D03*
D19*
X165100000Y-38258750D03*
D18*
X165100000Y-40798750D03*
X165100000Y-43338750D03*
X165100000Y-45878750D03*
X165100000Y-48418750D03*
X165100000Y-50958750D03*
X165100000Y-53498750D03*
X165100000Y-56038750D03*
X165100000Y-58578750D03*
X165100000Y-61118750D03*
X165100000Y-63658750D03*
D13*
X198120000Y-41275000D03*
D14*
X203200000Y-41275000D03*
D13*
X208280000Y-41275000D03*
D15*
X199390000Y-38735000D03*
X205740000Y-36195000D03*
D13*
X133032500Y-60325000D03*
D14*
X138112500Y-60325000D03*
D13*
X143192500Y-60325000D03*
D15*
X134302500Y-57785000D03*
X140652500Y-55245000D03*
D13*
X75882500Y-96837500D03*
D14*
X80962500Y-96837500D03*
D13*
X86042500Y-96837500D03*
D15*
X77152500Y-94297500D03*
X83502500Y-91757500D03*
D20*
X36250000Y-126156250D03*
X36990000Y-126156250D03*
X37730000Y-126156250D03*
X38470000Y-126156250D03*
X39210000Y-126156250D03*
X39950000Y-126156250D03*
D13*
X293370000Y-79375000D03*
D14*
X298450000Y-79375000D03*
D13*
X303530000Y-79375000D03*
D15*
X294640000Y-76835000D03*
X300990000Y-74295000D03*
D13*
X274320000Y-117475000D03*
D14*
X279400000Y-117475000D03*
D13*
X284480000Y-117475000D03*
D15*
X275590000Y-114935000D03*
X281940000Y-112395000D03*
D13*
X274320000Y-98425000D03*
D14*
X279400000Y-98425000D03*
D13*
X284480000Y-98425000D03*
D15*
X275590000Y-95885000D03*
X281940000Y-93345000D03*
D13*
X37782500Y-117475000D03*
D14*
X42862500Y-117475000D03*
D13*
X47942500Y-117475000D03*
D15*
X39052500Y-114935000D03*
X45402500Y-112395000D03*
D13*
X75882500Y-115887500D03*
D14*
X80962500Y-115887500D03*
D13*
X86042500Y-115887500D03*
D15*
X77152500Y-113347500D03*
X83502500Y-110807500D03*
D13*
X274320000Y-60325000D03*
D14*
X279400000Y-60325000D03*
D13*
X284480000Y-60325000D03*
D15*
X275590000Y-57785000D03*
X281940000Y-55245000D03*
D13*
X198120000Y-79375000D03*
D14*
X203200000Y-79375000D03*
D13*
X208280000Y-79375000D03*
D15*
X199390000Y-76835000D03*
X205740000Y-74295000D03*
D13*
X333851250Y-41275000D03*
D14*
X338931250Y-41275000D03*
D13*
X344011250Y-41275000D03*
D15*
X335121250Y-38735000D03*
X341471250Y-36195000D03*
D21*
X320675000Y-66006250D03*
X320675000Y-62706250D03*
X41275000Y-103981250D03*
X41275000Y-100681250D03*
X306387500Y-104106250D03*
X306387500Y-100806250D03*
X225425000Y-45243750D03*
X225425000Y-41943750D03*
X65087500Y-123093750D03*
X65087500Y-119793750D03*
X84137500Y-45243750D03*
X84137500Y-41943750D03*
X103187500Y-62831250D03*
X103187500Y-59531250D03*
X103187500Y-43656250D03*
X103187500Y-40356250D03*
X84137500Y-121443750D03*
X84137500Y-118143750D03*
X244475000Y-81756250D03*
X244475000Y-78456250D03*
X103187500Y-100806250D03*
X103187500Y-97506250D03*
X263525000Y-83406250D03*
X263525000Y-80106250D03*
X225425000Y-102393750D03*
X225425000Y-99093750D03*
X41275000Y-66006250D03*
X41275000Y-62706250D03*
X206375000Y-103981250D03*
X206375000Y-100681250D03*
X141287500Y-103981250D03*
X141287500Y-100681250D03*
X141287500Y-46831250D03*
X141287500Y-43531250D03*
X84137500Y-102518750D03*
X84137500Y-99218750D03*
X84137500Y-83406250D03*
X84137500Y-80106250D03*
X122237500Y-121506250D03*
X122237500Y-118206250D03*
X41275000Y-46893750D03*
X41275000Y-43593750D03*
X301625000Y-65943750D03*
X301625000Y-62643750D03*
X65087500Y-46893750D03*
X65087500Y-43593750D03*
X206375000Y-66006250D03*
X206375000Y-62706250D03*
X103187500Y-81818750D03*
X103187500Y-78518750D03*
X225425000Y-64293750D03*
X225425000Y-60993750D03*
X103187500Y-119856250D03*
X103187500Y-116556250D03*
X244475000Y-119856250D03*
X244475000Y-116556250D03*
X84137500Y-64356250D03*
X84137500Y-61056250D03*
X263525000Y-64356250D03*
X263525000Y-61056250D03*
X282575000Y-123093750D03*
X282575000Y-119793750D03*
X206375000Y-84993750D03*
X206375000Y-81693750D03*
X263525000Y-121443750D03*
X263525000Y-118143750D03*
X206375000Y-46831250D03*
X206375000Y-43531250D03*
X225425000Y-121506250D03*
X225425000Y-118206250D03*
X201612500Y-123093750D03*
X201612500Y-119793750D03*
X141287500Y-65943750D03*
X141287500Y-62643750D03*
X263525000Y-102393750D03*
X263525000Y-99093750D03*
X65087500Y-103981250D03*
X65087500Y-100681250D03*
X301625000Y-123093750D03*
X301625000Y-119793750D03*
X146050000Y-123093750D03*
X146050000Y-119793750D03*
X263525000Y-45306250D03*
X263525000Y-42006250D03*
X122237500Y-45368750D03*
X122237500Y-42068750D03*
X244475000Y-62768750D03*
X244475000Y-59468750D03*
X282575000Y-65943750D03*
X282575000Y-62643750D03*
X301625000Y-46831250D03*
X301625000Y-43531250D03*
X320675000Y-46893750D03*
X320675000Y-43593750D03*
X65087500Y-65943750D03*
X65087500Y-62643750D03*
X122237500Y-64356250D03*
X122237500Y-61056250D03*
X325437500Y-84993750D03*
X325437500Y-81693750D03*
X141287500Y-84993750D03*
X141287500Y-81693750D03*
X122237500Y-102393750D03*
X122237500Y-99093750D03*
X282575000Y-103981250D03*
X282575000Y-100681250D03*
X225425000Y-83406250D03*
X225425000Y-80106250D03*
X342106250Y-65943750D03*
X342106250Y-62643750D03*
X65087500Y-84931250D03*
X65087500Y-81631250D03*
X244475000Y-43781250D03*
X244475000Y-40481250D03*
X282575000Y-46893750D03*
X282575000Y-43593750D03*
X41275000Y-84931250D03*
X41275000Y-81631250D03*
X122237500Y-83406250D03*
X122237500Y-80106250D03*
X244475000Y-100868750D03*
X244475000Y-97568750D03*
X301625000Y-84993750D03*
X301625000Y-81693750D03*
X46037500Y-123093750D03*
X46037500Y-119793750D03*
X342106250Y-46831250D03*
X342106250Y-43531250D03*
X282575000Y-84993750D03*
X282575000Y-81693750D03*
%LPD*%
M02*
