G04 #@! TF.GenerationSoftware,KiCad,Pcbnew,8.0.2*
G04 #@! TF.CreationDate,2024-05-24T11:31:22+03:00*
G04 #@! TF.ProjectId,ratless65,7261746c-6573-4733-9635-2e6b69636164,rev?*
G04 #@! TF.SameCoordinates,Original*
G04 #@! TF.FileFunction,Soldermask,Bot*
G04 #@! TF.FilePolarity,Negative*
%FSLAX46Y46*%
G04 Gerber Fmt 4.6, Leading zero omitted, Abs format (unit mm)*
G04 Created by KiCad (PCBNEW 8.0.2) date 2024-05-24 11:31:22*
%MOMM*%
%LPD*%
G01*
G04 APERTURE LIST*
G04 Aperture macros list*
%AMRoundRect*
0 Rectangle with rounded corners*
0 $1 Rounding radius*
0 $2 $3 $4 $5 $6 $7 $8 $9 X,Y pos of 4 corners*
0 Add a 4 corners polygon primitive as box body*
4,1,4,$2,$3,$4,$5,$6,$7,$8,$9,$2,$3,0*
0 Add four circle primitives for the rounded corners*
1,1,$1+$1,$2,$3*
1,1,$1+$1,$4,$5*
1,1,$1+$1,$6,$7*
1,1,$1+$1,$8,$9*
0 Add four rect primitives between the rounded corners*
20,1,$1+$1,$2,$3,$4,$5,0*
20,1,$1+$1,$4,$5,$6,$7,0*
20,1,$1+$1,$6,$7,$8,$9,0*
20,1,$1+$1,$8,$9,$2,$3,0*%
G04 Aperture macros list end*
%ADD10C,1.750000*%
%ADD11C,3.987800*%
%ADD12C,2.300000*%
%ADD13C,1.200000*%
%ADD14O,2.300000X1.500000*%
%ADD15C,1.800000*%
%ADD16RoundRect,0.450000X-0.450000X-0.450000X0.450000X-0.450000X0.450000X0.450000X-0.450000X0.450000X0*%
%ADD17C,0.500000*%
%ADD18RoundRect,0.225000X0.375000X-0.225000X0.375000X0.225000X-0.375000X0.225000X-0.375000X-0.225000X0*%
G04 APERTURE END LIST*
D10*
X236220000Y-95250000D03*
D11*
X241300000Y-95250000D03*
D10*
X246380000Y-95250000D03*
D12*
X237490000Y-92710000D03*
X243840000Y-90170000D03*
D10*
X293370000Y-41275000D03*
D11*
X298450000Y-41275000D03*
D10*
X303530000Y-41275000D03*
D12*
X294640000Y-38735000D03*
X300990000Y-36195000D03*
D10*
X113982500Y-39687500D03*
D11*
X119062500Y-39687500D03*
D10*
X124142500Y-39687500D03*
D12*
X115252500Y-37147500D03*
X121602500Y-34607500D03*
D10*
X133032500Y-41275000D03*
D11*
X138112500Y-41275000D03*
D10*
X143192500Y-41275000D03*
D12*
X134302500Y-38735000D03*
X140652500Y-36195000D03*
D13*
X178806250Y-72850000D03*
X185806250Y-72850000D03*
D14*
X189106250Y-75000000D03*
X180606250Y-70700000D03*
X183606250Y-70700000D03*
X187606250Y-70700000D03*
D10*
X255270000Y-58737500D03*
D11*
X260350000Y-58737500D03*
D10*
X265430000Y-58737500D03*
D12*
X256540000Y-56197500D03*
X262890000Y-53657500D03*
D10*
X236220000Y-76200000D03*
D11*
X241300000Y-76200000D03*
D10*
X246380000Y-76200000D03*
D12*
X237490000Y-73660000D03*
X243840000Y-71120000D03*
D10*
X236220000Y-57150000D03*
D11*
X241300000Y-57150000D03*
D10*
X246380000Y-57150000D03*
D12*
X237490000Y-54610000D03*
X243840000Y-52070000D03*
D10*
X217170000Y-77787500D03*
D11*
X222250000Y-77787500D03*
D10*
X227330000Y-77787500D03*
D12*
X218440000Y-75247500D03*
X224790000Y-72707500D03*
D10*
X56832500Y-60325000D03*
D11*
X61912500Y-60325000D03*
D10*
X66992500Y-60325000D03*
D12*
X58102500Y-57785000D03*
X64452500Y-55245000D03*
D15*
X176212500Y-35718750D03*
X176212500Y-38258750D03*
D16*
X176212500Y-40798750D03*
X176212500Y-43338750D03*
D15*
X176212500Y-45878750D03*
X176212500Y-48418750D03*
X176212500Y-50958750D03*
X176212500Y-53498750D03*
X176212500Y-56038750D03*
X176212500Y-58578750D03*
X176212500Y-61118750D03*
X176212500Y-63658750D03*
X191452500Y-35718750D03*
D16*
X191452500Y-38258750D03*
D15*
X191452500Y-40798750D03*
X191452500Y-43338750D03*
X191452500Y-45878750D03*
X191452500Y-48418750D03*
X191452500Y-50958750D03*
X191452500Y-53498750D03*
X191452500Y-56038750D03*
X191452500Y-58578750D03*
X191452500Y-61118750D03*
X191452500Y-63658750D03*
D10*
X133032500Y-98425000D03*
D11*
X138112500Y-98425000D03*
D10*
X143192500Y-98425000D03*
D12*
X134302500Y-95885000D03*
X140652500Y-93345000D03*
D10*
X94932500Y-76200000D03*
D11*
X100012500Y-76200000D03*
D10*
X105092500Y-76200000D03*
D12*
X96202500Y-73660000D03*
X102552500Y-71120000D03*
D10*
X94932500Y-95250000D03*
D11*
X100012500Y-95250000D03*
D10*
X105092500Y-95250000D03*
D12*
X96202500Y-92710000D03*
X102552500Y-90170000D03*
D10*
X56832500Y-41275000D03*
D11*
X61912500Y-41275000D03*
D10*
X66992500Y-41275000D03*
D12*
X58102500Y-38735000D03*
X64452500Y-36195000D03*
D10*
X56832500Y-98425000D03*
D11*
X61912500Y-98425000D03*
D10*
X66992500Y-98425000D03*
D12*
X58102500Y-95885000D03*
X64452500Y-93345000D03*
D10*
X33020000Y-60325000D03*
D11*
X38100000Y-60325000D03*
D10*
X43180000Y-60325000D03*
D12*
X34290000Y-57785000D03*
X40640000Y-55245000D03*
D17*
X180443750Y-31800000D03*
X179703750Y-31800000D03*
X178963750Y-31800000D03*
X178223750Y-31800000D03*
X177483750Y-31800000D03*
X176743750Y-31800000D03*
D10*
X33020000Y-98425000D03*
D11*
X38100000Y-98425000D03*
D10*
X43180000Y-98425000D03*
D12*
X34290000Y-95885000D03*
X40640000Y-93345000D03*
D10*
X113982500Y-96837500D03*
D11*
X119062500Y-96837500D03*
D10*
X124142500Y-96837500D03*
D12*
X115252500Y-94297500D03*
X121602500Y-91757500D03*
D10*
X133032500Y-79375000D03*
D11*
X138112500Y-79375000D03*
D10*
X143192500Y-79375000D03*
D12*
X134302500Y-76835000D03*
X140652500Y-74295000D03*
D10*
X333851250Y-60325000D03*
D11*
X338931250Y-60325000D03*
D10*
X344011250Y-60325000D03*
D12*
X335121250Y-57785000D03*
X341471250Y-55245000D03*
D17*
X164568750Y-31800000D03*
X163828750Y-31800000D03*
X163088750Y-31800000D03*
X162348750Y-31800000D03*
X161608750Y-31800000D03*
X160868750Y-31800000D03*
D10*
X56832500Y-117475000D03*
D11*
X61912500Y-117475000D03*
D10*
X66992500Y-117475000D03*
D12*
X58102500Y-114935000D03*
X64452500Y-112395000D03*
D10*
X317182500Y-79375000D03*
D11*
X322262500Y-79375000D03*
D10*
X327342500Y-79375000D03*
D12*
X318452500Y-76835000D03*
X324802500Y-74295000D03*
D10*
X75882500Y-77787500D03*
D11*
X80962500Y-77787500D03*
D10*
X86042500Y-77787500D03*
D12*
X77152500Y-75247500D03*
X83502500Y-72707500D03*
D10*
X33020000Y-79375000D03*
D11*
X38100000Y-79375000D03*
D10*
X43180000Y-79375000D03*
D12*
X34290000Y-76835000D03*
X40640000Y-74295000D03*
D10*
X217170000Y-96837500D03*
D11*
X222250000Y-96837500D03*
D10*
X227330000Y-96837500D03*
D12*
X218440000Y-94297500D03*
X224790000Y-91757500D03*
D10*
X298132500Y-98425000D03*
D11*
X303212500Y-98425000D03*
D10*
X308292500Y-98425000D03*
D12*
X299402500Y-95885000D03*
X305752500Y-93345000D03*
D10*
X255270000Y-96837500D03*
D11*
X260350000Y-96837500D03*
D10*
X265430000Y-96837500D03*
D12*
X256540000Y-94297500D03*
X262890000Y-91757500D03*
D10*
X274320000Y-41275000D03*
D11*
X279400000Y-41275000D03*
D10*
X284480000Y-41275000D03*
D12*
X275590000Y-38735000D03*
X281940000Y-36195000D03*
D17*
X160868750Y-126156250D03*
X161608750Y-126156250D03*
X162348750Y-126156250D03*
X163088750Y-126156250D03*
X163828750Y-126156250D03*
X164568750Y-126156250D03*
D10*
X217170000Y-115887500D03*
D11*
X222250000Y-115887500D03*
D10*
X227330000Y-115887500D03*
D12*
X218440000Y-113347500D03*
X224790000Y-110807500D03*
D17*
X347925000Y-32593750D03*
X347185000Y-32593750D03*
X346445000Y-32593750D03*
X345705000Y-32593750D03*
X344965000Y-32593750D03*
X344225000Y-32593750D03*
D10*
X94932500Y-57150000D03*
D11*
X100012500Y-57150000D03*
D10*
X105092500Y-57150000D03*
D12*
X96202500Y-54610000D03*
X102552500Y-52070000D03*
D10*
X236220000Y-38100000D03*
D11*
X241300000Y-38100000D03*
D10*
X246380000Y-38100000D03*
D12*
X237490000Y-35560000D03*
X243840000Y-33020000D03*
D17*
X30425000Y-32593750D03*
X29685000Y-32593750D03*
X28945000Y-32593750D03*
X28205000Y-32593750D03*
X27465000Y-32593750D03*
X26725000Y-32593750D03*
D10*
X137795000Y-117475000D03*
D11*
X142875000Y-117475000D03*
D10*
X147955000Y-117475000D03*
D12*
X139065000Y-114935000D03*
X145415000Y-112395000D03*
D10*
X198120000Y-98425000D03*
D11*
X203200000Y-98425000D03*
D10*
X208280000Y-98425000D03*
D12*
X199390000Y-95885000D03*
X205740000Y-93345000D03*
D17*
X301362500Y-126156250D03*
X302102500Y-126156250D03*
X302842500Y-126156250D03*
X303582500Y-126156250D03*
X304322500Y-126156250D03*
X305062500Y-126156250D03*
D10*
X312420000Y-41275000D03*
D11*
X317500000Y-41275000D03*
D10*
X322580000Y-41275000D03*
D12*
X313690000Y-38735000D03*
X320040000Y-36195000D03*
D10*
X312420000Y-60325000D03*
D11*
X317500000Y-60325000D03*
D10*
X322580000Y-60325000D03*
D12*
X313690000Y-57785000D03*
X320040000Y-55245000D03*
D10*
X293370000Y-60325000D03*
D11*
X298450000Y-60325000D03*
D10*
X303530000Y-60325000D03*
D12*
X294640000Y-57785000D03*
X300990000Y-55245000D03*
D10*
X217170000Y-58737500D03*
D11*
X222250000Y-58737500D03*
D10*
X227330000Y-58737500D03*
D12*
X218440000Y-56197500D03*
X224790000Y-53657500D03*
D10*
X236220000Y-114300000D03*
D11*
X241300000Y-114300000D03*
D10*
X246380000Y-114300000D03*
D12*
X237490000Y-111760000D03*
X243840000Y-109220000D03*
D10*
X255270000Y-39687500D03*
D11*
X260350000Y-39687500D03*
D10*
X265430000Y-39687500D03*
D12*
X256540000Y-37147500D03*
X262890000Y-34607500D03*
D10*
X113982500Y-115887500D03*
D11*
X119062500Y-115887500D03*
D10*
X124142500Y-115887500D03*
D12*
X115252500Y-113347500D03*
X121602500Y-110807500D03*
D13*
X162506250Y-72975000D03*
X155506250Y-72975000D03*
D14*
X152206250Y-70825000D03*
X160706250Y-75125000D03*
X157706250Y-75125000D03*
X153706250Y-75125000D03*
D10*
X94932500Y-114300000D03*
D11*
X100012500Y-114300000D03*
D10*
X105092500Y-114300000D03*
D12*
X96202500Y-111760000D03*
X102552500Y-109220000D03*
D10*
X274320000Y-79375000D03*
D11*
X279400000Y-79375000D03*
D10*
X284480000Y-79375000D03*
D12*
X275590000Y-76835000D03*
X281940000Y-74295000D03*
D10*
X217170000Y-39687500D03*
D11*
X222250000Y-39687500D03*
D10*
X227330000Y-39687500D03*
D12*
X218440000Y-37147500D03*
X224790000Y-34607500D03*
D10*
X75882500Y-58737500D03*
D11*
X80962500Y-58737500D03*
D10*
X86042500Y-58737500D03*
D12*
X77152500Y-56197500D03*
X83502500Y-53657500D03*
D17*
X176743750Y-126156250D03*
X177483750Y-126156250D03*
X178223750Y-126156250D03*
X178963750Y-126156250D03*
X179703750Y-126156250D03*
X180443750Y-126156250D03*
D10*
X113982500Y-77787500D03*
D11*
X119062500Y-77787500D03*
D10*
X124142500Y-77787500D03*
D12*
X115252500Y-75247500D03*
X121602500Y-72707500D03*
D10*
X193357500Y-117475000D03*
D11*
X198437500Y-117475000D03*
D10*
X203517500Y-117475000D03*
D12*
X194627500Y-114935000D03*
X200977500Y-112395000D03*
D10*
X293370000Y-117475000D03*
D11*
X298450000Y-117475000D03*
D10*
X303530000Y-117475000D03*
D12*
X294640000Y-114935000D03*
X300990000Y-112395000D03*
D10*
X255270000Y-77787500D03*
D11*
X260350000Y-77787500D03*
D10*
X265430000Y-77787500D03*
D12*
X256540000Y-75247500D03*
X262890000Y-72707500D03*
D10*
X255270000Y-115887500D03*
D11*
X260350000Y-115887500D03*
D10*
X265430000Y-115887500D03*
D12*
X256540000Y-113347500D03*
X262890000Y-110807500D03*
D10*
X113982500Y-58737500D03*
D11*
X119062500Y-58737500D03*
D10*
X124142500Y-58737500D03*
D12*
X115252500Y-56197500D03*
X121602500Y-53657500D03*
D10*
X94932500Y-38100000D03*
D11*
X100012500Y-38100000D03*
D10*
X105092500Y-38100000D03*
D12*
X96202500Y-35560000D03*
X102552500Y-33020000D03*
D10*
X198120000Y-60325000D03*
D11*
X203200000Y-60325000D03*
D10*
X208280000Y-60325000D03*
D12*
X199390000Y-57785000D03*
X205740000Y-55245000D03*
D10*
X56832500Y-79375000D03*
D11*
X61912500Y-79375000D03*
D10*
X66992500Y-79375000D03*
D12*
X58102500Y-76835000D03*
X64452500Y-74295000D03*
D10*
X75882500Y-39687500D03*
D11*
X80962500Y-39687500D03*
D10*
X86042500Y-39687500D03*
D12*
X77152500Y-37147500D03*
X83502500Y-34607500D03*
D10*
X33020000Y-41275000D03*
D11*
X38100000Y-41275000D03*
D10*
X43180000Y-41275000D03*
D12*
X34290000Y-38735000D03*
X40640000Y-36195000D03*
D15*
X149860000Y-35718750D03*
X149860000Y-38258750D03*
D16*
X149860000Y-40798750D03*
X149860000Y-43338750D03*
D15*
X149860000Y-45878750D03*
X149860000Y-48418750D03*
X149860000Y-50958750D03*
X149860000Y-53498750D03*
X149860000Y-56038750D03*
X149860000Y-58578750D03*
X149860000Y-61118750D03*
X149860000Y-63658750D03*
X165100000Y-35718750D03*
D16*
X165100000Y-38258750D03*
D15*
X165100000Y-40798750D03*
X165100000Y-43338750D03*
X165100000Y-45878750D03*
X165100000Y-48418750D03*
X165100000Y-50958750D03*
X165100000Y-53498750D03*
X165100000Y-56038750D03*
X165100000Y-58578750D03*
X165100000Y-61118750D03*
X165100000Y-63658750D03*
D10*
X198120000Y-41275000D03*
D11*
X203200000Y-41275000D03*
D10*
X208280000Y-41275000D03*
D12*
X199390000Y-38735000D03*
X205740000Y-36195000D03*
D10*
X133032500Y-60325000D03*
D11*
X138112500Y-60325000D03*
D10*
X143192500Y-60325000D03*
D12*
X134302500Y-57785000D03*
X140652500Y-55245000D03*
D10*
X75882500Y-96837500D03*
D11*
X80962500Y-96837500D03*
D10*
X86042500Y-96837500D03*
D12*
X77152500Y-94297500D03*
X83502500Y-91757500D03*
D17*
X36250000Y-126156250D03*
X36990000Y-126156250D03*
X37730000Y-126156250D03*
X38470000Y-126156250D03*
X39210000Y-126156250D03*
X39950000Y-126156250D03*
D10*
X293370000Y-79375000D03*
D11*
X298450000Y-79375000D03*
D10*
X303530000Y-79375000D03*
D12*
X294640000Y-76835000D03*
X300990000Y-74295000D03*
D10*
X274320000Y-117475000D03*
D11*
X279400000Y-117475000D03*
D10*
X284480000Y-117475000D03*
D12*
X275590000Y-114935000D03*
X281940000Y-112395000D03*
D10*
X274320000Y-98425000D03*
D11*
X279400000Y-98425000D03*
D10*
X284480000Y-98425000D03*
D12*
X275590000Y-95885000D03*
X281940000Y-93345000D03*
D10*
X37782500Y-117475000D03*
D11*
X42862500Y-117475000D03*
D10*
X47942500Y-117475000D03*
D12*
X39052500Y-114935000D03*
X45402500Y-112395000D03*
D10*
X75882500Y-115887500D03*
D11*
X80962500Y-115887500D03*
D10*
X86042500Y-115887500D03*
D12*
X77152500Y-113347500D03*
X83502500Y-110807500D03*
D10*
X274320000Y-60325000D03*
D11*
X279400000Y-60325000D03*
D10*
X284480000Y-60325000D03*
D12*
X275590000Y-57785000D03*
X281940000Y-55245000D03*
D10*
X198120000Y-79375000D03*
D11*
X203200000Y-79375000D03*
D10*
X208280000Y-79375000D03*
D12*
X199390000Y-76835000D03*
X205740000Y-74295000D03*
D10*
X333851250Y-41275000D03*
D11*
X338931250Y-41275000D03*
D10*
X344011250Y-41275000D03*
D12*
X335121250Y-38735000D03*
X341471250Y-36195000D03*
D18*
X320675000Y-66006250D03*
X320675000Y-62706250D03*
X41275000Y-103981250D03*
X41275000Y-100681250D03*
X306387500Y-104106250D03*
X306387500Y-100806250D03*
X225425000Y-45243750D03*
X225425000Y-41943750D03*
X65087500Y-123093750D03*
X65087500Y-119793750D03*
X84137500Y-45243750D03*
X84137500Y-41943750D03*
X103187500Y-62831250D03*
X103187500Y-59531250D03*
X103187500Y-43656250D03*
X103187500Y-40356250D03*
X84137500Y-121443750D03*
X84137500Y-118143750D03*
X244475000Y-81756250D03*
X244475000Y-78456250D03*
X103187500Y-100806250D03*
X103187500Y-97506250D03*
X263525000Y-83406250D03*
X263525000Y-80106250D03*
X225425000Y-102393750D03*
X225425000Y-99093750D03*
X41275000Y-66006250D03*
X41275000Y-62706250D03*
X206375000Y-103981250D03*
X206375000Y-100681250D03*
X141287500Y-103981250D03*
X141287500Y-100681250D03*
X141287500Y-46831250D03*
X141287500Y-43531250D03*
X84137500Y-102518750D03*
X84137500Y-99218750D03*
X84137500Y-83406250D03*
X84137500Y-80106250D03*
X122237500Y-121506250D03*
X122237500Y-118206250D03*
X41275000Y-46893750D03*
X41275000Y-43593750D03*
X301625000Y-65943750D03*
X301625000Y-62643750D03*
X65087500Y-46893750D03*
X65087500Y-43593750D03*
X206375000Y-66006250D03*
X206375000Y-62706250D03*
X103187500Y-81818750D03*
X103187500Y-78518750D03*
X225425000Y-64293750D03*
X225425000Y-60993750D03*
X103187500Y-119856250D03*
X103187500Y-116556250D03*
X244475000Y-119856250D03*
X244475000Y-116556250D03*
X84137500Y-64356250D03*
X84137500Y-61056250D03*
X263525000Y-64356250D03*
X263525000Y-61056250D03*
X282575000Y-123093750D03*
X282575000Y-119793750D03*
X206375000Y-84993750D03*
X206375000Y-81693750D03*
X263525000Y-121443750D03*
X263525000Y-118143750D03*
X206375000Y-46831250D03*
X206375000Y-43531250D03*
X225425000Y-121506250D03*
X225425000Y-118206250D03*
X201612500Y-123093750D03*
X201612500Y-119793750D03*
X141287500Y-65943750D03*
X141287500Y-62643750D03*
X263525000Y-102393750D03*
X263525000Y-99093750D03*
X65087500Y-103981250D03*
X65087500Y-100681250D03*
X301625000Y-123093750D03*
X301625000Y-119793750D03*
X146050000Y-123093750D03*
X146050000Y-119793750D03*
X263525000Y-45306250D03*
X263525000Y-42006250D03*
X122237500Y-45368750D03*
X122237500Y-42068750D03*
X244475000Y-62768750D03*
X244475000Y-59468750D03*
X282575000Y-65943750D03*
X282575000Y-62643750D03*
X301625000Y-46831250D03*
X301625000Y-43531250D03*
X320675000Y-46893750D03*
X320675000Y-43593750D03*
X65087500Y-65943750D03*
X65087500Y-62643750D03*
X122237500Y-64356250D03*
X122237500Y-61056250D03*
X325437500Y-84993750D03*
X325437500Y-81693750D03*
X141287500Y-84993750D03*
X141287500Y-81693750D03*
X122237500Y-102393750D03*
X122237500Y-99093750D03*
X282575000Y-103981250D03*
X282575000Y-100681250D03*
X225425000Y-83406250D03*
X225425000Y-80106250D03*
X342106250Y-65943750D03*
X342106250Y-62643750D03*
X65087500Y-84931250D03*
X65087500Y-81631250D03*
X244475000Y-43781250D03*
X244475000Y-40481250D03*
X282575000Y-46893750D03*
X282575000Y-43593750D03*
X41275000Y-84931250D03*
X41275000Y-81631250D03*
X122237500Y-83406250D03*
X122237500Y-80106250D03*
X244475000Y-100868750D03*
X244475000Y-97568750D03*
X301625000Y-84993750D03*
X301625000Y-81693750D03*
X46037500Y-123093750D03*
X46037500Y-119793750D03*
X342106250Y-46831250D03*
X342106250Y-43531250D03*
X282575000Y-84993750D03*
X282575000Y-81693750D03*
M02*
