G04 #@! TF.GenerationSoftware,KiCad,Pcbnew,8.0.2*
G04 #@! TF.CreationDate,2024-05-24T11:31:22+03:00*
G04 #@! TF.ProjectId,ratless65,7261746c-6573-4733-9635-2e6b69636164,rev?*
G04 #@! TF.SameCoordinates,Original*
G04 #@! TF.FileFunction,Soldermask,Top*
G04 #@! TF.FilePolarity,Negative*
%FSLAX46Y46*%
G04 Gerber Fmt 4.6, Leading zero omitted, Abs format (unit mm)*
G04 Created by KiCad (PCBNEW 8.0.2) date 2024-05-24 11:31:22*
%MOMM*%
%LPD*%
G01*
G04 APERTURE LIST*
G04 Aperture macros list*
%AMRoundRect*
0 Rectangle with rounded corners*
0 $1 Rounding radius*
0 $2 $3 $4 $5 $6 $7 $8 $9 X,Y pos of 4 corners*
0 Add a 4 corners polygon primitive as box body*
4,1,4,$2,$3,$4,$5,$6,$7,$8,$9,$2,$3,0*
0 Add four circle primitives for the rounded corners*
1,1,$1+$1,$2,$3*
1,1,$1+$1,$4,$5*
1,1,$1+$1,$6,$7*
1,1,$1+$1,$8,$9*
0 Add four rect primitives between the rounded corners*
20,1,$1+$1,$2,$3,$4,$5,0*
20,1,$1+$1,$4,$5,$6,$7,0*
20,1,$1+$1,$6,$7,$8,$9,0*
20,1,$1+$1,$8,$9,$2,$3,0*%
G04 Aperture macros list end*
%ADD10C,1.750000*%
%ADD11C,3.987800*%
%ADD12C,1.200000*%
%ADD13O,2.300000X1.500000*%
%ADD14RoundRect,0.250000X0.625000X-0.312500X0.625000X0.312500X-0.625000X0.312500X-0.625000X-0.312500X0*%
%ADD15C,0.500000*%
G04 APERTURE END LIST*
D10*
X236220000Y-95250000D03*
D11*
X241300000Y-95250000D03*
D10*
X246380000Y-95250000D03*
X293370000Y-41275000D03*
D11*
X298450000Y-41275000D03*
D10*
X303530000Y-41275000D03*
X113982500Y-39687500D03*
D11*
X119062500Y-39687500D03*
D10*
X124142500Y-39687500D03*
X133032500Y-41275000D03*
D11*
X138112500Y-41275000D03*
D10*
X143192500Y-41275000D03*
D12*
X178806250Y-72850000D03*
X185806250Y-72850000D03*
D13*
X189106250Y-75000000D03*
X180606250Y-70700000D03*
X183606250Y-70700000D03*
X187606250Y-70700000D03*
D10*
X255270000Y-58737500D03*
D11*
X260350000Y-58737500D03*
D10*
X265430000Y-58737500D03*
X236220000Y-76200000D03*
D11*
X241300000Y-76200000D03*
D10*
X246380000Y-76200000D03*
D14*
X161131250Y-60868750D03*
X161131250Y-57943750D03*
D10*
X236220000Y-57150000D03*
D11*
X241300000Y-57150000D03*
D10*
X246380000Y-57150000D03*
X217170000Y-77787500D03*
D11*
X222250000Y-77787500D03*
D10*
X227330000Y-77787500D03*
X56832500Y-60325000D03*
D11*
X61912500Y-60325000D03*
D10*
X66992500Y-60325000D03*
X133032500Y-98425000D03*
D11*
X138112500Y-98425000D03*
D10*
X143192500Y-98425000D03*
X94932500Y-76200000D03*
D11*
X100012500Y-76200000D03*
D10*
X105092500Y-76200000D03*
X94932500Y-95250000D03*
D11*
X100012500Y-95250000D03*
D10*
X105092500Y-95250000D03*
X56832500Y-41275000D03*
D11*
X61912500Y-41275000D03*
D10*
X66992500Y-41275000D03*
X56832500Y-98425000D03*
D11*
X61912500Y-98425000D03*
D10*
X66992500Y-98425000D03*
X33020000Y-60325000D03*
D11*
X38100000Y-60325000D03*
D10*
X43180000Y-60325000D03*
D15*
X180443750Y-31800000D03*
X179703750Y-31800000D03*
X178963750Y-31800000D03*
X178223750Y-31800000D03*
X177483750Y-31800000D03*
X176743750Y-31800000D03*
D10*
X33020000Y-98425000D03*
D11*
X38100000Y-98425000D03*
D10*
X43180000Y-98425000D03*
X113982500Y-96837500D03*
D11*
X119062500Y-96837500D03*
D10*
X124142500Y-96837500D03*
D14*
X188118750Y-59406250D03*
X188118750Y-56481250D03*
D10*
X133032500Y-79375000D03*
D11*
X138112500Y-79375000D03*
D10*
X143192500Y-79375000D03*
X333851250Y-60325000D03*
D11*
X338931250Y-60325000D03*
D10*
X344011250Y-60325000D03*
D15*
X164568750Y-31800000D03*
X163828750Y-31800000D03*
X163088750Y-31800000D03*
X162348750Y-31800000D03*
X161608750Y-31800000D03*
X160868750Y-31800000D03*
D10*
X56832500Y-117475000D03*
D11*
X61912500Y-117475000D03*
D10*
X66992500Y-117475000D03*
X317182500Y-79375000D03*
D11*
X322262500Y-79375000D03*
D10*
X327342500Y-79375000D03*
X75882500Y-77787500D03*
D11*
X80962500Y-77787500D03*
D10*
X86042500Y-77787500D03*
X33020000Y-79375000D03*
D11*
X38100000Y-79375000D03*
D10*
X43180000Y-79375000D03*
X217170000Y-96837500D03*
D11*
X222250000Y-96837500D03*
D10*
X227330000Y-96837500D03*
X298132500Y-98425000D03*
D11*
X303212500Y-98425000D03*
D10*
X308292500Y-98425000D03*
X255270000Y-96837500D03*
D11*
X260350000Y-96837500D03*
D10*
X265430000Y-96837500D03*
X274320000Y-41275000D03*
D11*
X279400000Y-41275000D03*
D10*
X284480000Y-41275000D03*
D15*
X160868750Y-126156250D03*
X161608750Y-126156250D03*
X162348750Y-126156250D03*
X163088750Y-126156250D03*
X163828750Y-126156250D03*
X164568750Y-126156250D03*
D10*
X217170000Y-115887500D03*
D11*
X222250000Y-115887500D03*
D10*
X227330000Y-115887500D03*
D15*
X347925000Y-32593750D03*
X347185000Y-32593750D03*
X346445000Y-32593750D03*
X345705000Y-32593750D03*
X344965000Y-32593750D03*
X344225000Y-32593750D03*
D10*
X94932500Y-57150000D03*
D11*
X100012500Y-57150000D03*
D10*
X105092500Y-57150000D03*
X236220000Y-38100000D03*
D11*
X241300000Y-38100000D03*
D10*
X246380000Y-38100000D03*
D15*
X30425000Y-32593750D03*
X29685000Y-32593750D03*
X28945000Y-32593750D03*
X28205000Y-32593750D03*
X27465000Y-32593750D03*
X26725000Y-32593750D03*
D10*
X137795000Y-117475000D03*
D11*
X142875000Y-117475000D03*
D10*
X147955000Y-117475000D03*
X198120000Y-98425000D03*
D11*
X203200000Y-98425000D03*
D10*
X208280000Y-98425000D03*
D15*
X301362500Y-126156250D03*
X302102500Y-126156250D03*
X302842500Y-126156250D03*
X303582500Y-126156250D03*
X304322500Y-126156250D03*
X305062500Y-126156250D03*
D10*
X312420000Y-41275000D03*
D11*
X317500000Y-41275000D03*
D10*
X322580000Y-41275000D03*
X312420000Y-60325000D03*
D11*
X317500000Y-60325000D03*
D10*
X322580000Y-60325000D03*
X293370000Y-60325000D03*
D11*
X298450000Y-60325000D03*
D10*
X303530000Y-60325000D03*
X217170000Y-58737500D03*
D11*
X222250000Y-58737500D03*
D10*
X227330000Y-58737500D03*
X236220000Y-114300000D03*
D11*
X241300000Y-114300000D03*
D10*
X246380000Y-114300000D03*
X255270000Y-39687500D03*
D11*
X260350000Y-39687500D03*
D10*
X265430000Y-39687500D03*
X113982500Y-115887500D03*
D11*
X119062500Y-115887500D03*
D10*
X124142500Y-115887500D03*
D12*
X162506250Y-72975000D03*
X155506250Y-72975000D03*
D13*
X152206250Y-70825000D03*
X160706250Y-75125000D03*
X157706250Y-75125000D03*
X153706250Y-75125000D03*
D10*
X94932500Y-114300000D03*
D11*
X100012500Y-114300000D03*
D10*
X105092500Y-114300000D03*
X274320000Y-79375000D03*
D11*
X279400000Y-79375000D03*
D10*
X284480000Y-79375000D03*
X217170000Y-39687500D03*
D11*
X222250000Y-39687500D03*
D10*
X227330000Y-39687500D03*
X75882500Y-58737500D03*
D11*
X80962500Y-58737500D03*
D10*
X86042500Y-58737500D03*
D15*
X176743750Y-126156250D03*
X177483750Y-126156250D03*
X178223750Y-126156250D03*
X178963750Y-126156250D03*
X179703750Y-126156250D03*
X180443750Y-126156250D03*
D10*
X113982500Y-77787500D03*
D11*
X119062500Y-77787500D03*
D10*
X124142500Y-77787500D03*
X193357500Y-117475000D03*
D11*
X198437500Y-117475000D03*
D10*
X203517500Y-117475000D03*
X293370000Y-117475000D03*
D11*
X298450000Y-117475000D03*
D10*
X303530000Y-117475000D03*
X255270000Y-77787500D03*
D11*
X260350000Y-77787500D03*
D10*
X265430000Y-77787500D03*
X255270000Y-115887500D03*
D11*
X260350000Y-115887500D03*
D10*
X265430000Y-115887500D03*
X113982500Y-58737500D03*
D11*
X119062500Y-58737500D03*
D10*
X124142500Y-58737500D03*
X94932500Y-38100000D03*
D11*
X100012500Y-38100000D03*
D10*
X105092500Y-38100000D03*
X198120000Y-60325000D03*
D11*
X203200000Y-60325000D03*
D10*
X208280000Y-60325000D03*
X56832500Y-79375000D03*
D11*
X61912500Y-79375000D03*
D10*
X66992500Y-79375000D03*
X75882500Y-39687500D03*
D11*
X80962500Y-39687500D03*
D10*
X86042500Y-39687500D03*
X33020000Y-41275000D03*
D11*
X38100000Y-41275000D03*
D10*
X43180000Y-41275000D03*
X198120000Y-41275000D03*
D11*
X203200000Y-41275000D03*
D10*
X208280000Y-41275000D03*
X133032500Y-60325000D03*
D11*
X138112500Y-60325000D03*
D10*
X143192500Y-60325000D03*
X75882500Y-96837500D03*
D11*
X80962500Y-96837500D03*
D10*
X86042500Y-96837500D03*
D15*
X36250000Y-126156250D03*
X36990000Y-126156250D03*
X37730000Y-126156250D03*
X38470000Y-126156250D03*
X39210000Y-126156250D03*
X39950000Y-126156250D03*
D10*
X293370000Y-79375000D03*
D11*
X298450000Y-79375000D03*
D10*
X303530000Y-79375000D03*
X274320000Y-117475000D03*
D11*
X279400000Y-117475000D03*
D10*
X284480000Y-117475000D03*
X274320000Y-98425000D03*
D11*
X279400000Y-98425000D03*
D10*
X284480000Y-98425000D03*
X37782500Y-117475000D03*
D11*
X42862500Y-117475000D03*
D10*
X47942500Y-117475000D03*
X75882500Y-115887500D03*
D11*
X80962500Y-115887500D03*
D10*
X86042500Y-115887500D03*
X274320000Y-60325000D03*
D11*
X279400000Y-60325000D03*
D10*
X284480000Y-60325000D03*
X198120000Y-79375000D03*
D11*
X203200000Y-79375000D03*
D10*
X208280000Y-79375000D03*
X333851250Y-41275000D03*
D11*
X338931250Y-41275000D03*
D10*
X344011250Y-41275000D03*
M02*
