G04 #@! TF.GenerationSoftware,KiCad,Pcbnew,8.0.2*
G04 #@! TF.CreationDate,2024-05-24T11:31:22+03:00*
G04 #@! TF.ProjectId,ratless65,7261746c-6573-4733-9635-2e6b69636164,rev?*
G04 #@! TF.SameCoordinates,Original*
G04 #@! TF.FileFunction,Paste,Bot*
G04 #@! TF.FilePolarity,Positive*
%FSLAX46Y46*%
G04 Gerber Fmt 4.6, Leading zero omitted, Abs format (unit mm)*
G04 Created by KiCad (PCBNEW 8.0.2) date 2024-05-24 11:31:22*
%MOMM*%
%LPD*%
G01*
G04 APERTURE LIST*
G04 Aperture macros list*
%AMRoundRect*
0 Rectangle with rounded corners*
0 $1 Rounding radius*
0 $2 $3 $4 $5 $6 $7 $8 $9 X,Y pos of 4 corners*
0 Add a 4 corners polygon primitive as box body*
4,1,4,$2,$3,$4,$5,$6,$7,$8,$9,$2,$3,0*
0 Add four circle primitives for the rounded corners*
1,1,$1+$1,$2,$3*
1,1,$1+$1,$4,$5*
1,1,$1+$1,$6,$7*
1,1,$1+$1,$8,$9*
0 Add four rect primitives between the rounded corners*
20,1,$1+$1,$2,$3,$4,$5,0*
20,1,$1+$1,$4,$5,$6,$7,0*
20,1,$1+$1,$6,$7,$8,$9,0*
20,1,$1+$1,$8,$9,$2,$3,0*%
G04 Aperture macros list end*
%ADD10RoundRect,0.225000X0.375000X-0.225000X0.375000X0.225000X-0.375000X0.225000X-0.375000X-0.225000X0*%
G04 APERTURE END LIST*
D10*
X320675000Y-66006250D03*
X320675000Y-62706250D03*
X41275000Y-103981250D03*
X41275000Y-100681250D03*
X306387500Y-104106250D03*
X306387500Y-100806250D03*
X225425000Y-45243750D03*
X225425000Y-41943750D03*
X65087500Y-123093750D03*
X65087500Y-119793750D03*
X84137500Y-45243750D03*
X84137500Y-41943750D03*
X103187500Y-62831250D03*
X103187500Y-59531250D03*
X103187500Y-43656250D03*
X103187500Y-40356250D03*
X84137500Y-121443750D03*
X84137500Y-118143750D03*
X244475000Y-81756250D03*
X244475000Y-78456250D03*
X103187500Y-100806250D03*
X103187500Y-97506250D03*
X263525000Y-83406250D03*
X263525000Y-80106250D03*
X225425000Y-102393750D03*
X225425000Y-99093750D03*
X41275000Y-66006250D03*
X41275000Y-62706250D03*
X206375000Y-103981250D03*
X206375000Y-100681250D03*
X141287500Y-103981250D03*
X141287500Y-100681250D03*
X141287500Y-46831250D03*
X141287500Y-43531250D03*
X84137500Y-102518750D03*
X84137500Y-99218750D03*
X84137500Y-83406250D03*
X84137500Y-80106250D03*
X122237500Y-121506250D03*
X122237500Y-118206250D03*
X41275000Y-46893750D03*
X41275000Y-43593750D03*
X301625000Y-65943750D03*
X301625000Y-62643750D03*
X65087500Y-46893750D03*
X65087500Y-43593750D03*
X206375000Y-66006250D03*
X206375000Y-62706250D03*
X103187500Y-81818750D03*
X103187500Y-78518750D03*
X225425000Y-64293750D03*
X225425000Y-60993750D03*
X103187500Y-119856250D03*
X103187500Y-116556250D03*
X244475000Y-119856250D03*
X244475000Y-116556250D03*
X84137500Y-64356250D03*
X84137500Y-61056250D03*
X263525000Y-64356250D03*
X263525000Y-61056250D03*
X282575000Y-123093750D03*
X282575000Y-119793750D03*
X206375000Y-84993750D03*
X206375000Y-81693750D03*
X263525000Y-121443750D03*
X263525000Y-118143750D03*
X206375000Y-46831250D03*
X206375000Y-43531250D03*
X225425000Y-121506250D03*
X225425000Y-118206250D03*
X201612500Y-123093750D03*
X201612500Y-119793750D03*
X141287500Y-65943750D03*
X141287500Y-62643750D03*
X263525000Y-102393750D03*
X263525000Y-99093750D03*
X65087500Y-103981250D03*
X65087500Y-100681250D03*
X301625000Y-123093750D03*
X301625000Y-119793750D03*
X146050000Y-123093750D03*
X146050000Y-119793750D03*
X263525000Y-45306250D03*
X263525000Y-42006250D03*
X122237500Y-45368750D03*
X122237500Y-42068750D03*
X244475000Y-62768750D03*
X244475000Y-59468750D03*
X282575000Y-65943750D03*
X282575000Y-62643750D03*
X301625000Y-46831250D03*
X301625000Y-43531250D03*
X320675000Y-46893750D03*
X320675000Y-43593750D03*
X65087500Y-65943750D03*
X65087500Y-62643750D03*
X122237500Y-64356250D03*
X122237500Y-61056250D03*
X325437500Y-84993750D03*
X325437500Y-81693750D03*
X141287500Y-84993750D03*
X141287500Y-81693750D03*
X122237500Y-102393750D03*
X122237500Y-99093750D03*
X282575000Y-103981250D03*
X282575000Y-100681250D03*
X225425000Y-83406250D03*
X225425000Y-80106250D03*
X342106250Y-65943750D03*
X342106250Y-62643750D03*
X65087500Y-84931250D03*
X65087500Y-81631250D03*
X244475000Y-43781250D03*
X244475000Y-40481250D03*
X282575000Y-46893750D03*
X282575000Y-43593750D03*
X41275000Y-84931250D03*
X41275000Y-81631250D03*
X122237500Y-83406250D03*
X122237500Y-80106250D03*
X244475000Y-100868750D03*
X244475000Y-97568750D03*
X301625000Y-84993750D03*
X301625000Y-81693750D03*
X46037500Y-123093750D03*
X46037500Y-119793750D03*
X342106250Y-46831250D03*
X342106250Y-43531250D03*
X282575000Y-84993750D03*
X282575000Y-81693750D03*
M02*
